<svg xmlns="http://www.w3.org/2000/svg" viewBox="0 0 19.971 24.881"><path d="M10.029,0" transform="translate(-10.029 -0.051)" fill="#fff"/><path d="M20.692.192a.05.05,0,1,1,0-.1.05.05,0,1,1,0,.1Z" transform="translate(-10.029 -0.051)"/><path d="M20.072.194a.052.052,0,1,1,.052-.052A.051.051,0,0,1,20.072.194Z" transform="translate(-10.029 -0.051)"/><path d="M19.452.2a.061.061,0,1,1,.06-.061A.06.06,0,0,1,19.452.2Z" transform="translate(-10.029 -0.051)"/><path d="M18.832.2a.062.062,0,1,1,.062-.062A.062.062,0,0,1,18.832.2Z" transform="translate(-10.029 -0.051)"/><path d="M18.212.2a.057.057,0,1,1,.057-.057A.057.057,0,0,1,18.212.2Z" transform="translate(-10.029 -0.051)"/><path d="M17.592.2a.061.061,0,1,1,.06-.061A.06.06,0,0,1,17.592.2Z" transform="translate(-10.029 -0.051)"/><path d="M16.972.206a.064.064,0,0,1-.064-.064.064.064,0,0,1,.064-.063.063.063,0,0,1,.063.063A.064.064,0,0,1,16.972.206Z" transform="translate(-10.029 -0.051)"/><path d="M16.352.215a.073.073,0,1,1,.072-.073A.073.073,0,0,1,16.352.215Z" transform="translate(-10.029 -0.051)"/><path d="M15.732.218a.076.076,0,1,1,0-.151.076.076,0,0,1,0,.151Z" transform="translate(-10.029 -0.051)"/><path d="M15.112.218a.076.076,0,1,1,.075-.076A.076.076,0,0,1,15.112.218Z" transform="translate(-10.029 -0.051)"/><path d="M14.492.221a.079.079,0,1,1,.079-.079A.079.079,0,0,1,14.492.221Z" transform="translate(-10.029 -0.051)"/><path d="M13.872.223a.081.081,0,1,1,.08-.081A.081.081,0,0,1,13.872.223Z" transform="translate(-10.029 -0.051)"/><path d="M13.251.225a.083.083,0,1,1,.083-.083A.083.083,0,0,1,13.251.225Z" transform="translate(-10.029 -0.051)"/><circle cx="2.602" cy="0.091" r="0.086"/><path d="M12.011.23A.088.088,0,1,1,12.1.142.087.087,0,0,1,12.011.23Z" transform="translate(-10.029 -0.051)"/><path d="M11.391.233a.091.091,0,1,1,.091-.091A.091.091,0,0,1,11.391.233Z" transform="translate(-10.029 -0.051)"/><path d="M10.771.228a.086.086,0,1,1,.086-.086A.086.086,0,0,1,10.771.228Z" transform="translate(-10.029 -0.051)"/><path d="M10.151.233a.091.091,0,1,1,.091-.091A.091.091,0,0,1,10.151.233Z" transform="translate(-10.029 -0.051)"/><circle cx="11.283" cy="0.71" r="0.045"/><path d="M20.692.8a.039.039,0,0,1-.039-.04.038.038,0,0,1,.039-.039.039.039,0,0,1,.04.039A.04.04,0,0,1,20.692.8Z" transform="translate(-10.029 -0.051)"/><circle cx="10.043" cy="0.71" r="0.043"/><path d="M19.452.811a.05.05,0,1,1,0-.1.05.05,0,1,1,0,.1Z" transform="translate(-10.029 -0.051)"/><path d="M18.832.811a.05.05,0,1,1,.05-.05A.05.05,0,0,1,18.832.811Z" transform="translate(-10.029 -0.051)"/><path d="M18.212.811a.05.05,0,1,1,.05-.05A.05.05,0,0,1,18.212.811Z" transform="translate(-10.029 -0.051)"/><path d="M17.592.808a.047.047,0,1,1,0-.093.047.047,0,0,1,0,.093Z" transform="translate(-10.029 -0.051)"/><path d="M16.972.823a.062.062,0,1,1,.062-.062A.062.062,0,0,1,16.972.823Z" transform="translate(-10.029 -0.051)"/><path d="M16.352.827a.067.067,0,0,1-.066-.066A.066.066,0,0,1,16.352.7a.065.065,0,0,1,.065.065A.066.066,0,0,1,16.352.827Z" transform="translate(-10.029 -0.051)"/><path d="M15.732.833A.072.072,0,1,1,15.8.761.072.072,0,0,1,15.732.833Z" transform="translate(-10.029 -0.051)"/><path d="M15.112.835a.074.074,0,1,1,.074-.074A.074.074,0,0,1,15.112.835Z" transform="translate(-10.029 -0.051)"/><path d="M14.492.838a.077.077,0,1,1,.077-.077A.077.077,0,0,1,14.492.838Z" transform="translate(-10.029 -0.051)"/><path d="M13.872.842a.081.081,0,1,1,.08-.081A.081.081,0,0,1,13.872.842Z" transform="translate(-10.029 -0.051)"/><path d="M13.251.842a.081.081,0,1,1,.081-.081A.08.08,0,0,1,13.251.842Z" transform="translate(-10.029 -0.051)"/><path d="M12.631.845a.084.084,0,1,1,0-.168.084.084,0,1,1,0,.168Z" transform="translate(-10.029 -0.051)"/><path d="M12.011.847A.086.086,0,1,1,12.1.761.086.086,0,0,1,12.011.847Z" transform="translate(-10.029 -0.051)"/><path d="M11.391.85a.089.089,0,1,1,.09-.089A.089.089,0,0,1,11.391.85Z" transform="translate(-10.029 -0.051)"/><path d="M10.771.842a.081.081,0,1,1,0-.161.081.081,0,1,1,0,.161Z" transform="translate(-10.029 -0.051)"/><path d="M10.151.832a.07.07,0,0,1-.07-.071.07.07,0,0,1,.07-.07.07.07,0,0,1,.071.07A.071.071,0,0,1,10.151.832Z" transform="translate(-10.029 -0.051)"/><path d="M21.932,1.426a.046.046,0,0,1-.046-.046.047.047,0,1,1,.046.046Z" transform="translate(-10.029 -0.051)"/><path d="M21.312,1.418a.038.038,0,1,1,.038-.038A.038.038,0,0,1,21.312,1.418Z" transform="translate(-10.029 -0.051)"/><circle cx="10.663" cy="1.329" r="0.034"/><circle cx="10.043" cy="1.329" r="0.036"/><path d="M19.452,1.421a.041.041,0,1,1,.041-.041A.041.041,0,0,1,19.452,1.421Z" transform="translate(-10.029 -0.051)"/><path d="M18.832,1.418a.038.038,0,1,1,.038-.038A.038.038,0,0,1,18.832,1.418Z" transform="translate(-10.029 -0.051)"/><circle cx="8.183" cy="1.329" r="0.039"/><path d="M17.592,1.421a.041.041,0,1,1,.041-.041A.041.041,0,0,1,17.592,1.421Z" transform="translate(-10.029 -0.051)"/><circle cx="6.943" cy="1.329" r="0.05"/><path d="M16.352,1.44a.06.06,0,1,1,.06-.06A.06.06,0,0,1,16.352,1.44Z" transform="translate(-10.029 -0.051)"/><circle cx="5.703" cy="1.329" r="0.069"/><path d="M15.112,1.454a.074.074,0,1,1,.074-.074A.074.074,0,0,1,15.112,1.454Z" transform="translate(-10.029 -0.051)"/><path d="M14.492,1.456a.076.076,0,0,1-.076-.076.076.076,0,1,1,.076.076Z" transform="translate(-10.029 -0.051)"/><circle cx="3.842" cy="1.329" r="0.077"/><path d="M13.251,1.461a.081.081,0,0,1,0-.162.081.081,0,0,1,0,.162Z" transform="translate(-10.029 -0.051)"/><path d="M12.631,1.464a.084.084,0,1,1,.085-.084A.085.085,0,0,1,12.631,1.464Z" transform="translate(-10.029 -0.051)"/><path d="M12.011,1.464A.084.084,0,1,1,12.1,1.38.085.085,0,0,1,12.011,1.464Z" transform="translate(-10.029 -0.051)"/><path d="M11.391,1.462a.082.082,0,1,1,0-.164.082.082,0,1,1,0,.164Z" transform="translate(-10.029 -0.051)"/><circle cx="0.742" cy="1.329" r="0.072"/><path d="M10.151,1.449a.069.069,0,1,1,.069-.069A.069.069,0,0,1,10.151,1.449Z" transform="translate(-10.029 -0.051)"/><path d="M21.932,2.04A.041.041,0,1,1,21.974,2,.041.041,0,0,1,21.932,2.04Z" transform="translate(-10.029 -0.051)"/><circle cx="11.283" cy="1.947" r="0.034"/><path d="M20.692,2.03A.031.031,0,1,1,20.723,2,.031.031,0,0,1,20.692,2.03Z" transform="translate(-10.029 -0.051)"/><circle cx="10.043" cy="1.947" r="0.034"/><path d="M19.452,2.032A.033.033,0,1,1,19.485,2,.033.033,0,0,1,19.452,2.032Z" transform="translate(-10.029 -0.051)"/><path d="M18.832,2.032A.033.033,0,1,1,18.865,2,.033.033,0,0,1,18.832,2.032Z" transform="translate(-10.029 -0.051)"/><path d="M18.212,2.033A.034.034,0,1,1,18.246,2,.034.034,0,0,1,18.212,2.033Z" transform="translate(-10.029 -0.051)"/><path d="M17.592,2.035A.036.036,0,1,1,17.628,2,.036.036,0,0,1,17.592,2.035Z" transform="translate(-10.029 -0.051)"/><circle cx="6.943" cy="1.947" r="0.046"/><path d="M16.352,2.05A.051.051,0,0,1,16.3,2a.052.052,0,1,1,.1,0A.051.051,0,0,1,16.352,2.05Z" transform="translate(-10.029 -0.051)"/><circle cx="5.703" cy="1.947" r="0.06"/><circle cx="5.082" cy="1.947" r="0.064"/><path d="M14.492,2.071A.072.072,0,1,1,14.564,2,.073.073,0,0,1,14.492,2.071Z" transform="translate(-10.029 -0.051)"/><circle cx="3.842" cy="1.947" r="0.077"/><path d="M13.251,2.078A.079.079,0,1,1,13.331,2,.08.08,0,0,1,13.251,2.078Z" transform="translate(-10.029 -0.051)"/><path d="M12.631,2.08A.081.081,0,1,1,12.712,2,.081.081,0,0,1,12.631,2.08Z" transform="translate(-10.029 -0.051)"/><path d="M12.011,2.076A.077.077,0,1,1,12.089,2,.077.077,0,0,1,12.011,2.076Z" transform="translate(-10.029 -0.051)"/><path d="M11.391,2.076A.077.077,0,1,1,11.469,2,.077.077,0,0,1,11.391,2.076Z" transform="translate(-10.029 -0.051)"/><path d="M10.771,2.069a.07.07,0,1,1,0-.14.07.07,0,1,1,0,.14Z" transform="translate(-10.029 -0.051)"/><circle cx="0.122" cy="1.947" r="0.072"/><path d="M21.932,2.649a.031.031,0,1,1,.031-.031A.031.031,0,0,1,21.932,2.649Z" transform="translate(-10.029 -0.051)"/><path d="M21.312,2.649a.031.031,0,1,1,.031-.031A.031.031,0,0,1,21.312,2.649Z" transform="translate(-10.029 -0.051)"/><path d="M20.692,2.645a.027.027,0,0,1-.027-.027.028.028,0,0,1,.027-.028.029.029,0,0,1,.028.028A.028.028,0,0,1,20.692,2.645Z" transform="translate(-10.029 -0.051)"/><path d="M20.072,2.647a.029.029,0,0,1-.029-.029.029.029,0,1,1,.058,0A.029.029,0,0,1,20.072,2.647Z" transform="translate(-10.029 -0.051)"/><path d="M19.452,2.649a.031.031,0,1,1,.031-.031A.031.031,0,0,1,19.452,2.649Z" transform="translate(-10.029 -0.051)"/><path d="M18.832,2.649a.031.031,0,1,1,.031-.031A.031.031,0,0,1,18.832,2.649Z" transform="translate(-10.029 -0.051)"/><path d="M18.212,2.649a.031.031,0,1,1,.031-.031A.031.031,0,0,1,18.212,2.649Z" transform="translate(-10.029 -0.051)"/><path d="M17.592,2.65a.032.032,0,0,1-.033-.032.033.033,0,0,1,.066,0A.032.032,0,0,1,17.592,2.65Z" transform="translate(-10.029 -0.051)"/><path d="M16.972,2.657a.039.039,0,0,1-.04-.039.04.04,0,0,1,.04-.04.039.039,0,0,1,.039.04A.038.038,0,0,1,16.972,2.657Z" transform="translate(-10.029 -0.051)"/><path d="M16.352,2.666a.048.048,0,0,1-.048-.048.047.047,0,0,1,.048-.048.048.048,0,0,1,.048.048A.049.049,0,0,1,16.352,2.666Z" transform="translate(-10.029 -0.051)"/><path d="M15.732,2.667a.05.05,0,1,1,0-.1.05.05,0,1,1,0,.1Z" transform="translate(-10.029 -0.051)"/><path d="M15.112,2.674a.057.057,0,1,1,.056-.056A.056.056,0,0,1,15.112,2.674Z" transform="translate(-10.029 -0.051)"/><path d="M14.492,2.681a.063.063,0,0,1-.064-.063.064.064,0,1,1,.127,0A.063.063,0,0,1,14.492,2.681Z" transform="translate(-10.029 -0.051)"/><circle cx="3.842" cy="2.566" r="0.074"/><path d="M13.251,2.7a.079.079,0,1,1,.08-.079A.08.08,0,0,1,13.251,2.7Z" transform="translate(-10.029 -0.051)"/><path d="M12.631,2.7a.083.083,0,1,1,.083-.082A.082.082,0,0,1,12.631,2.7Z" transform="translate(-10.029 -0.051)"/><path d="M12.011,2.7a.081.081,0,1,1,.081-.08A.08.08,0,0,1,12.011,2.7Z" transform="translate(-10.029 -0.051)"/><path d="M11.391,2.693a.076.076,0,1,1,.076-.075A.076.076,0,0,1,11.391,2.693Z" transform="translate(-10.029 -0.051)"/><path d="M10.771,2.667a.05.05,0,1,1,.05-.049A.049.049,0,0,1,10.771,2.667Z" transform="translate(-10.029 -0.051)"/><path d="M10.151,2.664a.047.047,0,1,1,.047-.046A.047.047,0,0,1,10.151,2.664Z" transform="translate(-10.029 -0.051)"/><path d="M21.932,3.266a.03.03,0,0,1,0-.059.03.03,0,1,1,0,.059Z" transform="translate(-10.029 -0.051)"/><path d="M21.312,3.264a.028.028,0,0,1,0-.055.028.028,0,1,1,0,.055Z" transform="translate(-10.029 -0.051)"/><path d="M20.692,3.257a.02.02,0,0,1-.02-.021.02.02,0,0,1,.02-.02.02.02,0,0,1,.021.02A.021.021,0,0,1,20.692,3.257Z" transform="translate(-10.029 -0.051)"/><path d="M20.072,3.264a.028.028,0,0,1,0-.055.028.028,0,1,1,0,.055Z" transform="translate(-10.029 -0.051)"/><path d="M19.452,3.266a.03.03,0,1,1,.029-.03A.029.029,0,0,1,19.452,3.266Z" transform="translate(-10.029 -0.051)"/><path d="M18.832,3.266a.03.03,0,1,1,.029-.03A.029.029,0,0,1,18.832,3.266Z" transform="translate(-10.029 -0.051)"/><path d="M18.212,3.267a.031.031,0,0,1-.031-.031.031.031,0,0,1,.062,0A.031.031,0,0,1,18.212,3.267Z" transform="translate(-10.029 -0.051)"/><path d="M17.592,3.269a.033.033,0,1,1,.033-.033A.033.033,0,0,1,17.592,3.269Z" transform="translate(-10.029 -0.051)"/><path d="M16.972,3.273a.037.037,0,1,1,.036-.037A.037.037,0,0,1,16.972,3.273Z" transform="translate(-10.029 -0.051)"/><circle cx="6.323" cy="3.185" r="0.043"/><path d="M15.732,3.285a.048.048,0,0,1-.048-.049.047.047,0,0,1,.048-.047.048.048,0,0,1,.048.047A.049.049,0,0,1,15.732,3.285Z" transform="translate(-10.029 -0.051)"/><path d="M15.112,3.288a.052.052,0,1,1,.051-.052A.052.052,0,0,1,15.112,3.288Z" transform="translate(-10.029 -0.051)"/><path d="M14.492,3.3a.059.059,0,1,1,.058-.059A.058.058,0,0,1,14.492,3.3Z" transform="translate(-10.029 -0.051)"/><path d="M13.872,3.31a.074.074,0,1,1,.073-.074A.074.074,0,0,1,13.872,3.31Z" transform="translate(-10.029 -0.051)"/><path d="M13.251,3.315a.079.079,0,1,1,.08-.079A.079.079,0,0,1,13.251,3.315Z" transform="translate(-10.029 -0.051)"/><path d="M12.631,3.317a.081.081,0,1,1,.081-.081A.08.08,0,0,1,12.631,3.317Z" transform="translate(-10.029 -0.051)"/><path d="M12.011,3.319a.083.083,0,1,1,.083-.083A.083.083,0,0,1,12.011,3.319Z" transform="translate(-10.029 -0.051)"/><path d="M11.391,3.319a.083.083,0,1,1,.083-.083A.083.083,0,0,1,11.391,3.319Z" transform="translate(-10.029 -0.051)"/><path d="M10.771,3.321a.085.085,0,0,1-.084-.085.085.085,0,0,1,.169,0A.085.085,0,0,1,10.771,3.321Z" transform="translate(-10.029 -0.051)"/><path d="M10.151,3.321a.085.085,0,0,1-.084-.085.084.084,0,1,1,.084.085Z" transform="translate(-10.029 -0.051)"/><path d="M22.552,3.883a.028.028,0,0,1-.027-.028.028.028,0,0,1,.055,0A.028.028,0,0,1,22.552,3.883Z" transform="translate(-10.029 -0.051)"/><path d="M21.932,3.879a.024.024,0,0,1-.024-.024.024.024,0,0,1,.024-.024.024.024,0,0,1,.024.024A.023.023,0,0,1,21.932,3.879Z" transform="translate(-10.029 -0.051)"/><path d="M21.312,3.879a.024.024,0,0,1-.024-.024.024.024,0,0,1,.024-.024.024.024,0,0,1,.024.024A.023.023,0,0,1,21.312,3.879Z" transform="translate(-10.029 -0.051)"/><path d="M20.692,3.876a.02.02,0,0,1-.02-.021.02.02,0,0,1,.02-.02.02.02,0,0,1,.021.02A.021.021,0,0,1,20.692,3.876Z" transform="translate(-10.029 -0.051)"/><path d="M20.072,3.876a.021.021,0,1,1,0-.041.02.02,0,0,1,.021.02A.021.021,0,0,1,20.072,3.876Z" transform="translate(-10.029 -0.051)"/><path d="M19.452,3.881a.026.026,0,1,1,.026-.026A.026.026,0,0,1,19.452,3.881Z" transform="translate(-10.029 -0.051)"/><path d="M18.832,3.883a.029.029,0,0,1-.028-.028.028.028,0,0,1,.056,0A.029.029,0,0,1,18.832,3.883Z" transform="translate(-10.029 -0.051)"/><path d="M18.212,3.885a.03.03,0,1,1,.029-.03A.029.029,0,0,1,18.212,3.885Z" transform="translate(-10.029 -0.051)"/><path d="M17.592,3.883a.029.029,0,0,1-.028-.028.028.028,0,0,1,.028-.027.027.027,0,0,1,.027.027A.028.028,0,0,1,17.592,3.883Z" transform="translate(-10.029 -0.051)"/><path d="M16.972,3.885A.03.03,0,1,1,17,3.855.029.029,0,0,1,16.972,3.885Z" transform="translate(-10.029 -0.051)"/><path d="M16.352,3.89a.035.035,0,0,1-.035-.035.035.035,0,0,1,.035-.034.034.034,0,0,1,.034.034A.035.035,0,0,1,16.352,3.89Z" transform="translate(-10.029 -0.051)"/><path d="M15.732,3.9a.04.04,0,1,1,0-.079.04.04,0,0,1,0,.079Z" transform="translate(-10.029 -0.051)"/><path d="M15.112,3.9a.047.047,0,1,1,.046-.047A.047.047,0,0,1,15.112,3.9Z" transform="translate(-10.029 -0.051)"/><path d="M14.492,3.905a.05.05,0,1,1,.049-.05A.05.05,0,0,1,14.492,3.905Z" transform="translate(-10.029 -0.051)"/><path d="M13.872,3.921a.066.066,0,0,1-.066-.066.066.066,0,1,1,.066.066Z" transform="translate(-10.029 -0.051)"/><path d="M13.251,3.933a.078.078,0,1,1,.078-.078A.078.078,0,0,1,13.251,3.933Z" transform="translate(-10.029 -0.051)"/><path d="M12.631,3.939a.084.084,0,0,1,0-.168.084.084,0,1,1,0,.168Z" transform="translate(-10.029 -0.051)"/><path d="M12.011,3.941a.086.086,0,1,1,.086-.086A.086.086,0,0,1,12.011,3.941Z" transform="translate(-10.029 -0.051)"/><path d="M11.391,3.943a.088.088,0,1,1,.088-.088A.087.087,0,0,1,11.391,3.943Z" transform="translate(-10.029 -0.051)"/><path d="M10.771,3.938a.083.083,0,1,1,.083-.083A.083.083,0,0,1,10.771,3.938Z" transform="translate(-10.029 -0.051)"/><path d="M10.151,3.948a.093.093,0,1,1,.093-.093A.093.093,0,0,1,10.151,3.948Z" transform="translate(-10.029 -0.051)"/><path d="M22.552,4.5a.024.024,0,0,1,0-.048.024.024,0,1,1,0,.048Z" transform="translate(-10.029 -0.051)"/><path d="M21.932,4.493a.019.019,0,0,1-.019-.019.02.02,0,0,1,.019-.019.019.019,0,0,1,.019.019A.018.018,0,0,1,21.932,4.493Z" transform="translate(-10.029 -0.051)"/><circle cx="11.283" cy="4.423" r="0.021"/><path d="M20.692,4.493a.019.019,0,0,1-.019-.019.02.02,0,0,1,.019-.019.019.019,0,0,1,.019.019A.018.018,0,0,1,20.692,4.493Z" transform="translate(-10.029 -0.051)"/><path d="M20.072,4.5a.022.022,0,0,1-.021-.021.021.021,0,0,1,.021-.02.02.02,0,0,1,.021.02A.021.021,0,0,1,20.072,4.5Z" transform="translate(-10.029 -0.051)"/><path d="M19.452,4.5a.023.023,0,0,1-.022-.023.022.022,0,0,1,.044,0A.023.023,0,0,1,19.452,4.5Z" transform="translate(-10.029 -0.051)"/><path d="M18.832,4.5a.023.023,0,0,1-.022-.023.022.022,0,0,1,.044,0A.023.023,0,0,1,18.832,4.5Z" transform="translate(-10.029 -0.051)"/><path d="M18.212,4.5a.026.026,0,1,1,.026-.026A.026.026,0,0,1,18.212,4.5Z" transform="translate(-10.029 -0.051)"/><path d="M17.592,4.5a.026.026,0,1,1,.026-.026A.026.026,0,0,1,17.592,4.5Z" transform="translate(-10.029 -0.051)"/><path d="M16.972,4.5A.026.026,0,1,1,17,4.474.026.026,0,0,1,16.972,4.5Z" transform="translate(-10.029 -0.051)"/><path d="M16.352,4.505a.031.031,0,1,1,.031-.031A.031.031,0,0,1,16.352,4.505Z" transform="translate(-10.029 -0.051)"/><path d="M15.732,4.508a.034.034,0,1,1,0-.068.034.034,0,1,1,0,.068Z" transform="translate(-10.029 -0.051)"/><path d="M15.112,4.52a.046.046,0,0,1-.047-.046.047.047,0,0,1,.093,0A.046.046,0,0,1,15.112,4.52Z" transform="translate(-10.029 -0.051)"/><path d="M14.492,4.527a.053.053,0,1,1,.053-.053A.054.054,0,0,1,14.492,4.527Z" transform="translate(-10.029 -0.051)"/><circle cx="3.842" cy="4.423" r="0.065"/><path d="M13.251,4.551a.077.077,0,1,1,.078-.077A.077.077,0,0,1,13.251,4.551Z" transform="translate(-10.029 -0.051)"/><path d="M12.631,4.556a.082.082,0,0,1,0-.164.082.082,0,1,1,0,.164Z" transform="translate(-10.029 -0.051)"/><path d="M12.011,4.562a.088.088,0,1,1,.088-.088A.087.087,0,0,1,12.011,4.562Z" transform="translate(-10.029 -0.051)"/><path d="M11.391,4.563a.089.089,0,1,1,.09-.089A.089.089,0,0,1,11.391,4.563Z" transform="translate(-10.029 -0.051)"/><path d="M10.771,4.567a.093.093,0,1,1,.093-.093A.093.093,0,0,1,10.771,4.567Z" transform="translate(-10.029 -0.051)"/><path d="M10.151,4.579a.1.1,0,1,1,.105-.1A.1.1,0,0,1,10.151,4.579Z" transform="translate(-10.029 -0.051)"/><path d="M23.172,5.112a.019.019,0,0,1,0-.038.019.019,0,0,1,0,.038Z" transform="translate(-10.029 -0.051)"/><path d="M22.552,5.112a.019.019,0,1,1,0-.038.019.019,0,1,1,0,.038Z" transform="translate(-10.029 -0.051)"/><path d="M21.932,5.11a.018.018,0,0,1-.017-.017.017.017,0,0,1,.017-.017.016.016,0,0,1,.017.017A.017.017,0,0,1,21.932,5.11Z" transform="translate(-10.029 -0.051)"/><path d="M21.312,5.108a.015.015,0,0,1-.015-.015.015.015,0,0,1,.015-.015.015.015,0,0,1,.016.015A.016.016,0,0,1,21.312,5.108Z" transform="translate(-10.029 -0.051)"/><path d="M20.692,5.107a.014.014,0,0,1,0-.028.014.014,0,1,1,0,.028Z" transform="translate(-10.029 -0.051)"/><path d="M20.072,5.108a.015.015,0,0,1-.015-.015.015.015,0,0,1,.015-.015.015.015,0,0,1,.016.015A.016.016,0,0,1,20.072,5.108Z" transform="translate(-10.029 -0.051)"/><path d="M19.452,5.11a.018.018,0,0,1-.017-.017.017.017,0,0,1,.017-.017.016.016,0,0,1,.017.017A.017.017,0,0,1,19.452,5.11Z" transform="translate(-10.029 -0.051)"/><path d="M18.832,5.112a.019.019,0,1,1,.019-.019A.02.02,0,0,1,18.832,5.112Z" transform="translate(-10.029 -0.051)"/><path d="M18.212,5.114a.021.021,0,1,1,.021-.021A.022.022,0,0,1,18.212,5.114Z" transform="translate(-10.029 -0.051)"/><path d="M17.592,5.115a.022.022,0,1,1,.022-.022A.022.022,0,0,1,17.592,5.115Z" transform="translate(-10.029 -0.051)"/><circle cx="6.943" cy="5.042" r="0.024"/><path d="M16.352,5.122a.029.029,0,1,1,.029-.029A.029.029,0,0,1,16.352,5.122Z" transform="translate(-10.029 -0.051)"/><path d="M15.732,5.127a.034.034,0,1,1,0-.068.034.034,0,1,1,0,.068Z" transform="translate(-10.029 -0.051)"/><circle cx="5.082" cy="5.042" r="0.043"/><path d="M14.492,5.145a.052.052,0,0,1-.052-.052.052.052,0,0,1,.1,0A.052.052,0,0,1,14.492,5.145Z" transform="translate(-10.029 -0.051)"/><circle cx="3.842" cy="5.042" r="0.064"/><path d="M13.251,5.168a.075.075,0,0,1-.075-.075.076.076,0,1,1,.075.075Z" transform="translate(-10.029 -0.051)"/><path d="M12.631,5.175a.082.082,0,1,1,.083-.082A.082.082,0,0,1,12.631,5.175Z" transform="translate(-10.029 -0.051)"/><path d="M12.011,5.179a.086.086,0,1,1,.086-.086A.087.087,0,0,1,12.011,5.179Z" transform="translate(-10.029 -0.051)"/><path d="M11.391,5.182a.089.089,0,1,1,.09-.089A.089.089,0,0,1,11.391,5.182Z" transform="translate(-10.029 -0.051)"/><circle cx="0.742" cy="5.042" r="0.1"/><circle cx="0.122" cy="5.042" r="0.106"/><circle cx="13.763" cy="5.66" r="0.017"/><circle cx="13.143" cy="5.66" r="0.017"/><path d="M22.552,5.729a.018.018,0,0,1-.017-.017.017.017,0,0,1,.017-.017.017.017,0,0,1,.018.017A.018.018,0,0,1,22.552,5.729Z" transform="translate(-10.029 -0.051)"/><path d="M21.932,5.727a.015.015,0,0,1-.015-.015.016.016,0,0,1,.015-.016.016.016,0,0,1,.016.016A.016.016,0,0,1,21.932,5.727Z" transform="translate(-10.029 -0.051)"/><circle cx="11.283" cy="5.66" r="0.015"/><path d="M20.692,5.725a.014.014,0,0,1-.014-.013.014.014,0,0,1,.014-.014.014.014,0,0,1,.014.014A.013.013,0,0,1,20.692,5.725Z" transform="translate(-10.029 -0.051)"/><path d="M20.072,5.724a.012.012,0,0,1-.012-.012.012.012,0,1,1,.024,0A.012.012,0,0,1,20.072,5.724Z" transform="translate(-10.029 -0.051)"/><path d="M19.452,5.724a.012.012,0,0,1-.012-.012.012.012,0,0,1,.024,0A.012.012,0,0,1,19.452,5.724Z" transform="translate(-10.029 -0.051)"/><path d="M18.832,5.724a.012.012,0,0,1-.012-.012.012.012,0,1,1,.024,0A.012.012,0,0,1,18.832,5.724Z" transform="translate(-10.029 -0.051)"/><circle cx="8.183" cy="5.66" r="0.019"/><path d="M17.592,5.731a.019.019,0,0,1-.019-.019.018.018,0,0,1,.019-.019.019.019,0,0,1,.019.019A.02.02,0,0,1,17.592,5.731Z" transform="translate(-10.029 -0.051)"/><path d="M16.972,5.734a.022.022,0,0,1-.023-.022.022.022,0,0,1,.023-.022.022.022,0,0,1,.022.022A.022.022,0,0,1,16.972,5.734Z" transform="translate(-10.029 -0.051)"/><circle cx="6.323" cy="5.66" r="0.027"/><path d="M15.732,5.743a.031.031,0,1,1,.031-.031A.031.031,0,0,1,15.732,5.743Z" transform="translate(-10.029 -0.051)"/><path d="M15.112,5.753a.042.042,0,0,1-.042-.041.042.042,0,0,1,.083,0A.042.042,0,0,1,15.112,5.753Z" transform="translate(-10.029 -0.051)"/><path d="M14.492,5.762a.05.05,0,0,1-.05-.05.05.05,0,1,1,.05.05Z" transform="translate(-10.029 -0.051)"/><circle cx="3.842" cy="5.66" r="0.064"/><path d="M13.251,5.786a.074.074,0,1,1,.074-.074A.074.074,0,0,1,13.251,5.786Z" transform="translate(-10.029 -0.051)"/><circle cx="2.602" cy="5.66" r="0.082"/><path d="M12.011,5.8a.086.086,0,0,1,0-.172.086.086,0,0,1,0,.172Z" transform="translate(-10.029 -0.051)"/><path d="M11.391,5.805a.093.093,0,1,1,.093-.093A.093.093,0,0,1,11.391,5.805Z" transform="translate(-10.029 -0.051)"/><path d="M10.771,5.813a.1.1,0,1,1,.1-.1A.1.1,0,0,1,10.771,5.813Z" transform="translate(-10.029 -0.051)"/><path d="M10.151,5.822a.11.11,0,1,1,.11-.11A.11.11,0,0,1,10.151,5.822Z" transform="translate(-10.029 -0.051)"/><path d="M24.413,6.346a.016.016,0,0,1-.016-.015.016.016,0,0,1,.016-.016.016.016,0,0,1,.015.016A.015.015,0,0,1,24.413,6.346Z" transform="translate(-10.029 -0.051)"/><path d="M23.792,6.346a.015.015,0,0,1-.015-.015.016.016,0,0,1,.015-.016.016.016,0,0,1,.016.016A.016.016,0,0,1,23.792,6.346Z" transform="translate(-10.029 -0.051)"/><path d="M23.172,6.346a.015.015,0,0,1-.015-.015.016.016,0,0,1,.015-.016.016.016,0,0,1,.016.016A.016.016,0,0,1,23.172,6.346Z" transform="translate(-10.029 -0.051)"/><path d="M22.552,6.346a.015.015,0,0,1-.015-.015.016.016,0,0,1,.015-.016.016.016,0,0,1,.016.016A.016.016,0,0,1,22.552,6.346Z" transform="translate(-10.029 -0.051)"/><path d="M21.932,6.344a.013.013,0,0,1-.013-.013.013.013,0,0,1,.013-.014.014.014,0,0,1,.014.014A.013.013,0,0,1,21.932,6.344Z" transform="translate(-10.029 -0.051)"/><circle cx="11.283" cy="6.279" r="0.012"/><circle cx="10.663" cy="6.279" r="0.01"/><path d="M20.072,6.343a.012.012,0,0,1-.012-.012.012.012,0,1,1,.024,0A.012.012,0,0,1,20.072,6.343Z" transform="translate(-10.029 -0.051)"/><path d="M19.452,6.343a.012.012,0,0,1-.012-.012.012.012,0,1,1,.024,0A.012.012,0,0,1,19.452,6.343Z" transform="translate(-10.029 -0.051)"/><path d="M18.832,6.344a.013.013,0,0,1-.014-.013.014.014,0,1,1,.028,0A.013.013,0,0,1,18.832,6.344Z" transform="translate(-10.029 -0.051)"/><path d="M18.212,6.346a.016.016,0,0,1-.016-.015.016.016,0,0,1,.016-.016.016.016,0,0,1,.015.016A.015.015,0,0,1,18.212,6.346Z" transform="translate(-10.029 -0.051)"/><path d="M17.592,6.348a.017.017,0,0,1-.017-.017.016.016,0,0,1,.017-.017.017.017,0,0,1,.017.017A.018.018,0,0,1,17.592,6.348Z" transform="translate(-10.029 -0.051)"/><circle cx="6.943" cy="6.279" r="0.019"/><path d="M16.352,6.355a.024.024,0,0,1-.024-.024.023.023,0,0,1,.024-.024.024.024,0,0,1,.024.024A.024.024,0,0,1,16.352,6.355Z" transform="translate(-10.029 -0.051)"/><path d="M15.732,6.36a.03.03,0,0,1-.03-.029.031.031,0,0,1,.03-.03.03.03,0,0,1,.029.03A.029.029,0,0,1,15.732,6.36Z" transform="translate(-10.029 -0.051)"/><circle cx="5.082" cy="6.279" r="0.036"/><path d="M14.492,6.377a.047.047,0,1,1,.046-.046A.047.047,0,0,1,14.492,6.377Z" transform="translate(-10.029 -0.051)"/><circle cx="3.842" cy="6.279" r="0.062"/><path d="M13.251,6.4a.073.073,0,1,1,.073-.072A.073.073,0,0,1,13.251,6.4Z" transform="translate(-10.029 -0.051)"/><circle cx="2.602" cy="6.279" r="0.082"/><path d="M12.011,6.418a.088.088,0,1,1,.088-.087A.087.087,0,0,1,12.011,6.418Z" transform="translate(-10.029 -0.051)"/><path d="M11.391,6.425a.095.095,0,0,1,0-.189.095.095,0,1,1,0,.189Z" transform="translate(-10.029 -0.051)"/><path d="M10.771,6.435a.1.1,0,1,1,.1-.1A.1.1,0,0,1,10.771,6.435Z" transform="translate(-10.029 -0.051)"/><path d="M10.151,6.444a.114.114,0,1,1,.114-.113A.114.114,0,0,1,10.151,6.444Z" transform="translate(-10.029 -0.051)"/><path d="M25.033,6.963a.014.014,0,0,1-.014-.014.013.013,0,0,1,.014-.013.013.013,0,0,1,.013.013A.013.013,0,0,1,25.033,6.963Z" transform="translate(-10.029 -0.051)"/><path d="M24.413,6.963a.014.014,0,0,1-.014-.014.013.013,0,0,1,.014-.013.013.013,0,0,1,.013.013A.013.013,0,0,1,24.413,6.963Z" transform="translate(-10.029 -0.051)"/><path d="M23.792,6.963a.013.013,0,0,1-.013-.014.013.013,0,0,1,.013-.013.013.013,0,0,1,.014.013A.014.014,0,0,1,23.792,6.963Z" transform="translate(-10.029 -0.051)"/><path d="M23.172,6.963a.013.013,0,0,1-.013-.014.013.013,0,0,1,.013-.013.013.013,0,0,1,.014.013A.014.014,0,0,1,23.172,6.963Z" transform="translate(-10.029 -0.051)"/><circle cx="12.523" cy="6.898" r="0.012"/><path d="M21.932,6.96a.011.011,0,0,1-.01-.011.011.011,0,0,1,.01-.01.011.011,0,0,1,.011.01A.011.011,0,0,1,21.932,6.96Z" transform="translate(-10.029 -0.051)"/><circle cx="11.283" cy="6.898" r="0.009"/><circle cx="10.663" cy="6.898" r="0.009"/><circle cx="10.043" cy="6.898" r="0.009"/><circle cx="9.423" cy="6.898" r="0.009"/><path d="M18.832,6.96a.01.01,0,0,1-.01-.011.01.01,0,0,1,.02,0A.01.01,0,0,1,18.832,6.96Z" transform="translate(-10.029 -0.051)"/><path d="M18.212,6.963a.014.014,0,0,1-.014-.014.014.014,0,0,1,.028,0A.014.014,0,0,1,18.212,6.963Z" transform="translate(-10.029 -0.051)"/><path d="M17.592,6.963a.014.014,0,0,1-.014-.014.013.013,0,0,1,.014-.013.014.014,0,0,1,.014.013A.014.014,0,0,1,17.592,6.963Z" transform="translate(-10.029 -0.051)"/><path d="M16.972,6.967a.017.017,0,0,1-.017-.018.017.017,0,0,1,.017-.017.018.018,0,0,1,.017.017A.018.018,0,0,1,16.972,6.967Z" transform="translate(-10.029 -0.051)"/><path d="M16.352,6.968a.018.018,0,0,1-.019-.019.018.018,0,0,1,.019-.018.019.019,0,1,1,0,.037Z" transform="translate(-10.029 -0.051)"/><path d="M15.732,6.975a.026.026,0,1,1,0-.051.026.026,0,1,1,0,.051Z" transform="translate(-10.029 -0.051)"/><path d="M15.112,6.98a.031.031,0,0,1-.031-.031.031.031,0,0,1,.062,0A.031.031,0,0,1,15.112,6.98Z" transform="translate(-10.029 -0.051)"/><path d="M14.492,6.991a.042.042,0,1,1,.041-.042A.042.042,0,0,1,14.492,6.991Z" transform="translate(-10.029 -0.051)"/><path d="M13.872,7.006a.057.057,0,1,1,.056-.057A.056.056,0,0,1,13.872,7.006Z" transform="translate(-10.029 -0.051)"/><path d="M13.251,7.021a.072.072,0,1,1,0-.144.072.072,0,1,1,0,.144Z" transform="translate(-10.029 -0.051)"/><path d="M12.631,7.032a.083.083,0,1,1,.083-.083A.083.083,0,0,1,12.631,7.032Z" transform="translate(-10.029 -0.051)"/><path d="M12.011,7.039a.09.09,0,1,1,.09-.09A.089.089,0,0,1,12.011,7.039Z" transform="translate(-10.029 -0.051)"/><circle cx="1.362" cy="6.898" r="0.098"/><path d="M10.771,7.061a.112.112,0,1,1,.112-.112A.112.112,0,0,1,10.771,7.061Z" transform="translate(-10.029 -0.051)"/><path d="M10.151,7.066a.117.117,0,1,1,.117-.117A.117.117,0,0,1,10.151,7.066Z" transform="translate(-10.029 -0.051)"/><path d="M25.653,7.58a.012.012,0,0,1-.012-.012.012.012,0,0,1,.012-.012.013.013,0,0,1,.012.012A.012.012,0,0,1,25.653,7.58Z" transform="translate(-10.029 -0.051)"/><path d="M25.033,7.58a.012.012,0,0,1-.012-.012.012.012,0,0,1,.012-.012.013.013,0,0,1,.012.012A.012.012,0,0,1,25.033,7.58Z" transform="translate(-10.029 -0.051)"/><path d="M24.413,7.58a.012.012,0,0,1-.013-.012.013.013,0,0,1,.013-.012.013.013,0,0,1,.012.012A.012.012,0,0,1,24.413,7.58Z" transform="translate(-10.029 -0.051)"/><path d="M23.792,7.582a.013.013,0,0,1-.013-.014.013.013,0,0,1,.013-.013.013.013,0,0,1,.014.013A.014.014,0,0,1,23.792,7.582Z" transform="translate(-10.029 -0.051)"/><path d="M23.172,7.582a.013.013,0,0,1-.013-.014.013.013,0,0,1,.013-.013.013.013,0,0,1,.014.013A.014.014,0,0,1,23.172,7.582Z" transform="translate(-10.029 -0.051)"/><path d="M22.552,7.578a.01.01,0,0,1-.01-.01.011.011,0,0,1,.01-.01.011.011,0,0,1,.011.01A.01.01,0,0,1,22.552,7.578Z" transform="translate(-10.029 -0.051)"/><path d="M21.932,7.577a.009.009,0,0,1-.008-.009.009.009,0,0,1,.008-.008.009.009,0,0,1,.009.008A.009.009,0,0,1,21.932,7.577Z" transform="translate(-10.029 -0.051)"/><polygon points="11.283 7.524 11.276 7.517 11.283 7.51 11.29 7.517 11.283 7.524"/><polygon points="10.663 7.524 10.656 7.517 10.663 7.51 10.67 7.517 10.663 7.524"/><polygon points="10.043 7.522 10.038 7.517 10.043 7.512 10.048 7.517 10.043 7.522"/><polygon points="9.423 7.524 9.416 7.517 9.423 7.51 9.43 7.517 9.423 7.524"/><path d="M18.832,7.577a.009.009,0,0,1-.009-.009.009.009,0,0,1,.018,0A.009.009,0,0,1,18.832,7.577Z" transform="translate(-10.029 -0.051)"/><path d="M18.212,7.58a.012.012,0,0,1-.012-.012.012.012,0,1,1,.024,0A.012.012,0,0,1,18.212,7.58Z" transform="translate(-10.029 -0.051)"/><path d="M17.592,7.582a.014.014,0,0,1-.014-.014.013.013,0,0,1,.014-.013.014.014,0,0,1,.014.013A.014.014,0,0,1,17.592,7.582Z" transform="translate(-10.029 -0.051)"/><path d="M16.972,7.584a.016.016,0,0,1-.016-.016.016.016,0,0,1,.016-.015.015.015,0,0,1,.015.015A.016.016,0,0,1,16.972,7.584Z" transform="translate(-10.029 -0.051)"/><path d="M16.352,7.585a.016.016,0,0,1-.017-.017.017.017,0,0,1,.017-.017.018.018,0,0,1,.017.017A.017.017,0,0,1,16.352,7.585Z" transform="translate(-10.029 -0.051)"/><path d="M15.732,7.592a.023.023,0,0,1-.024-.024.024.024,0,0,1,.024-.024.024.024,0,0,1,.024.024A.024.024,0,0,1,15.732,7.592Z" transform="translate(-10.029 -0.051)"/><path d="M15.112,7.6a.029.029,0,1,1,0-.058.029.029,0,0,1,0,.058Z" transform="translate(-10.029 -0.051)"/><path d="M14.492,7.606a.038.038,0,0,1,0-.076.038.038,0,0,1,0,.076Z" transform="translate(-10.029 -0.051)"/><circle cx="3.842" cy="7.517" r="0.053"/><path d="M13.251,7.635a.067.067,0,1,1,.068-.067A.067.067,0,0,1,13.251,7.635Z" transform="translate(-10.029 -0.051)"/><path d="M12.631,7.651a.083.083,0,1,1,.083-.083A.083.083,0,0,1,12.631,7.651Z" transform="translate(-10.029 -0.051)"/><path d="M12.011,7.661a.093.093,0,1,1,.093-.093A.093.093,0,0,1,12.011,7.661Z" transform="translate(-10.029 -0.051)"/><path d="M11.391,7.666a.1.1,0,1,1,.1-.1A.1.1,0,0,1,11.391,7.666Z" transform="translate(-10.029 -0.051)"/><path d="M10.771,7.68a.112.112,0,1,1,.112-.112A.112.112,0,0,1,10.771,7.68Z" transform="translate(-10.029 -0.051)"/><path d="M10.151,7.683a.115.115,0,1,1,.115-.115A.115.115,0,0,1,10.151,7.683Z" transform="translate(-10.029 -0.051)"/><path d="M26.273,8.2a.01.01,0,1,1,0-.02.01.01,0,0,1,0,.02Z" transform="translate(-10.029 -0.051)"/><path d="M25.653,8.2a.01.01,0,1,1,0-.02.01.01,0,1,1,0,.02Z" transform="translate(-10.029 -0.051)"/><circle cx="15.003" cy="8.136" r="0.01"/><path d="M24.413,8.2a.012.012,0,1,1,0-.024.012.012,0,0,1,0,.024Z" transform="translate(-10.029 -0.051)"/><path d="M23.792,8.2a.012.012,0,0,1,0-.024.012.012,0,1,1,0,.024Z" transform="translate(-10.029 -0.051)"/><path d="M23.172,8.2a.01.01,0,0,1,0-.02.01.01,0,1,1,0,.02Z" transform="translate(-10.029 -0.051)"/><path d="M22.552,8.2a.009.009,0,0,1,0-.018.009.009,0,0,1,0,.018Z" transform="translate(-10.029 -0.051)"/><polygon points="11.903 8.142 11.896 8.136 11.903 8.129 11.91 8.136 11.903 8.142"/><polygon points="11.283 8.141 11.278 8.136 11.283 8.13 11.288 8.136 11.283 8.141"/><polygon points="10.663 8.141 10.658 8.136 10.663 8.13 10.668 8.136 10.663 8.141"/><polygon points="10.043 8.141 10.038 8.136 10.043 8.13 10.048 8.136 10.043 8.141"/><polygon points="9.423 8.141 9.418 8.136 9.423 8.13 9.428 8.136 9.423 8.141"/><polygon points="8.803 8.142 8.796 8.136 8.803 8.129 8.81 8.136 8.803 8.142"/><path d="M18.212,8.2a.009.009,0,1,1,.009-.009A.009.009,0,0,1,18.212,8.2Z" transform="translate(-10.029 -0.051)"/><path d="M17.592,8.2a.012.012,0,1,1,.012-.012A.012.012,0,0,1,17.592,8.2Z" transform="translate(-10.029 -0.051)"/><path d="M16.972,8.2a.014.014,0,0,1-.014-.014.014.014,0,0,1,.014-.014.015.015,0,0,1,.014.014A.014.014,0,0,1,16.972,8.2Z" transform="translate(-10.029 -0.051)"/><path d="M16.352,8.2a.016.016,0,0,1-.016-.016.015.015,0,0,1,.016-.015.015.015,0,0,1,.015.015A.016.016,0,0,1,16.352,8.2Z" transform="translate(-10.029 -0.051)"/><path d="M15.732,8.206a.018.018,0,0,1-.019-.019.019.019,0,0,1,.019-.019.02.02,0,0,1,.019.019A.019.019,0,0,1,15.732,8.206Z" transform="translate(-10.029 -0.051)"/><path d="M15.112,8.215a.028.028,0,0,1-.028-.028.028.028,0,0,1,.055,0A.028.028,0,0,1,15.112,8.215Z" transform="translate(-10.029 -0.051)"/><path d="M14.492,8.228a.041.041,0,1,1,.041-.041A.041.041,0,0,1,14.492,8.228Z" transform="translate(-10.029 -0.051)"/><circle cx="3.842" cy="8.136" r="0.053"/><path d="M13.251,8.254a.067.067,0,1,1,.068-.067A.067.067,0,0,1,13.251,8.254Z" transform="translate(-10.029 -0.051)"/><path d="M12.631,8.268a.081.081,0,1,1,.081-.081A.08.08,0,0,1,12.631,8.268Z" transform="translate(-10.029 -0.051)"/><path d="M12.011,8.278a.091.091,0,1,1,.092-.091A.091.091,0,0,1,12.011,8.278Z" transform="translate(-10.029 -0.051)"/><path d="M11.391,8.271a.084.084,0,0,1,0-.168.084.084,0,1,1,0,.168Z" transform="translate(-10.029 -0.051)"/><path d="M10.771,8.292a.1.1,0,1,1,.1-.105A.1.1,0,0,1,10.771,8.292Z" transform="translate(-10.029 -0.051)"/><path d="M10.151,8.307a.12.12,0,1,1,.121-.12A.12.12,0,0,1,10.151,8.307Z" transform="translate(-10.029 -0.051)"/><path d="M26.893,8.815a.009.009,0,1,1,0-.018.009.009,0,0,1,0,.018Z" transform="translate(-10.029 -0.051)"/><circle cx="16.243" cy="8.754" r="0.009"/><circle cx="15.623" cy="8.754" r="0.009"/><circle cx="15.003" cy="8.754" r="0.009"/><path d="M24.413,8.818a.013.013,0,0,1-.013-.012.012.012,0,0,1,.013-.012.012.012,0,0,1,.012.012A.013.013,0,0,1,24.413,8.818Z" transform="translate(-10.029 -0.051)"/><circle cx="13.763" cy="8.754" r="0.012"/><circle cx="13.143" cy="8.754" r="0.009"/><path d="M22.552,8.815a.009.009,0,0,1,0-.018.009.009,0,0,1,0,.018Z" transform="translate(-10.029 -0.051)"/><polygon points="11.903 8.76 11.898 8.754 11.903 8.749 11.908 8.754 11.903 8.76"/><polygon points="11.283 8.76 11.278 8.754 11.283 8.749 11.288 8.754 11.283 8.76"/><polygon points="10.663 8.76 10.658 8.754 10.663 8.749 10.668 8.754 10.663 8.76"/><polygon points="10.043 8.758 10.039 8.754 10.043 8.751 10.046 8.754 10.043 8.758"/><polygon points="9.423 8.76 9.418 8.754 9.423 8.749 9.428 8.754 9.423 8.76"/><polygon points="8.803 8.76 8.798 8.754 8.803 8.749 8.808 8.754 8.803 8.76"/><polygon points="8.183 8.761 8.176 8.754 8.183 8.748 8.19 8.754 8.183 8.761"/><circle cx="7.563" cy="8.754" r="0.009"/><circle cx="6.943" cy="8.754" r="0.012"/><path d="M16.352,8.82a.014.014,0,0,1,0-.028.014.014,0,1,1,0,.028Z" transform="translate(-10.029 -0.051)"/><path d="M15.732,8.821a.016.016,0,0,1-.016-.015.016.016,0,0,1,.016-.016.016.016,0,0,1,.015.016A.015.015,0,0,1,15.732,8.821Z" transform="translate(-10.029 -0.051)"/><path d="M15.112,8.832a.026.026,0,1,1,.025-.026A.026.026,0,0,1,15.112,8.832Z" transform="translate(-10.029 -0.051)"/><path d="M14.492,8.844a.038.038,0,0,1,0-.076.038.038,0,0,1,0,.076Z" transform="translate(-10.029 -0.051)"/><path d="M13.872,8.856a.05.05,0,0,1-.05-.05.05.05,0,1,1,.05.05Z" transform="translate(-10.029 -0.051)"/><path d="M13.251,8.871a.065.065,0,1,1,.066-.065A.065.065,0,0,1,13.251,8.871Z" transform="translate(-10.029 -0.051)"/><path d="M12.631,8.881a.075.075,0,0,1-.075-.075.076.076,0,1,1,.075.075Z" transform="translate(-10.029 -0.051)"/><path d="M12.011,8.89a.084.084,0,1,1,.085-.084A.085.085,0,0,1,12.011,8.89Z" transform="translate(-10.029 -0.051)"/><path d="M11.391,8.9a.1.1,0,1,1,.1-.1A.1.1,0,0,1,11.391,8.9Z" transform="translate(-10.029 -0.051)"/><path d="M10.771,8.916a.11.11,0,1,1,.11-.11A.11.11,0,0,1,10.771,8.916Z" transform="translate(-10.029 -0.051)"/><path d="M10.151,8.928a.122.122,0,1,1,.122-.122A.122.122,0,0,1,10.151,8.928Z" transform="translate(-10.029 -0.051)"/><polygon points="17.484 9.38 17.477 9.373 17.484 9.366 17.49 9.373 17.484 9.38"/><circle cx="16.864" cy="9.373" r="0.007"/><circle cx="16.243" cy="9.373" r="0.009"/><circle cx="15.623" cy="9.373" r="0.009"/><circle cx="15.003" cy="9.373" r="0.009"/><circle cx="14.383" cy="9.373" r="0.01"/><circle cx="13.763" cy="9.373" r="0.01"/><circle cx="13.143" cy="9.373" r="0.009"/><polygon points="12.523 9.38 12.516 9.373 12.523 9.366 12.53 9.373 12.523 9.38"/><polygon points="11.903 9.378 11.898 9.373 11.903 9.368 11.908 9.373 11.903 9.378"/><polygon points="11.283 9.378 11.278 9.373 11.283 9.368 11.288 9.373 11.283 9.378"/><polygon points="10.663 9.377 10.66 9.373 10.663 9.37 10.666 9.373 10.663 9.377"/><polygon points="10.043 9.377 10.039 9.373 10.043 9.37 10.046 9.373 10.043 9.377"/><polygon points="9.423 9.377 9.419 9.373 9.423 9.37 9.426 9.373 9.423 9.377"/><polygon points="8.803 9.378 8.798 9.373 8.803 9.368 8.808 9.373 8.803 9.378"/><polygon points="8.183 9.378 8.178 9.373 8.183 9.368 8.188 9.373 8.183 9.378"/><polygon points="7.563 9.38 7.556 9.373 7.563 9.366 7.57 9.373 7.563 9.38"/><circle cx="6.943" cy="9.373" r="0.01"/><path d="M16.352,9.437a.012.012,0,0,1-.012-.012.012.012,0,0,1,.012-.012.012.012,0,0,1,.012.012A.013.013,0,0,1,16.352,9.437Z" transform="translate(-10.029 -0.051)"/><path d="M15.732,9.44a.016.016,0,0,1-.016-.015.016.016,0,0,1,.016-.016.016.016,0,0,1,.015.016A.015.015,0,0,1,15.732,9.44Z" transform="translate(-10.029 -0.051)"/><circle cx="5.082" cy="9.373" r="0.024"/><path d="M14.492,9.457a.032.032,0,0,1-.033-.032.033.033,0,0,1,.033-.033.032.032,0,0,1,.032.033A.032.032,0,0,1,14.492,9.457Z" transform="translate(-10.029 -0.051)"/><circle cx="3.842" cy="9.373" r="0.041"/><path d="M13.251,9.48a.055.055,0,0,1-.055-.055.056.056,0,0,1,.111,0A.056.056,0,0,1,13.251,9.48Z" transform="translate(-10.029 -0.051)"/><circle cx="2.602" cy="9.373" r="0.069"/><path d="M12.011,9.5a.079.079,0,0,1,0-.158.079.079,0,1,1,0,.158Z" transform="translate(-10.029 -0.051)"/><path d="M11.391,9.514a.089.089,0,1,1,.09-.089A.089.089,0,0,1,11.391,9.514Z" transform="translate(-10.029 -0.051)"/><path d="M10.771,9.526a.1.1,0,0,1,0-.2.1.1,0,1,1,0,.2Z" transform="translate(-10.029 -0.051)"/><path d="M10.151,9.547a.122.122,0,0,1,0-.244.122.122,0,0,1,0,.244Z" transform="translate(-10.029 -0.051)"/><circle cx="18.104" cy="9.992" r="0.003"/><polygon points="17.484 9.997 17.478 9.992 17.484 9.987 17.489 9.992 17.484 9.997"/><polygon points="16.864 9.997 16.858 9.992 16.864 9.987 16.869 9.992 16.864 9.997"/><polygon points="16.243 9.997 16.238 9.992 16.243 9.987 16.249 9.992 16.243 9.997"/><circle cx="15.623" cy="9.992" r="0.007"/><circle cx="15.003" cy="9.992" r="0.009"/><circle cx="14.383" cy="9.992" r="0.009"/><polygon points="13.763 9.999 13.756 9.992 13.763 9.985 13.77 9.992 13.763 9.999"/><polygon points="13.143 9.999 13.136 9.992 13.143 9.985 13.15 9.992 13.143 9.999"/><polygon points="12.523 9.997 12.518 9.992 12.523 9.987 12.528 9.992 12.523 9.997"/><polygon points="11.903 9.997 11.898 9.992 11.903 9.987 11.908 9.992 11.903 9.997"/><polygon points="11.283 9.995 11.28 9.992 11.283 9.989 11.286 9.992 11.283 9.995"/><polygon points="10.663 9.995 10.66 9.992 10.663 9.989 10.666 9.992 10.663 9.995"/><polygon points="10.043 9.995 10.039 9.992 10.043 9.989 10.046 9.992 10.043 9.995"/><polygon points="9.423 9.995 9.419 9.992 9.423 9.989 9.426 9.992 9.423 9.995"/><polygon points="8.803 9.997 8.798 9.992 8.803 9.987 8.808 9.992 8.803 9.997"/><polygon points="8.183 9.997 8.178 9.992 8.183 9.987 8.188 9.992 8.183 9.997"/><polygon points="7.563 9.999 7.556 9.992 7.563 9.985 7.57 9.992 7.563 9.999"/><circle cx="6.943" cy="9.992" r="0.009"/><circle cx="6.323" cy="9.992" r="0.01"/><path d="M15.732,10.057a.014.014,0,0,1-.014-.014.013.013,0,0,1,.014-.013.013.013,0,0,1,.013.013A.013.013,0,0,1,15.732,10.057Z" transform="translate(-10.029 -0.051)"/><path d="M15.112,10.064a.021.021,0,0,1-.021-.021.02.02,0,0,1,.021-.02.02.02,0,0,1,.02.02A.02.02,0,0,1,15.112,10.064Z" transform="translate(-10.029 -0.051)"/><path d="M14.492,10.076a.033.033,0,0,1-.033-.033.032.032,0,0,1,.033-.032.032.032,0,0,1,.032.032A.032.032,0,0,1,14.492,10.076Z" transform="translate(-10.029 -0.051)"/><circle cx="3.842" cy="9.992" r="0.041"/><path d="M13.251,10.092a.049.049,0,1,1,.049-.049A.049.049,0,0,1,13.251,10.092Z" transform="translate(-10.029 -0.051)"/><circle cx="2.602" cy="9.992" r="0.06"/><path d="M12.011,10.117a.074.074,0,1,1,0-.147.074.074,0,1,1,0,.147Z" transform="translate(-10.029 -0.051)"/><path d="M11.391,10.129a.086.086,0,1,1,.086-.086A.086.086,0,0,1,11.391,10.129Z" transform="translate(-10.029 -0.051)"/><circle cx="0.742" cy="9.992" r="0.096"/><path d="M10.151,10.155a.112.112,0,1,1,.112-.112A.112.112,0,0,1,10.151,10.155Z" transform="translate(-10.029 -0.051)"/><polygon points="18.724 10.614 18.72 10.611 18.724 10.607 18.727 10.611 18.724 10.614"/><polygon points="18.104 10.614 18.1 10.611 18.104 10.607 18.107 10.611 18.104 10.614"/><polygon points="17.484 10.614 17.48 10.611 17.484 10.607 17.487 10.611 17.484 10.614"/><polygon points="16.864 10.616 16.858 10.611 16.864 10.606 16.869 10.611 16.864 10.616"/><polygon points="16.243 10.616 16.238 10.611 16.243 10.606 16.249 10.611 16.243 10.616"/><polygon points="15.623 10.616 15.618 10.611 15.623 10.606 15.629 10.611 15.623 10.616"/><polygon points="15.003 10.616 14.998 10.611 15.003 10.606 15.009 10.611 15.003 10.616"/><polygon points="14.383 10.616 14.378 10.611 14.383 10.606 14.388 10.611 14.383 10.616"/><polygon points="13.763 10.616 13.758 10.611 13.763 10.606 13.768 10.611 13.763 10.616"/><polygon points="13.143 10.618 13.136 10.611 13.143 10.604 13.15 10.611 13.143 10.618"/><polygon points="12.523 10.616 12.518 10.611 12.523 10.606 12.528 10.611 12.523 10.616"/><polygon points="11.903 10.616 11.898 10.611 11.903 10.606 11.908 10.611 11.903 10.616"/><polygon points="11.283 10.616 11.278 10.611 11.283 10.606 11.288 10.611 11.283 10.616"/><polygon points="10.663 10.614 10.66 10.611 10.663 10.607 10.666 10.611 10.663 10.614"/><polygon points="10.043 10.614 10.039 10.611 10.043 10.607 10.046 10.611 10.043 10.614"/><polygon points="9.423 10.614 9.419 10.611 9.423 10.607 9.426 10.611 9.423 10.614"/><polygon points="8.803 10.616 8.798 10.611 8.803 10.606 8.808 10.611 8.803 10.616"/><polygon points="8.183 10.616 8.178 10.611 8.183 10.606 8.188 10.611 8.183 10.616"/><circle cx="7.563" cy="10.611" r="0.009"/><circle cx="6.943" cy="10.611" r="0.009"/><circle cx="6.323" cy="10.611" r="0.01"/><circle cx="5.703" cy="10.611" r="0.01"/><path d="M15.112,10.68a.018.018,0,0,1-.018-.018.018.018,0,0,1,.018-.017.018.018,0,0,1,.017.017A.018.018,0,0,1,15.112,10.68Z" transform="translate(-10.029 -0.051)"/><path d="M14.492,10.688a.026.026,0,0,1-.026-.026.026.026,0,0,1,.051,0A.026.026,0,0,1,14.492,10.688Z" transform="translate(-10.029 -0.051)"/><path d="M13.872,10.7a.036.036,0,1,1,.036-.036A.037.037,0,0,1,13.872,10.7Z" transform="translate(-10.029 -0.051)"/><path d="M13.251,10.709a.047.047,0,1,1,.047-.047A.047.047,0,0,1,13.251,10.709Z" transform="translate(-10.029 -0.051)"/><circle cx="2.602" cy="10.611" r="0.052"/><path d="M12.011,10.727a.065.065,0,0,1,0-.13.065.065,0,1,1,0,.13Z" transform="translate(-10.029 -0.051)"/><path d="M11.391,10.741a.079.079,0,1,1,.079-.079A.079.079,0,0,1,11.391,10.741Z" transform="translate(-10.029 -0.051)"/><path d="M10.771,10.752a.09.09,0,1,1,.09-.09A.089.089,0,0,1,10.771,10.752Z" transform="translate(-10.029 -0.051)"/><circle cx="0.122" cy="10.611" r="0.088"/><polygon points="19.344 11.235 19.339 11.23 19.344 11.225 19.349 11.23 19.344 11.235"/><polygon points="18.724 11.233 18.72 11.23 18.724 11.226 18.727 11.23 18.724 11.233"/><polygon points="18.104 11.233 18.1 11.23 18.104 11.226 18.107 11.23 18.104 11.233"/><polygon points="17.484 11.233 17.48 11.23 17.484 11.226 17.487 11.23 17.484 11.233"/><polygon points="16.864 11.235 16.858 11.23 16.864 11.225 16.869 11.23 16.864 11.235"/><polygon points="16.243 11.233 16.24 11.23 16.243 11.226 16.247 11.23 16.243 11.233"/><polygon points="15.623 11.235 15.618 11.23 15.623 11.225 15.629 11.23 15.623 11.235"/><polygon points="15.003 11.235 14.998 11.23 15.003 11.225 15.009 11.23 15.003 11.235"/><polygon points="14.383 11.233 14.38 11.23 14.383 11.226 14.387 11.23 14.383 11.233"/><polygon points="13.763 11.235 13.758 11.23 13.763 11.225 13.768 11.23 13.763 11.235"/><polygon points="13.143 11.235 13.138 11.23 13.143 11.225 13.148 11.23 13.143 11.235"/><polygon points="12.523 11.235 12.518 11.23 12.523 11.225 12.528 11.23 12.523 11.235"/><polygon points="11.903 11.235 11.898 11.23 11.903 11.225 11.908 11.23 11.903 11.235"/><polygon points="11.283 11.233 11.28 11.23 11.283 11.226 11.286 11.23 11.283 11.233"/><polygon points="10.663 11.233 10.66 11.23 10.663 11.226 10.666 11.23 10.663 11.233"/><polygon points="10.043 11.233 10.039 11.23 10.043 11.226 10.046 11.23 10.043 11.233"/><polygon points="9.423 11.235 9.418 11.23 9.423 11.225 9.428 11.23 9.423 11.235"/><polygon points="8.803 11.235 8.798 11.23 8.803 11.225 8.808 11.23 8.803 11.235"/><polygon points="8.183 11.235 8.178 11.23 8.183 11.225 8.188 11.23 8.183 11.235"/><polygon points="7.563 11.236 7.556 11.23 7.563 11.223 7.57 11.23 7.563 11.236"/><circle cx="6.943" cy="11.23" r="0.01"/><path d="M16.352,11.293a.012.012,0,1,1,0-.024.012.012,0,0,1,0,.024Z" transform="translate(-10.029 -0.051)"/><path d="M15.732,11.3a.014.014,0,0,1-.014-.014.014.014,0,0,1,.014-.014.014.014,0,0,1,.013.014A.013.013,0,0,1,15.732,11.3Z" transform="translate(-10.029 -0.051)"/><path d="M15.112,11.3a.017.017,0,0,1-.018-.017.018.018,0,0,1,.018-.017.018.018,0,0,1,.017.017A.017.017,0,0,1,15.112,11.3Z" transform="translate(-10.029 -0.051)"/><path d="M14.492,11.305a.024.024,0,1,1,0-.048.024.024,0,1,1,0,.048Z" transform="translate(-10.029 -0.051)"/><path d="M13.872,11.31a.029.029,0,1,1,.029-.029A.029.029,0,0,1,13.872,11.31Z" transform="translate(-10.029 -0.051)"/><path d="M13.251,11.317a.036.036,0,1,1,.037-.036A.036.036,0,0,1,13.251,11.317Z" transform="translate(-10.029 -0.051)"/><path d="M12.631,11.329a.048.048,0,0,1-.048-.048.049.049,0,1,1,.048.048Z" transform="translate(-10.029 -0.051)"/><path d="M12.011,11.341a.06.06,0,1,1,.061-.06A.06.06,0,0,1,12.011,11.341Z" transform="translate(-10.029 -0.051)"/><path d="M11.391,11.353a.072.072,0,0,1,0-.144.072.072,0,1,1,0,.144Z" transform="translate(-10.029 -0.051)"/><path d="M10.771,11.369a.088.088,0,1,1,.088-.088A.088.088,0,0,1,10.771,11.369Z" transform="translate(-10.029 -0.051)"/><path d="M10.151,11.343a.062.062,0,1,1,.062-.062A.062.062,0,0,1,10.151,11.343Z" transform="translate(-10.029 -0.051)"/><polygon points="19.964 11.855 19.957 11.849 19.964 11.842 19.971 11.849 19.964 11.855"/><polygon points="19.344 11.854 19.339 11.849 19.344 11.843 19.349 11.849 19.344 11.854"/><polygon points="18.724 11.854 18.719 11.849 18.724 11.843 18.729 11.849 18.724 11.854"/><polygon points="18.104 11.852 18.1 11.849 18.104 11.845 18.107 11.849 18.104 11.852"/><polygon points="17.484 11.852 17.48 11.849 17.484 11.845 17.487 11.849 17.484 11.852"/><polygon points="16.864 11.852 16.86 11.849 16.864 11.845 16.867 11.849 16.864 11.852"/><polygon points="16.243 11.852 16.24 11.849 16.243 11.845 16.247 11.849 16.243 11.852"/><polygon points="15.623 11.852 15.62 11.849 15.623 11.845 15.627 11.849 15.623 11.852"/><polygon points="15.003 11.852 15 11.849 15.003 11.845 15.007 11.849 15.003 11.852"/><polygon points="14.383 11.852 14.38 11.849 14.383 11.845 14.387 11.849 14.383 11.852"/><polygon points="13.763 11.854 13.758 11.849 13.763 11.843 13.768 11.849 13.763 11.854"/><polygon points="13.143 11.854 13.138 11.849 13.143 11.843 13.148 11.849 13.143 11.854"/><polygon points="12.523 11.854 12.518 11.849 12.523 11.843 12.528 11.849 12.523 11.854"/><polygon points="11.903 11.852 11.9 11.849 11.903 11.845 11.907 11.849 11.903 11.852"/><polygon points="11.283 11.852 11.28 11.849 11.283 11.845 11.286 11.849 11.283 11.852"/><polygon points="10.663 11.852 10.66 11.849 10.663 11.845 10.666 11.849 10.663 11.852"/><polygon points="10.043 11.854 10.038 11.849 10.043 11.843 10.048 11.849 10.043 11.854"/><polygon points="9.423 11.854 9.418 11.849 9.423 11.843 9.428 11.849 9.423 11.854"/><polygon points="8.803 11.854 8.798 11.849 8.803 11.843 8.808 11.849 8.803 11.854"/><polygon points="8.183 11.854 8.178 11.849 8.183 11.843 8.188 11.849 8.183 11.854"/><polygon points="7.563 11.855 7.556 11.849 7.563 11.842 7.57 11.849 7.563 11.855"/><path d="M16.972,11.91a.01.01,0,1,1,.01-.01A.009.009,0,0,1,16.972,11.91Z" transform="translate(-10.029 -0.051)"/><path d="M16.352,11.912a.012.012,0,0,1,0-.024.012.012,0,0,1,0,.024Z" transform="translate(-10.029 -0.051)"/><path d="M15.732,11.914a.014.014,0,0,1,0-.028.014.014,0,0,1,0,.028Z" transform="translate(-10.029 -0.051)"/><path d="M15.112,11.917a.018.018,0,0,1-.018-.017.017.017,0,0,1,.018-.017.017.017,0,0,1,.017.017A.018.018,0,0,1,15.112,11.917Z" transform="translate(-10.029 -0.051)"/><path d="M14.492,11.922a.022.022,0,1,1,0-.044.022.022,0,1,1,0,.044Z" transform="translate(-10.029 -0.051)"/><path d="M13.872,11.926A.026.026,0,1,1,13.9,11.9.026.026,0,0,1,13.872,11.926Z" transform="translate(-10.029 -0.051)"/><path d="M13.251,11.933a.033.033,0,1,1,.033-.033A.032.032,0,0,1,13.251,11.933Z" transform="translate(-10.029 -0.051)"/><circle cx="2.602" cy="11.849" r="0.043"/><path d="M12.011,11.953a.053.053,0,1,1,.054-.053A.053.053,0,0,1,12.011,11.953Z" transform="translate(-10.029 -0.051)"/><path d="M11.391,11.967a.067.067,0,1,1,.067-.067A.067.067,0,0,1,11.391,11.967Z" transform="translate(-10.029 -0.051)"/><path d="M10.771,11.986a.086.086,0,1,1,.086-.086A.087.087,0,0,1,10.771,11.986Z" transform="translate(-10.029 -0.051)"/><path d="M10.151,12.011a.112.112,0,1,1,.112-.111A.111.111,0,0,1,10.151,12.011Z" transform="translate(-10.029 -0.051)"/><polygon points="19.964 12.474 19.957 12.467 19.964 12.46 19.971 12.467 19.964 12.474"/><polygon points="19.344 12.472 19.339 12.467 19.344 12.462 19.349 12.467 19.344 12.472"/><polygon points="18.724 12.471 18.72 12.467 18.724 12.464 18.727 12.467 18.724 12.471"/><polygon points="18.104 12.471 18.1 12.467 18.104 12.464 18.107 12.467 18.104 12.471"/><polygon points="17.484 12.471 17.48 12.467 17.484 12.464 17.487 12.467 17.484 12.471"/><polygon points="16.864 12.471 16.86 12.467 16.864 12.464 16.867 12.467 16.864 12.471"/><polygon points="16.243 12.469 16.242 12.467 16.243 12.466 16.245 12.467 16.243 12.469"/><polygon points="15.623 12.469 15.622 12.467 15.623 12.466 15.625 12.467 15.623 12.469"/><circle cx="15.003" cy="12.467" r="0.002"/><polygon points="14.383 12.471 14.38 12.467 14.383 12.464 14.387 12.467 14.383 12.471"/><polygon points="13.763 12.471 13.76 12.467 13.763 12.464 13.767 12.467 13.763 12.471"/><polygon points="13.143 12.471 13.14 12.467 13.143 12.464 13.147 12.467 13.143 12.471"/><polygon points="12.523 12.472 12.518 12.467 12.523 12.462 12.528 12.467 12.523 12.472"/><polygon points="11.903 12.471 11.9 12.467 11.903 12.464 11.907 12.467 11.903 12.471"/><polygon points="11.283 12.471 11.28 12.467 11.283 12.464 11.286 12.467 11.283 12.471"/><polygon points="10.663 12.471 10.66 12.467 10.663 12.464 10.666 12.467 10.663 12.471"/><polygon points="10.043 12.471 10.039 12.467 10.043 12.464 10.046 12.467 10.043 12.471"/><polygon points="9.423 12.472 9.418 12.467 9.423 12.462 9.428 12.467 9.423 12.472"/><polygon points="8.803 12.472 8.798 12.467 8.803 12.462 8.808 12.467 8.803 12.472"/><polygon points="8.183 12.474 8.176 12.467 8.183 12.46 8.19 12.467 8.183 12.474"/><polygon points="7.563 12.474 7.556 12.467 7.563 12.46 7.57 12.467 7.563 12.474"/><circle cx="6.943" cy="12.467" r="0.01"/><path d="M16.352,12.531a.012.012,0,0,1-.012-.012.012.012,0,0,1,.012-.012.012.012,0,0,1,.012.012A.013.013,0,0,1,16.352,12.531Z" transform="translate(-10.029 -0.051)"/><path d="M15.732,12.533a.014.014,0,0,1-.014-.014.014.014,0,0,1,.014-.014.013.013,0,0,1,.013.014A.014.014,0,0,1,15.732,12.533Z" transform="translate(-10.029 -0.051)"/><path d="M15.112,12.536a.018.018,0,0,1-.018-.017.017.017,0,0,1,.018-.017.017.017,0,0,1,.017.017A.018.018,0,0,1,15.112,12.536Z" transform="translate(-10.029 -0.051)"/><path d="M14.492,12.539a.02.02,0,0,1-.021-.02.021.021,0,0,1,.021-.021.02.02,0,0,1,.02.021A.02.02,0,0,1,14.492,12.539Z" transform="translate(-10.029 -0.051)"/><path d="M13.872,12.546a.027.027,0,0,1-.028-.027.028.028,0,1,1,.055,0A.027.027,0,0,1,13.872,12.546Z" transform="translate(-10.029 -0.051)"/><path d="M13.251,12.55a.031.031,0,1,1,.031-.031A.03.03,0,0,1,13.251,12.55Z" transform="translate(-10.029 -0.051)"/><path d="M12.631,12.558a.039.039,0,0,1-.039-.039.04.04,0,1,1,.079,0A.039.039,0,0,1,12.631,12.558Z" transform="translate(-10.029 -0.051)"/><path d="M12.011,12.567a.049.049,0,0,1-.048-.048.049.049,0,0,1,.1,0A.049.049,0,0,1,12.011,12.567Z" transform="translate(-10.029 -0.051)"/><path d="M11.391,12.577a.059.059,0,1,1,.059-.058A.058.058,0,0,1,11.391,12.577Z" transform="translate(-10.029 -0.051)"/><path d="M10.771,12.6a.079.079,0,0,1,0-.158.079.079,0,0,1,0,.158Z" transform="translate(-10.029 -0.051)"/><path d="M10.151,12.613a.095.095,0,0,1,0-.189.095.095,0,1,1,0,.189Z" transform="translate(-10.029 -0.051)"/><polygon points="19.964 13.091 19.959 13.086 19.964 13.081 19.969 13.086 19.964 13.091"/><polygon points="19.344 13.091 19.339 13.086 19.344 13.081 19.349 13.086 19.344 13.091"/><polygon points="18.724 13.091 18.719 13.086 18.724 13.081 18.729 13.086 18.724 13.091"/><circle cx="18.104" cy="13.086" r="0.003"/><polygon points="17.484 13.09 17.48 13.086 17.484 13.083 17.487 13.086 17.484 13.09"/><polygon points="16.864 13.09 16.86 13.086 16.864 13.083 16.867 13.086 16.864 13.09"/><polygon points="16.243 13.088 16.242 13.086 16.243 13.084 16.245 13.085 16.243 13.088"/><polygon points="15.623 13.088 15.622 13.086 15.623 13.084 15.625 13.085 15.623 13.088"/><polygon points="15.003 13.088 15.002 13.086 15.003 13.084 15.005 13.085 15.003 13.088"/><polygon points="14.383 13.088 14.382 13.086 14.383 13.084 14.385 13.085 14.383 13.088"/><polygon points="13.763 13.09 13.76 13.086 13.763 13.083 13.767 13.086 13.763 13.09"/><polygon points="13.143 13.09 13.14 13.086 13.143 13.083 13.147 13.086 13.143 13.09"/><polygon points="12.523 13.09 12.52 13.086 12.523 13.083 12.527 13.086 12.523 13.09"/><polygon points="11.903 13.09 11.9 13.086 11.903 13.083 11.907 13.086 11.903 13.09"/><polygon points="11.283 13.091 11.278 13.086 11.283 13.081 11.288 13.086 11.283 13.091"/><polygon points="10.663 13.091 10.658 13.086 10.663 13.081 10.668 13.086 10.663 13.091"/><polygon points="10.043 13.091 10.038 13.086 10.043 13.081 10.048 13.086 10.043 13.091"/><polygon points="9.423 13.091 9.418 13.086 9.423 13.081 9.428 13.086 9.423 13.091"/><polygon points="8.803 13.091 8.798 13.086 8.803 13.081 8.808 13.086 8.803 13.091"/><polygon points="8.183 13.093 8.176 13.086 8.183 13.079 8.19 13.086 8.183 13.093"/><circle cx="7.563" cy="13.086" r="0.009"/><circle cx="6.943" cy="13.086" r="0.012"/><path d="M16.352,13.151a.013.013,0,0,1-.014-.013.014.014,0,0,1,.014-.014.014.014,0,0,1,.014.014A.014.014,0,0,1,16.352,13.151Z" transform="translate(-10.029 -0.051)"/><path d="M15.732,13.151a.013.013,0,0,1-.014-.013.014.014,0,0,1,.014-.014.013.013,0,0,1,.013.014A.013.013,0,0,1,15.732,13.151Z" transform="translate(-10.029 -0.051)"/><path d="M15.112,13.155a.018.018,0,0,1-.018-.017.018.018,0,0,1,.018-.018.018.018,0,0,1,.017.018A.018.018,0,0,1,15.112,13.155Z" transform="translate(-10.029 -0.051)"/><path d="M14.492,13.158a.02.02,0,0,1-.021-.02.021.021,0,0,1,.021-.021.02.02,0,0,1,.02.021A.02.02,0,0,1,14.492,13.158Z" transform="translate(-10.029 -0.051)"/><path d="M13.872,13.163a.026.026,0,1,1,.025-.025A.025.025,0,0,1,13.872,13.163Z" transform="translate(-10.029 -0.051)"/><path d="M13.251,13.17a.032.032,0,0,1-.032-.032.033.033,0,1,1,.065,0A.032.032,0,0,1,13.251,13.17Z" transform="translate(-10.029 -0.051)"/><path d="M12.631,13.174a.036.036,0,0,1-.036-.036.037.037,0,1,1,.073,0A.037.037,0,0,1,12.631,13.174Z" transform="translate(-10.029 -0.051)"/><path d="M12.011,13.184a.047.047,0,1,1,.047-.046A.047.047,0,0,1,12.011,13.184Z" transform="translate(-10.029 -0.051)"/><path d="M11.391,13.191a.054.054,0,1,1,.054-.053A.053.053,0,0,1,11.391,13.191Z" transform="translate(-10.029 -0.051)"/><path d="M10.771,13.2a.065.065,0,0,1-.065-.065.066.066,0,0,1,.065-.066.067.067,0,0,1,.066.066A.066.066,0,0,1,10.771,13.2Z" transform="translate(-10.029 -0.051)"/><path d="M10.151,13.22a.083.083,0,1,1,.083-.082A.082.082,0,0,1,10.151,13.22Z" transform="translate(-10.029 -0.051)"/><polygon points="19.964 13.71 19.959 13.705 19.964 13.7 19.969 13.705 19.964 13.71"/><polygon points="19.344 13.71 19.339 13.705 19.344 13.7 19.349 13.705 19.344 13.71"/><polygon points="18.724 13.71 18.719 13.705 18.724 13.7 18.729 13.705 18.724 13.71"/><circle cx="18.104" cy="13.705" r="0.003"/><polygon points="17.484 13.708 17.48 13.705 17.484 13.702 17.487 13.705 17.484 13.708"/><polygon points="16.864 13.708 16.86 13.705 16.864 13.702 16.867 13.705 16.864 13.708"/><polygon points="16.243 13.707 16.242 13.705 16.243 13.703 16.245 13.705 16.243 13.707"/><polygon points="15.623 13.707 15.622 13.705 15.623 13.703 15.625 13.705 15.623 13.707"/><circle cx="15.003" cy="13.705" r="0.002"/><circle cx="14.383" cy="13.705" r="0.002"/><circle cx="13.763" cy="13.705" r="0.002"/><polygon points="13.143 13.707 13.141 13.705 13.143 13.703 13.145 13.705 13.143 13.707"/><polygon points="12.523 13.708 12.52 13.705 12.523 13.702 12.527 13.705 12.523 13.708"/><polygon points="11.903 13.708 11.9 13.705 11.903 13.702 11.907 13.705 11.903 13.708"/><polygon points="11.283 13.708 11.28 13.705 11.283 13.702 11.286 13.705 11.283 13.708"/><polygon points="10.663 13.71 10.658 13.705 10.663 13.7 10.668 13.705 10.663 13.71"/><polygon points="10.043 13.71 10.038 13.705 10.043 13.7 10.048 13.705 10.043 13.71"/><circle cx="9.423" cy="13.705" r="0.007"/><circle cx="8.803" cy="13.705" r="0.009"/><path d="M18.212,13.765a.009.009,0,0,1-.009-.009.009.009,0,0,1,.018,0A.009.009,0,0,1,18.212,13.765Z" transform="translate(-10.029 -0.051)"/><path d="M17.592,13.767a.01.01,0,0,1-.01-.011.01.01,0,0,1,.02,0A.01.01,0,0,1,17.592,13.767Z" transform="translate(-10.029 -0.051)"/><circle cx="6.943" cy="13.705" r="0.012"/><path d="M16.352,13.77a.014.014,0,0,1-.014-.014.013.013,0,0,1,.014-.013.014.014,0,0,1,.014.013A.014.014,0,0,1,16.352,13.77Z" transform="translate(-10.029 -0.051)"/><path d="M15.732,13.77a.014.014,0,0,1-.014-.014.013.013,0,0,1,.014-.013.013.013,0,0,1,.013.013A.013.013,0,0,1,15.732,13.77Z" transform="translate(-10.029 -0.051)"/><circle cx="5.082" cy="13.705" r="0.015"/><path d="M14.492,13.779a.023.023,0,1,1,0-.045.022.022,0,0,1,.022.022A.022.022,0,0,1,14.492,13.779Z" transform="translate(-10.029 -0.051)"/><circle cx="3.842" cy="13.705" r="0.027"/><path d="M13.251,13.787a.03.03,0,0,1-.03-.031.031.031,0,1,1,.061,0A.03.03,0,0,1,13.251,13.787Z" transform="translate(-10.029 -0.051)"/><path d="M12.631,13.794a.038.038,0,0,1-.037-.038.038.038,0,0,1,.075,0A.038.038,0,0,1,12.631,13.794Z" transform="translate(-10.029 -0.051)"/><path d="M12.011,13.8a.045.045,0,1,1,.045-.045A.045.045,0,0,1,12.011,13.8Z" transform="translate(-10.029 -0.051)"/><path d="M11.391,13.813a.057.057,0,1,1,.057-.057A.056.056,0,0,1,11.391,13.813Z" transform="translate(-10.029 -0.051)"/><path d="M10.771,13.822a.066.066,0,0,1-.065-.066.065.065,0,0,1,.065-.065.066.066,0,0,1,.066.065A.067.067,0,0,1,10.771,13.822Z" transform="translate(-10.029 -0.051)"/><path d="M10.151,13.858a.1.1,0,1,1,.1-.1A.1.1,0,0,1,10.151,13.858Z" transform="translate(-10.029 -0.051)"/><polygon points="19.344 14.329 19.339 14.324 19.344 14.319 19.349 14.324 19.344 14.329"/><polygon points="18.724 14.327 18.72 14.324 18.724 14.32 18.727 14.324 18.724 14.327"/><circle cx="18.104" cy="14.324" r="0.003"/><polygon points="17.484 14.325 17.482 14.324 17.483 14.322 17.485 14.324 17.484 14.325"/><circle cx="16.864" cy="14.324" r="0.002"/><polygon points="16.243 14.325 16.242 14.324 16.243 14.322 16.245 14.324 16.243 14.325"/><polygon points="15.623 14.325 15.622 14.324 15.623 14.322 15.625 14.324 15.623 14.325"/><circle cx="15.003" cy="14.324" r="0.002"/><circle cx="14.383" cy="14.324" r="0.002"/><circle cx="13.763" cy="14.324" r="0.002"/><polygon points="13.143 14.325 13.141 14.324 13.143 14.322 13.145 14.324 13.143 14.325"/><polygon points="12.523 14.325 12.521 14.324 12.523 14.322 12.525 14.324 12.523 14.325"/><polygon points="11.903 14.327 11.9 14.324 11.903 14.32 11.907 14.324 11.903 14.327"/><polygon points="11.283 14.327 11.28 14.324 11.283 14.32 11.286 14.324 11.283 14.327"/><polygon points="10.663 14.329 10.658 14.324 10.663 14.319 10.668 14.324 10.663 14.329"/><circle cx="10.043" cy="14.324" r="0.007"/><circle cx="9.423" cy="14.324" r="0.007"/><circle cx="8.803" cy="14.324" r="0.009"/><path d="M18.212,14.384a.009.009,0,0,1-.009-.009.009.009,0,0,1,.018,0A.009.009,0,0,1,18.212,14.384Z" transform="translate(-10.029 -0.051)"/><path d="M17.592,14.386a.01.01,0,0,1-.01-.011.01.01,0,0,1,.02,0A.01.01,0,0,1,17.592,14.386Z" transform="translate(-10.029 -0.051)"/><circle cx="6.943" cy="14.324" r="0.012"/><path d="M16.352,14.389a.014.014,0,0,1-.014-.014.014.014,0,0,1,.014-.014.015.015,0,0,1,.014.014A.014.014,0,0,1,16.352,14.389Z" transform="translate(-10.029 -0.051)"/><path d="M15.732,14.389a.014.014,0,0,1-.014-.014.014.014,0,0,1,.014-.014.014.014,0,0,1,.013.014A.013.013,0,0,1,15.732,14.389Z" transform="translate(-10.029 -0.051)"/><path d="M15.112,14.391a.016.016,0,0,1-.016-.016.016.016,0,0,1,.016-.015.015.015,0,0,1,.015.015A.016.016,0,0,1,15.112,14.391Z" transform="translate(-10.029 -0.051)"/><path d="M14.492,14.4a.021.021,0,0,1-.021-.021.02.02,0,0,1,.021-.02.02.02,0,0,1,.02.02A.02.02,0,0,1,14.492,14.4Z" transform="translate(-10.029 -0.051)"/><path d="M13.872,14.4a.028.028,0,0,1-.028-.028.028.028,0,0,1,.055,0A.028.028,0,0,1,13.872,14.4Z" transform="translate(-10.029 -0.051)"/><path d="M13.251,14.406a.031.031,0,1,1,.031-.031A.03.03,0,0,1,13.251,14.406Z" transform="translate(-10.029 -0.051)"/><path d="M12.631,14.413a.038.038,0,1,1,.038-.038A.038.038,0,0,1,12.631,14.413Z" transform="translate(-10.029 -0.051)"/><path d="M12.011,14.418a.043.043,0,0,1,0-.086.043.043,0,0,1,0,.086Z" transform="translate(-10.029 -0.051)"/><path d="M11.391,14.432a.057.057,0,1,1,.057-.057A.056.056,0,0,1,11.391,14.432Z" transform="translate(-10.029 -0.051)"/><circle cx="0.742" cy="14.324" r="0.072"/><path d="M10.151,14.466a.091.091,0,1,1,.091-.091A.091.091,0,0,1,10.151,14.466Z" transform="translate(-10.029 -0.051)"/><polygon points="18.104 14.946 18.1 14.943 18.104 14.939 18.107 14.943 18.104 14.946"/><polygon points="17.484 14.946 17.48 14.943 17.484 14.939 17.487 14.943 17.484 14.946"/><circle cx="16.864" cy="14.943" r="0.002"/><polygon points="16.243 14.944 16.242 14.943 16.243 14.941 16.245 14.943 16.243 14.944"/><polygon points="15.623 14.944 15.622 14.943 15.623 14.941 15.625 14.943 15.623 14.944"/><circle cx="15.003" cy="14.943" r="0.002"/><circle cx="14.383" cy="14.943" r="0.002"/><circle cx="13.763" cy="14.943" r="0.002"/><polygon points="13.143 14.944 13.141 14.943 13.143 14.941 13.145 14.943 13.143 14.944"/><polygon points="12.523 14.944 12.521 14.943 12.523 14.941 12.525 14.943 12.523 14.944"/><polygon points="11.903 14.946 11.9 14.943 11.903 14.939 11.907 14.943 11.903 14.946"/><polygon points="11.283 14.948 11.278 14.943 11.283 14.937 11.288 14.943 11.283 14.948"/><polygon points="10.663 14.948 10.658 14.943 10.663 14.937 10.668 14.943 10.663 14.948"/><polygon points="10.043 14.949 10.036 14.943 10.043 14.936 10.05 14.943 10.043 14.949"/><circle cx="9.423" cy="14.943" r="0.009"/><circle cx="8.803" cy="14.943" r="0.009"/><path d="M18.212,15a.009.009,0,1,1,.009-.009A.009.009,0,0,1,18.212,15Z" transform="translate(-10.029 -0.051)"/><path d="M17.592,15a.01.01,0,1,1,.01-.01A.009.009,0,0,1,17.592,15Z" transform="translate(-10.029 -0.051)"/><circle cx="6.943" cy="14.943" r="0.012"/><path d="M16.352,15.006a.012.012,0,0,1,0-.024.012.012,0,0,1,0,.024Z" transform="translate(-10.029 -0.051)"/><path d="M15.732,15.008a.014.014,0,0,1,0-.028.014.014,0,0,1,0,.028Z" transform="translate(-10.029 -0.051)"/><path d="M15.112,15.01a.016.016,0,0,1-.016-.016.015.015,0,0,1,.016-.015.015.015,0,0,1,.015.015A.016.016,0,0,1,15.112,15.01Z" transform="translate(-10.029 -0.051)"/><path d="M14.492,15.015a.021.021,0,1,1,.02-.021A.021.021,0,0,1,14.492,15.015Z" transform="translate(-10.029 -0.051)"/><path d="M13.872,15.021a.027.027,0,1,1,.027-.027A.027.027,0,0,1,13.872,15.021Z" transform="translate(-10.029 -0.051)"/><path d="M13.251,15.025a.031.031,0,1,1,.031-.031A.03.03,0,0,1,13.251,15.025Z" transform="translate(-10.029 -0.051)"/><path d="M12.631,15.032a.038.038,0,1,1,.038-.038A.038.038,0,0,1,12.631,15.032Z" transform="translate(-10.029 -0.051)"/><path d="M12.011,15.039a.045.045,0,1,1,.045-.045A.045.045,0,0,1,12.011,15.039Z" transform="translate(-10.029 -0.051)"/><circle cx="1.362" cy="14.943" r="0.055"/><path d="M10.771,15.061a.067.067,0,1,1,.067-.067A.067.067,0,0,1,10.771,15.061Z" transform="translate(-10.029 -0.051)"/><circle cx="0.122" cy="14.943" r="0.088"/><polygon points="17.484 15.565 17.48 15.561 17.484 15.558 17.487 15.561 17.484 15.565"/><polygon points="16.864 15.563 16.862 15.561 16.864 15.56 16.865 15.561 16.864 15.563"/><polygon points="16.243 15.563 16.242 15.561 16.243 15.56 16.245 15.561 16.243 15.563"/><polygon points="15.623 15.563 15.622 15.561 15.623 15.56 15.625 15.561 15.623 15.563"/><polygon points="15.003 15.563 15.002 15.561 15.003 15.56 15.005 15.561 15.003 15.563"/><polygon points="14.383 15.563 14.382 15.561 14.383 15.56 14.385 15.561 14.383 15.563"/><polygon points="13.763 15.563 13.762 15.561 13.763 15.56 13.765 15.561 13.763 15.563"/><polygon points="13.143 15.563 13.141 15.561 13.143 15.56 13.145 15.561 13.143 15.563"/><polygon points="12.523 15.565 12.52 15.561 12.523 15.558 12.527 15.561 12.523 15.565"/><polygon points="11.903 15.565 11.9 15.561 11.903 15.558 11.907 15.561 11.903 15.565"/><polygon points="11.283 15.567 11.278 15.561 11.283 15.556 11.288 15.561 11.283 15.567"/><polygon points="10.663 15.567 10.658 15.561 10.663 15.556 10.668 15.561 10.663 15.567"/><polygon points="10.043 15.568 10.036 15.561 10.043 15.555 10.05 15.561 10.043 15.568"/><path d="M19.452,15.621a.008.008,0,0,1-.009-.008.009.009,0,0,1,.018,0A.008.008,0,0,1,19.452,15.621Z" transform="translate(-10.029 -0.051)"/><path d="M18.832,15.621a.008.008,0,0,1-.009-.008.009.009,0,0,1,.018,0A.008.008,0,0,1,18.832,15.621Z" transform="translate(-10.029 -0.051)"/><path d="M18.212,15.621a.008.008,0,0,1-.009-.008.009.009,0,0,1,.018,0A.008.008,0,0,1,18.212,15.621Z" transform="translate(-10.029 -0.051)"/><path d="M17.592,15.623a.01.01,0,0,1-.01-.01.01.01,0,1,1,.02,0A.01.01,0,0,1,17.592,15.623Z" transform="translate(-10.029 -0.051)"/><path d="M16.972,15.625a.012.012,0,0,1-.012-.012.012.012,0,0,1,.012-.012.012.012,0,0,1,.012.012A.013.013,0,0,1,16.972,15.625Z" transform="translate(-10.029 -0.051)"/><path d="M16.352,15.625a.012.012,0,0,1-.012-.012.012.012,0,0,1,.012-.012.012.012,0,0,1,.012.012A.013.013,0,0,1,16.352,15.625Z" transform="translate(-10.029 -0.051)"/><path d="M15.732,15.627a.014.014,0,0,1-.014-.014.014.014,0,0,1,.014-.014.013.013,0,0,1,.013.014A.014.014,0,0,1,15.732,15.627Z" transform="translate(-10.029 -0.051)"/><path d="M15.112,15.628a.016.016,0,0,1-.016-.015.016.016,0,0,1,.016-.016.016.016,0,0,1,.015.016A.015.015,0,0,1,15.112,15.628Z" transform="translate(-10.029 -0.051)"/><path d="M14.492,15.633a.02.02,0,0,1-.021-.02.021.021,0,0,1,.021-.021.02.02,0,0,1,.02.021A.02.02,0,0,1,14.492,15.633Z" transform="translate(-10.029 -0.051)"/><path d="M13.872,15.639a.026.026,0,1,1,.025-.026A.026.026,0,0,1,13.872,15.639Z" transform="translate(-10.029 -0.051)"/><path d="M13.251,15.642a.029.029,0,1,1,.03-.029A.029.029,0,0,1,13.251,15.642Z" transform="translate(-10.029 -0.051)"/><path d="M12.631,15.649a.036.036,0,1,1,.037-.036A.036.036,0,0,1,12.631,15.649Z" transform="translate(-10.029 -0.051)"/><path d="M12.011,15.656a.044.044,0,0,1-.043-.043.043.043,0,0,1,.043-.043.043.043,0,0,1,.043.043A.043.043,0,0,1,12.011,15.656Z" transform="translate(-10.029 -0.051)"/><path d="M11.391,15.664a.052.052,0,1,1,.052-.051A.051.051,0,0,1,11.391,15.664Z" transform="translate(-10.029 -0.051)"/><path d="M10.771,15.68a.067.067,0,1,1,.067-.067A.067.067,0,0,1,10.771,15.68Z" transform="translate(-10.029 -0.051)"/><path d="M10.151,15.7a.084.084,0,0,1,0-.168.084.084,0,0,1,0,.168Z" transform="translate(-10.029 -0.051)"/><polygon points="16.243 16.182 16.242 16.18 16.243 16.178 16.245 16.18 16.243 16.182"/><polygon points="15.623 16.182 15.622 16.18 15.623 16.178 15.625 16.18 15.623 16.182"/><polygon points="15.003 16.182 15.002 16.18 15.003 16.178 15.005 16.18 15.003 16.182"/><polygon points="14.383 16.182 14.382 16.18 14.383 16.178 14.385 16.18 14.383 16.182"/><polygon points="13.763 16.182 13.762 16.18 13.763 16.178 13.765 16.18 13.763 16.182"/><polygon points="13.143 16.184 13.14 16.18 13.143 16.177 13.147 16.18 13.143 16.184"/><polygon points="12.523 16.184 12.52 16.18 12.523 16.177 12.527 16.18 12.523 16.184"/><polygon points="11.903 16.184 11.9 16.18 11.903 16.177 11.907 16.18 11.903 16.184"/><polygon points="11.283 16.185 11.278 16.18 11.283 16.175 11.288 16.18 11.283 16.185"/><polygon points="10.663 16.185 10.658 16.18 10.663 16.175 10.668 16.18 10.663 16.185"/><polygon points="10.043 16.187 10.036 16.18 10.043 16.173 10.05 16.18 10.043 16.187"/><path d="M19.452,16.24a.009.009,0,0,1-.009-.008.009.009,0,0,1,.018,0A.009.009,0,0,1,19.452,16.24Z" transform="translate(-10.029 -0.051)"/><path d="M18.832,16.24a.009.009,0,0,1-.009-.008.009.009,0,0,1,.018,0A.009.009,0,0,1,18.832,16.24Z" transform="translate(-10.029 -0.051)"/><path d="M18.212,16.24a.009.009,0,0,1-.009-.008.009.009,0,0,1,.018,0A.009.009,0,0,1,18.212,16.24Z" transform="translate(-10.029 -0.051)"/><path d="M17.592,16.242a.01.01,0,0,1-.01-.01.01.01,0,1,1,.02,0A.01.01,0,0,1,17.592,16.242Z" transform="translate(-10.029 -0.051)"/><path d="M16.972,16.244a.012.012,0,0,1-.012-.012.012.012,0,0,1,.012-.012.012.012,0,0,1,.012.012A.013.013,0,0,1,16.972,16.244Z" transform="translate(-10.029 -0.051)"/><path d="M16.352,16.245a.013.013,0,0,1-.014-.013.014.014,0,0,1,.014-.014.014.014,0,0,1,.014.014A.014.014,0,0,1,16.352,16.245Z" transform="translate(-10.029 -0.051)"/><path d="M15.732,16.247a.016.016,0,0,1-.016-.015.016.016,0,0,1,.016-.016.016.016,0,0,1,.015.016A.015.015,0,0,1,15.732,16.247Z" transform="translate(-10.029 -0.051)"/><path d="M15.112,16.249a.018.018,0,0,1-.018-.017.017.017,0,0,1,.018-.017.017.017,0,0,1,.017.017A.018.018,0,0,1,15.112,16.249Z" transform="translate(-10.029 -0.051)"/><path d="M14.492,16.252a.02.02,0,0,1-.021-.02.021.021,0,0,1,.021-.021.02.02,0,0,1,.02.021A.02.02,0,0,1,14.492,16.252Z" transform="translate(-10.029 -0.051)"/><path d="M13.872,16.257a.026.026,0,1,1,.025-.025A.025.025,0,0,1,13.872,16.257Z" transform="translate(-10.029 -0.051)"/><path d="M13.251,16.259a.027.027,0,0,1-.027-.027.028.028,0,1,1,.055,0A.027.027,0,0,1,13.251,16.259Z" transform="translate(-10.029 -0.051)"/><path d="M12.631,16.268a.036.036,0,1,1,.037-.036A.036.036,0,0,1,12.631,16.268Z" transform="translate(-10.029 -0.051)"/><path d="M12.011,16.271a.04.04,0,0,1,0-.079.04.04,0,1,1,0,.079Z" transform="translate(-10.029 -0.051)"/><path d="M11.391,16.28a.049.049,0,0,1-.048-.048.048.048,0,0,1,.048-.048.047.047,0,0,1,.048.048A.048.048,0,0,1,11.391,16.28Z" transform="translate(-10.029 -0.051)"/><path d="M10.771,16.293a.061.061,0,0,1-.062-.061.062.062,0,0,1,.124,0A.061.061,0,0,1,10.771,16.293Z" transform="translate(-10.029 -0.051)"/><path d="M10.151,16.309a.078.078,0,0,1,0-.155.078.078,0,1,1,0,.155Z" transform="translate(-10.029 -0.051)"/><polygon points="15.623 16.801 15.622 16.799 15.623 16.797 15.625 16.799 15.623 16.801"/><circle cx="15.003" cy="16.799" r="0.002"/><circle cx="14.383" cy="16.799" r="0.002"/><circle cx="13.763" cy="16.799" r="0.002"/><polygon points="13.143 16.802 13.14 16.799 13.143 16.796 13.147 16.799 13.143 16.802"/><polygon points="12.523 16.802 12.52 16.799 12.523 16.796 12.527 16.799 12.523 16.802"/><polygon points="11.903 16.802 11.9 16.799 11.903 16.796 11.907 16.799 11.903 16.802"/><polygon points="11.283 16.804 11.278 16.799 11.283 16.794 11.288 16.799 11.283 16.804"/><polygon points="10.663 16.804 10.658 16.799 10.663 16.794 10.668 16.799 10.663 16.804"/><polygon points="10.043 16.804 10.038 16.799 10.043 16.794 10.048 16.799 10.043 16.804"/><polygon points="9.423 16.806 9.416 16.799 9.423 16.792 9.43 16.799 9.423 16.806"/><circle cx="8.803" cy="16.799" r="0.009"/><path d="M18.212,16.859a.009.009,0,0,1-.009-.008.009.009,0,0,1,.018,0A.009.009,0,0,1,18.212,16.859Z" transform="translate(-10.029 -0.051)"/><path d="M17.592,16.861a.01.01,0,0,1-.01-.01.01.01,0,1,1,.02,0A.01.01,0,0,1,17.592,16.861Z" transform="translate(-10.029 -0.051)"/><circle cx="6.943" cy="16.799" r="0.012"/><path d="M16.352,16.864a.013.013,0,0,1-.014-.013.014.014,0,0,1,.014-.014.014.014,0,0,1,.014.014A.014.014,0,0,1,16.352,16.864Z" transform="translate(-10.029 -0.051)"/><path d="M15.732,16.864a.013.013,0,0,1-.014-.013.014.014,0,0,1,.014-.014.013.013,0,0,1,.013.014A.013.013,0,0,1,15.732,16.864Z" transform="translate(-10.029 -0.051)"/><path d="M15.112,16.868a.018.018,0,0,1-.018-.017.018.018,0,0,1,.018-.018.018.018,0,0,1,.017.018A.018.018,0,0,1,15.112,16.868Z" transform="translate(-10.029 -0.051)"/><path d="M14.492,16.869a.018.018,0,0,1-.019-.018.018.018,0,0,1,.019-.019.019.019,0,1,1,0,.037Z" transform="translate(-10.029 -0.051)"/><circle cx="3.842" cy="16.799" r="0.024"/><path d="M13.251,16.88a.03.03,0,0,1,0-.059.03.03,0,1,1,0,.059Z" transform="translate(-10.029 -0.051)"/><circle cx="2.602" cy="16.799" r="0.034"/><path d="M12.011,16.89a.04.04,0,0,1,0-.079.04.04,0,1,1,0,.079Z" transform="translate(-10.029 -0.051)"/><path d="M11.391,16.9a.048.048,0,0,1-.048-.047.049.049,0,0,1,.048-.049.048.048,0,0,1,.048.049A.047.047,0,0,1,11.391,16.9Z" transform="translate(-10.029 -0.051)"/><path d="M10.771,16.909a.059.059,0,1,1,.059-.058A.058.058,0,0,1,10.771,16.909Z" transform="translate(-10.029 -0.051)"/><path d="M10.151,16.921a.071.071,0,0,1,0-.141.071.071,0,1,1,0,.141Z" transform="translate(-10.029 -0.051)"/><polygon points="15.623 17.421 15.62 17.418 15.623 17.414 15.627 17.418 15.623 17.421"/><polygon points="15.003 17.421 15 17.418 15.003 17.414 15.007 17.418 15.003 17.421"/><polygon points="14.383 17.421 14.38 17.418 14.383 17.414 14.387 17.418 14.383 17.421"/><polygon points="13.763 17.421 13.76 17.418 13.763 17.414 13.767 17.418 13.763 17.421"/><polygon points="13.143 17.421 13.14 17.418 13.143 17.414 13.147 17.418 13.143 17.421"/><polygon points="12.523 17.421 12.52 17.418 12.523 17.414 12.527 17.418 12.523 17.421"/><polygon points="11.903 17.423 11.898 17.418 11.903 17.413 11.908 17.418 11.903 17.423"/><polygon points="11.283 17.423 11.278 17.418 11.283 17.413 11.288 17.418 11.283 17.423"/><polygon points="10.663 17.423 10.658 17.418 10.663 17.413 10.668 17.418 10.663 17.423"/><polygon points="10.043 17.423 10.038 17.418 10.043 17.413 10.048 17.418 10.043 17.423"/><polygon points="9.423 17.423 9.418 17.418 9.423 17.413 9.428 17.418 9.423 17.423"/><polygon points="8.803 17.425 8.796 17.418 8.803 17.411 8.81 17.418 8.803 17.425"/><path d="M18.212,17.478a.009.009,0,0,1-.009-.009.009.009,0,0,1,.018,0A.009.009,0,0,1,18.212,17.478Z" transform="translate(-10.029 -0.051)"/><path d="M17.592,17.48a.01.01,0,0,1-.01-.011.01.01,0,1,1,.02,0A.01.01,0,0,1,17.592,17.48Z" transform="translate(-10.029 -0.051)"/><circle cx="6.943" cy="17.418" r="0.012"/><path d="M16.352,17.483a.014.014,0,0,1-.014-.014.013.013,0,0,1,.014-.013.014.014,0,0,1,.014.013A.014.014,0,0,1,16.352,17.483Z" transform="translate(-10.029 -0.051)"/><path d="M15.732,17.485a.016.016,0,0,1-.016-.016.016.016,0,0,1,.016-.015.015.015,0,0,1,.015.015A.016.016,0,0,1,15.732,17.485Z" transform="translate(-10.029 -0.051)"/><circle cx="5.082" cy="17.418" r="0.019"/><path d="M14.492,17.488a.018.018,0,0,1-.019-.019.019.019,0,0,1,.019-.019.02.02,0,0,1,.019.019A.019.019,0,0,1,14.492,17.488Z" transform="translate(-10.029 -0.051)"/><circle cx="3.842" cy="17.418" r="0.024"/><path d="M13.251,17.5a.028.028,0,1,1,.028-.028A.027.027,0,0,1,13.251,17.5Z" transform="translate(-10.029 -0.051)"/><circle cx="2.602" cy="17.418" r="0.033"/><path d="M12.011,17.511a.042.042,0,1,1,.042-.042A.042.042,0,0,1,12.011,17.511Z" transform="translate(-10.029 -0.051)"/><path d="M11.391,17.516a.047.047,0,1,1,.047-.047A.047.047,0,0,1,11.391,17.516Z" transform="translate(-10.029 -0.051)"/><circle cx="0.742" cy="17.418" r="0.053"/><path d="M10.151,17.531a.062.062,0,1,1,.062-.062A.062.062,0,0,1,10.151,17.531Z" transform="translate(-10.029 -0.051)"/><polygon points="15.003 18.04 15 18.037 15.003 18.033 15.007 18.037 15.003 18.04"/><polygon points="14.383 18.04 14.38 18.037 14.383 18.033 14.387 18.037 14.383 18.04"/><polygon points="13.763 18.04 13.76 18.037 13.763 18.033 13.767 18.037 13.763 18.04"/><polygon points="13.143 18.042 13.138 18.037 13.143 18.032 13.148 18.037 13.143 18.042"/><polygon points="12.523 18.042 12.518 18.037 12.523 18.032 12.528 18.037 12.523 18.042"/><polygon points="11.903 18.042 11.898 18.037 11.903 18.032 11.908 18.037 11.903 18.042"/><polygon points="11.283 18.042 11.278 18.037 11.283 18.032 11.288 18.037 11.283 18.042"/><polygon points="10.663 18.042 10.658 18.037 10.663 18.032 10.668 18.037 10.663 18.042"/><polygon points="10.043 18.042 10.038 18.037 10.043 18.032 10.048 18.037 10.043 18.042"/><polygon points="9.423 18.042 9.418 18.037 9.423 18.032 9.428 18.037 9.423 18.042"/><polygon points="8.803 18.042 8.798 18.037 8.803 18.032 8.808 18.037 8.803 18.042"/><path d="M18.212,18.1a.009.009,0,1,1,.009-.009A.009.009,0,0,1,18.212,18.1Z" transform="translate(-10.029 -0.051)"/><path d="M17.592,18.1a.01.01,0,1,1,.01-.01A.009.009,0,0,1,17.592,18.1Z" transform="translate(-10.029 -0.051)"/><path d="M16.972,18.1a.014.014,0,0,1-.014-.014.014.014,0,0,1,.014-.014.015.015,0,0,1,.014.014A.014.014,0,0,1,16.972,18.1Z" transform="translate(-10.029 -0.051)"/><path d="M16.352,18.1a.015.015,0,0,1-.016-.015.016.016,0,0,1,.016-.015.015.015,0,0,1,.015.015A.015.015,0,0,1,16.352,18.1Z" transform="translate(-10.029 -0.051)"/><circle cx="5.703" cy="18.037" r="0.015"/><circle cx="5.082" cy="18.037" r="0.017"/><path d="M14.492,18.107a.018.018,0,0,1-.019-.019.019.019,0,0,1,.019-.019.02.02,0,0,1,.019.019A.019.019,0,0,1,14.492,18.107Z" transform="translate(-10.029 -0.051)"/><circle cx="3.842" cy="18.037" r="0.024"/><path d="M13.251,18.114a.026.026,0,1,1,.026-.026A.026.026,0,0,1,13.251,18.114Z" transform="translate(-10.029 -0.051)"/><circle cx="2.602" cy="18.037" r="0.033"/><path d="M12.011,18.126a.038.038,0,0,1,0-.076.038.038,0,1,1,0,.076Z" transform="translate(-10.029 -0.051)"/><path d="M11.391,18.129a.041.041,0,1,1,.042-.041A.041.041,0,0,1,11.391,18.129Z" transform="translate(-10.029 -0.051)"/><path d="M10.771,18.136a.048.048,0,0,1-.048-.048.049.049,0,0,1,.048-.048.048.048,0,0,1,.048.048A.047.047,0,0,1,10.771,18.136Z" transform="translate(-10.029 -0.051)"/><path d="M10.151,18.145a.057.057,0,0,1,0-.114.057.057,0,0,1,0,.114Z" transform="translate(-10.029 -0.051)"/><polygon points="13.143 18.661 13.138 18.655 13.143 18.65 13.148 18.655 13.143 18.661"/><polygon points="12.523 18.661 12.518 18.655 12.523 18.65 12.528 18.655 12.523 18.661"/><polygon points="11.903 18.661 11.898 18.655 11.903 18.65 11.908 18.655 11.903 18.661"/><polygon points="11.283 18.661 11.278 18.655 11.283 18.65 11.288 18.655 11.283 18.661"/><polygon points="10.663 18.661 10.658 18.655 10.663 18.65 10.668 18.655 10.663 18.661"/><polygon points="10.043 18.661 10.038 18.655 10.043 18.65 10.048 18.655 10.043 18.661"/><polygon points="9.423 18.661 9.418 18.655 9.423 18.65 9.428 18.655 9.423 18.661"/><polygon points="8.803 18.661 8.798 18.655 8.803 18.65 8.808 18.655 8.803 18.661"/><polygon points="8.183 18.662 8.176 18.655 8.183 18.649 8.19 18.655 8.183 18.662"/><circle cx="7.563" cy="18.655" r="0.009"/><circle cx="6.943" cy="18.655" r="0.012"/><path d="M16.352,18.722a.015.015,0,1,1,0-.03.015.015,0,0,1,0,.03Z" transform="translate(-10.029 -0.051)"/><path d="M15.732,18.724a.017.017,0,0,1-.017-.017.016.016,0,0,1,.017-.017.017.017,0,0,1,.017.017A.018.018,0,0,1,15.732,18.724Z" transform="translate(-10.029 -0.051)"/><circle cx="5.082" cy="18.655" r="0.019"/><path d="M14.492,18.728a.021.021,0,0,1-.021-.021.021.021,0,0,1,.021-.021.02.02,0,0,1,.02.021A.021.021,0,0,1,14.492,18.728Z" transform="translate(-10.029 -0.051)"/><circle cx="3.842" cy="18.655" r="0.024"/><path d="M13.251,18.734a.027.027,0,1,1,.028-.027A.027.027,0,0,1,13.251,18.734Z" transform="translate(-10.029 -0.051)"/><path d="M12.631,18.736a.029.029,0,1,1,.03-.029A.029.029,0,0,1,12.631,18.736Z" transform="translate(-10.029 -0.051)"/><path d="M12.011,18.741a.034.034,0,0,1,0-.068.034.034,0,1,1,0,.068Z" transform="translate(-10.029 -0.051)"/><path d="M11.391,18.745a.038.038,0,0,1,0-.076.038.038,0,1,1,0,.076Z" transform="translate(-10.029 -0.051)"/><path d="M10.771,18.746a.038.038,0,0,1-.039-.039.039.039,0,0,1,.039-.04.04.04,0,0,1,.04.04A.039.039,0,0,1,10.771,18.746Z" transform="translate(-10.029 -0.051)"/><path d="M10.151,18.753a.046.046,0,1,1,.047-.046A.046.046,0,0,1,10.151,18.753Z" transform="translate(-10.029 -0.051)"/><path d="M21.932,19.321" transform="translate(-10.029 -0.051)"/><polygon points="11.283 19.279 11.278 19.274 11.283 19.269 11.288 19.274 11.283 19.279"/><polygon points="10.663 19.279 10.658 19.274 10.663 19.269 10.668 19.274 10.663 19.279"/><polygon points="10.043 19.279 10.038 19.274 10.043 19.269 10.048 19.274 10.043 19.279"/><polygon points="9.423 19.279 9.418 19.274 9.423 19.269 9.428 19.274 9.423 19.279"/><polygon points="8.803 19.279 8.798 19.274 8.803 19.269 8.808 19.274 8.803 19.279"/><path d="M18.212,19.334a.008.008,0,0,1-.009-.008.009.009,0,0,1,.018,0A.008.008,0,0,1,18.212,19.334Z" transform="translate(-10.029 -0.051)"/><path d="M17.592,19.336a.01.01,0,0,1-.01-.01.01.01,0,1,1,.02,0A.01.01,0,0,1,17.592,19.336Z" transform="translate(-10.029 -0.051)"/><circle cx="6.943" cy="19.274" r="0.012"/><path d="M16.352,19.34a.014.014,0,0,1-.014-.014.014.014,0,0,1,.014-.014.014.014,0,0,1,.014.014A.015.015,0,0,1,16.352,19.34Z" transform="translate(-10.029 -0.051)"/><path d="M15.732,19.343a.017.017,0,0,1-.017-.017.016.016,0,0,1,.017-.017.017.017,0,0,1,.017.017A.018.018,0,0,1,15.732,19.343Z" transform="translate(-10.029 -0.051)"/><path d="M15.112,19.345a.019.019,0,0,1-.019-.019.018.018,0,0,1,.019-.019.019.019,0,0,1,.019.019A.02.02,0,0,1,15.112,19.345Z" transform="translate(-10.029 -0.051)"/><path d="M14.492,19.348a.023.023,0,1,1,.022-.022A.022.022,0,0,1,14.492,19.348Z" transform="translate(-10.029 -0.051)"/><path d="M13.872,19.35a.025.025,0,0,1-.025-.024.024.024,0,0,1,.025-.024.024.024,0,0,1,.024.024A.024.024,0,0,1,13.872,19.35Z" transform="translate(-10.029 -0.051)"/><path d="M13.251,19.353a.027.027,0,0,1-.027-.027.028.028,0,1,1,.055,0A.027.027,0,0,1,13.251,19.353Z" transform="translate(-10.029 -0.051)"/><path d="M12.631,19.355a.029.029,0,1,1,.03-.029A.029.029,0,0,1,12.631,19.355Z" transform="translate(-10.029 -0.051)"/><path d="M12.011,19.357a.031.031,0,1,1,.031-.031A.031.031,0,0,1,12.011,19.357Z" transform="translate(-10.029 -0.051)"/><path d="M11.391,19.358a.032.032,0,0,1-.032-.032.032.032,0,0,1,.032-.033.033.033,0,0,1,.033.033A.032.032,0,0,1,11.391,19.358Z" transform="translate(-10.029 -0.051)"/><path d="M10.771,19.358a.032.032,0,0,1-.032-.032.032.032,0,0,1,.032-.033.033.033,0,0,1,.033.033A.032.032,0,0,1,10.771,19.358Z" transform="translate(-10.029 -0.051)"/><path d="M10.151,19.363a.037.037,0,0,1-.038-.037.038.038,0,0,1,.076,0A.037.037,0,0,1,10.151,19.363Z" transform="translate(-10.029 -0.051)"/><polygon points="10.043 19.898 10.038 19.893 10.043 19.888 10.048 19.893 10.043 19.898"/><polygon points="9.423 19.898 9.418 19.893 9.423 19.888 9.428 19.893 9.423 19.898"/><polygon points="8.803 19.898 8.798 19.893 8.803 19.888 8.808 19.893 8.803 19.898"/><path d="M18.212,19.953a.009.009,0,0,1-.009-.008.009.009,0,0,1,.018,0A.009.009,0,0,1,18.212,19.953Z" transform="translate(-10.029 -0.051)"/><path d="M17.592,19.953a.009.009,0,0,1-.009-.008.009.009,0,0,1,.009-.009.008.008,0,0,1,.008.009A.008.008,0,0,1,17.592,19.953Z" transform="translate(-10.029 -0.051)"/><path d="M16.972,19.957a.012.012,0,0,1-.012-.012.012.012,0,0,1,.012-.012.012.012,0,0,1,.012.012A.013.013,0,0,1,16.972,19.957Z" transform="translate(-10.029 -0.051)"/><path d="M16.352,19.96a.016.016,0,0,1-.016-.015.016.016,0,0,1,.016-.016.016.016,0,0,1,.015.016A.015.015,0,0,1,16.352,19.96Z" transform="translate(-10.029 -0.051)"/><path d="M15.732,19.963a.018.018,0,0,1-.019-.018.018.018,0,0,1,.019-.019.019.019,0,1,1,0,.037Z" transform="translate(-10.029 -0.051)"/><path d="M15.112,19.965a.02.02,0,0,1-.021-.02.021.021,0,0,1,.021-.021.02.02,0,0,1,.02.021A.02.02,0,0,1,15.112,19.965Z" transform="translate(-10.029 -0.051)"/><path d="M14.492,19.969a.024.024,0,0,1-.024-.024.023.023,0,0,1,.024-.024.024.024,0,0,1,.024.024A.024.024,0,0,1,14.492,19.969Z" transform="translate(-10.029 -0.051)"/><path d="M13.872,19.972a.028.028,0,1,1,.027-.027A.027.027,0,0,1,13.872,19.972Z" transform="translate(-10.029 -0.051)"/><path d="M13.251,19.974a.03.03,0,0,1,0-.059.03.03,0,1,1,0,.059Z" transform="translate(-10.029 -0.051)"/><path d="M12.631,19.975a.031.031,0,1,1,0-.061.031.031,0,1,1,0,.061Z" transform="translate(-10.029 -0.051)"/><path d="M12.011,19.975a.031.031,0,1,1,.031-.03A.03.03,0,0,1,12.011,19.975Z" transform="translate(-10.029 -0.051)"/><path d="M11.391,19.975a.031.031,0,1,1,.031-.03A.03.03,0,0,1,11.391,19.975Z" transform="translate(-10.029 -0.051)"/><path d="M10.771,19.975a.031.031,0,1,1,.031-.03A.03.03,0,0,1,10.771,19.975Z" transform="translate(-10.029 -0.051)"/><path d="M10.151,19.975a.031.031,0,1,1,.031-.03A.03.03,0,0,1,10.151,19.975Z" transform="translate(-10.029 -0.051)"/><polygon points="8.803 20.519 8.796 20.512 8.803 20.505 8.81 20.512 8.803 20.519"/><circle cx="8.183" cy="20.512" r="0.01"/><path d="M17.592,20.575a.012.012,0,0,1-.012-.012.012.012,0,0,1,.024,0A.012.012,0,0,1,17.592,20.575Z" transform="translate(-10.029 -0.051)"/><path d="M16.972,20.577a.014.014,0,0,1-.014-.014.013.013,0,0,1,.014-.013.014.014,0,0,1,.014.013A.014.014,0,0,1,16.972,20.577Z" transform="translate(-10.029 -0.051)"/><path d="M16.352,20.579a.016.016,0,0,1-.016-.016.016.016,0,0,1,.016-.015.015.015,0,0,1,.015.015A.016.016,0,0,1,16.352,20.579Z" transform="translate(-10.029 -0.051)"/><path d="M15.732,20.582a.018.018,0,0,1-.019-.019.019.019,0,0,1,.019-.019.02.02,0,0,1,.019.019A.019.019,0,0,1,15.732,20.582Z" transform="translate(-10.029 -0.051)"/><path d="M15.112,20.586a.023.023,0,1,1,0-.045.022.022,0,0,1,.022.022A.022.022,0,0,1,15.112,20.586Z" transform="translate(-10.029 -0.051)"/><path d="M14.492,20.589a.026.026,0,1,1,0-.051.026.026,0,0,1,0,.051Z" transform="translate(-10.029 -0.051)"/><path d="M13.872,20.593a.03.03,0,0,1-.03-.03.03.03,0,0,1,.059,0A.03.03,0,0,1,13.872,20.593Z" transform="translate(-10.029 -0.051)"/><path d="M13.251,20.594a.031.031,0,1,1,.031-.031A.03.03,0,0,1,13.251,20.594Z" transform="translate(-10.029 -0.051)"/><path d="M12.631,20.594a.031.031,0,0,1,0-.062.031.031,0,1,1,0,.062Z" transform="translate(-10.029 -0.051)"/><path d="M12.011,20.594a.031.031,0,1,1,.031-.031A.031.031,0,0,1,12.011,20.594Z" transform="translate(-10.029 -0.051)"/><path d="M11.391,20.594a.031.031,0,1,1,.031-.031A.031.031,0,0,1,11.391,20.594Z" transform="translate(-10.029 -0.051)"/><path d="M10.771,20.594a.031.031,0,1,1,.031-.031A.031.031,0,0,1,10.771,20.594Z" transform="translate(-10.029 -0.051)"/><path d="M10.151,20.591a.028.028,0,0,1-.027-.028.027.027,0,0,1,.027-.027.028.028,0,0,1,.028.027A.029.029,0,0,1,10.151,20.591Z" transform="translate(-10.029 -0.051)"/><path d="M17.592,21.2a.014.014,0,0,1-.014-.014.014.014,0,0,1,.014-.014.015.015,0,0,1,.014.014A.014.014,0,0,1,17.592,21.2Z" transform="translate(-10.029 -0.051)"/><path d="M16.972,21.2a.016.016,0,0,1-.016-.016.016.016,0,0,1,.016-.015.015.015,0,0,1,.015.015A.016.016,0,0,1,16.972,21.2Z" transform="translate(-10.029 -0.051)"/><circle cx="6.323" cy="21.131" r="0.019"/><path d="M15.732,21.206a.024.024,0,1,1,0-.048.024.024,0,0,1,0,.048Z" transform="translate(-10.029 -0.051)"/><path d="M15.112,21.208a.026.026,0,1,1,.025-.026A.026.026,0,0,1,15.112,21.208Z" transform="translate(-10.029 -0.051)"/><path d="M14.492,21.211a.029.029,0,1,1,.029-.029A.029.029,0,0,1,14.492,21.211Z" transform="translate(-10.029 -0.051)"/><circle cx="3.842" cy="21.131" r="0.033"/><path d="M13.251,21.217a.035.035,0,0,1-.034-.035.035.035,0,0,1,.069,0A.035.035,0,0,1,13.251,21.217Z" transform="translate(-10.029 -0.051)"/><circle cx="2.602" cy="21.131" r="0.033"/><path d="M12.011,21.217a.035.035,0,0,1-.034-.035.034.034,0,0,1,.034-.034.035.035,0,0,1,.035.034A.035.035,0,0,1,12.011,21.217Z" transform="translate(-10.029 -0.051)"/><path d="M11.391,21.213a.031.031,0,1,1,.031-.031A.031.031,0,0,1,11.391,21.213Z" transform="translate(-10.029 -0.051)"/><path d="M10.771,21.211a.029.029,0,0,1,0-.058.029.029,0,1,1,0,.058Z" transform="translate(-10.029 -0.051)"/><path d="M10.151,21.208a.026.026,0,1,1,.026-.026A.026.026,0,0,1,10.151,21.208Z" transform="translate(-10.029 -0.051)"/><path d="M16.352,21.825a.024.024,0,1,1,0-.048.024.024,0,0,1,0,.048Z" transform="translate(-10.029 -0.051)"/><path d="M15.732,21.832a.031.031,0,1,1,.031-.031A.031.031,0,0,1,15.732,21.832Z" transform="translate(-10.029 -0.051)"/><path d="M15.112,21.832a.031.031,0,1,1,.031-.031A.031.031,0,0,1,15.112,21.832Z" transform="translate(-10.029 -0.051)"/><path d="M14.492,21.832a.031.031,0,1,1,.031-.031A.031.031,0,0,1,14.492,21.832Z" transform="translate(-10.029 -0.051)"/><circle cx="3.842" cy="21.75" r="0.033"/><path d="M13.251,21.835a.034.034,0,1,1,.035-.034A.034.034,0,0,1,13.251,21.835Z" transform="translate(-10.029 -0.051)"/><circle cx="2.602" cy="21.75" r="0.034"/><path d="M12.011,21.835a.034.034,0,0,1,0-.068.034.034,0,1,1,0,.068Z" transform="translate(-10.029 -0.051)"/><path d="M11.391,21.834a.033.033,0,0,1,0-.066.033.033,0,0,1,0,.066Z" transform="translate(-10.029 -0.051)"/><path d="M10.771,21.83a.029.029,0,0,1,0-.058.029.029,0,1,1,0,.058Z" transform="translate(-10.029 -0.051)"/><circle cx="0.122" cy="21.749" r="0.026"/><circle cx="5.082" cy="22.368" r="0.036"/><path d="M14.492,22.459a.039.039,0,0,1-.04-.039.04.04,0,1,1,.079,0A.039.039,0,0,1,14.492,22.459Z" transform="translate(-10.029 -0.051)"/><circle cx="3.842" cy="22.368" r="0.036"/><path d="M13.251,22.458a.038.038,0,1,1,.038-.038A.038.038,0,0,1,13.251,22.458Z" transform="translate(-10.029 -0.051)"/><path d="M12.631,22.456a.036.036,0,1,1,.037-.036A.036.036,0,0,1,12.631,22.456Z" transform="translate(-10.029 -0.051)"/><path d="M12.011,22.454a.034.034,0,0,1,0-.068.034.034,0,1,1,0,.068Z" transform="translate(-10.029 -0.051)"/><path d="M11.391,22.454a.034.034,0,0,1,0-.068.034.034,0,1,1,0,.068Z" transform="translate(-10.029 -0.051)"/><path d="M10.771,22.451a.031.031,0,1,1,.031-.031A.031.031,0,0,1,10.771,22.451Z" transform="translate(-10.029 -0.051)"/><path d="M10.151,22.446a.026.026,0,1,1,.026-.026A.026.026,0,0,1,10.151,22.446Z" transform="translate(-10.029 -0.051)"/><path d="M12.011,23.078a.04.04,0,0,1,0-.079.04.04,0,1,1,0,.079Z" transform="translate(-10.029 -0.051)"/><path d="M11.391,23.073a.034.034,0,0,1-.034-.034A.035.035,0,0,1,11.391,23a.035.035,0,0,1,.035.035A.035.035,0,0,1,11.391,23.073Z" transform="translate(-10.029 -0.051)"/><path d="M10.771,23.071a.032.032,0,0,1-.032-.032.032.032,0,0,1,.032-.033.033.033,0,0,1,.033.033A.032.032,0,0,1,10.771,23.071Z" transform="translate(-10.029 -0.051)"/><path d="M10.151,23.064a.026.026,0,1,1,.026-.025A.026.026,0,0,1,10.151,23.064Z" transform="translate(-10.029 -0.051)"/><path d="M12.011,23.707a.05.05,0,1,1,.05-.05A.049.049,0,0,1,12.011,23.707Z" transform="translate(-10.029 -0.051)"/><circle cx="1.362" cy="23.606" r="0.043"/><path d="M10.771,23.692a.035.035,0,0,1,0-.069.035.035,0,1,1,0,.069Z" transform="translate(-10.029 -0.051)"/><path d="M10.151,23.687a.03.03,0,1,1,.029-.03A.029.029,0,0,1,10.151,23.687Z" transform="translate(-10.029 -0.051)"/><path d="M11.391,24.335a.059.059,0,0,1-.058-.059.059.059,0,0,1,.117,0A.059.059,0,0,1,11.391,24.335Z" transform="translate(-10.029 -0.051)"/><path d="M10.771,24.316a.039.039,0,0,1-.039-.04.038.038,0,0,1,.039-.039.039.039,0,0,1,.04.039A.04.04,0,0,1,10.771,24.316Z" transform="translate(-10.029 -0.051)"/><path d="M10.151,24.307a.031.031,0,1,1,.031-.031A.031.031,0,0,1,10.151,24.307Z" transform="translate(-10.029 -0.051)"/><path d="M10.151,24.933a.038.038,0,1,1,.038-.038A.038.038,0,0,1,10.151,24.933Z" transform="translate(-10.029 -0.051)"/></svg>