<svg xmlns="http://www.w3.org/2000/svg" viewBox="0 0 12.529 29.107"><path d="M12.529,0" transform="translate(0 -0.174)" fill="#fff"/><path d="M12.377.239a.031.031,0,1,1,.031-.03A.03.03,0,0,1,12.377.239Z" transform="translate(0 -0.174)"/><circle cx="11.758" cy="0.034" r="0.034"/><path d="M12.377.854a.029.029,0,1,1,.029-.029A.029.029,0,0,1,12.377.854Z" transform="translate(0 -0.174)"/><path d="M11.758.856a.031.031,0,1,1,.031-.031A.031.031,0,0,1,11.758.856Z" transform="translate(0 -0.174)"/><path d="M11.139.856A.031.031,0,1,1,11.17.825.03.03,0,0,1,11.139.856Z" transform="translate(0 -0.174)"/><path d="M12.377,1.467a.026.026,0,1,1,.026-.025A.026.026,0,0,1,12.377,1.467Z" transform="translate(0 -0.174)"/><path d="M11.758,1.469a.027.027,0,0,1-.027-.027.028.028,0,0,1,.027-.028.029.029,0,0,1,.028.028A.028.028,0,0,1,11.758,1.469Z" transform="translate(0 -0.174)"/><path d="M11.139,1.471a.029.029,0,1,1,.03-.029A.029.029,0,0,1,11.139,1.471Z" transform="translate(0 -0.174)"/><path d="M12.377,2.079a.021.021,0,0,1-.021-.021.02.02,0,0,1,.021-.02.02.02,0,0,1,.02.02A.021.021,0,0,1,12.377,2.079Z" transform="translate(0 -0.174)"/><circle cx="11.758" cy="1.884" r="0.022"/><circle cx="11.139" cy="1.884" r="0.024"/><path d="M10.521,2.092a.034.034,0,1,1,0-.068.034.034,0,1,1,0,.068Z" transform="translate(0 -0.174)"/><path d="M12.377,2.687a.012.012,0,0,1-.012-.012.012.012,0,0,1,.012-.012.012.012,0,0,1,.012.012A.013.013,0,0,1,12.377,2.687Z" transform="translate(0 -0.174)"/><path d="M11.758,2.692a.018.018,0,0,1-.017-.017.017.017,0,0,1,.017-.017.016.016,0,0,1,.017.017A.017.017,0,0,1,11.758,2.692Z" transform="translate(0 -0.174)"/><path d="M11.139,2.7a.022.022,0,0,1-.022-.022.023.023,0,1,1,.022.022Z" transform="translate(0 -0.174)"/><path d="M10.521,2.709a.035.035,0,0,1-.035-.034.035.035,0,0,1,.035-.035.035.035,0,0,1,.034.035A.034.034,0,0,1,10.521,2.709Z" transform="translate(0 -0.174)"/><path d="M9.9,2.719a.045.045,0,0,1,0-.089.045.045,0,1,1,0,.089Z" transform="translate(0 -0.174)"/><path d="M12.377,3.3a.01.01,0,0,1,0-.02.01.01,0,0,1,0,.02Z" transform="translate(0 -0.174)"/><path d="M11.758,3.305a.014.014,0,0,1-.014-.014.014.014,0,0,1,.014-.013.013.013,0,0,1,.014.013A.014.014,0,0,1,11.758,3.305Z" transform="translate(0 -0.174)"/><circle cx="11.139" cy="3.117" r="0.019"/><path d="M10.521,3.325a.034.034,0,1,1,0-.068.034.034,0,1,1,0,.068Z" transform="translate(0 -0.174)"/><path d="M9.9,3.331a.039.039,0,0,1-.039-.04A.038.038,0,0,1,9.9,3.252a.039.039,0,0,1,.04.039A.04.04,0,0,1,9.9,3.331Z" transform="translate(0 -0.174)"/><path d="M9.283,3.324a.032.032,0,0,1-.032-.033.032.032,0,0,1,.032-.032.032.032,0,0,1,.033.032A.033.033,0,0,1,9.283,3.324Z" transform="translate(0 -0.174)"/><path d="M8.69,3.291a.026.026,0,0,1-.025.026" transform="translate(0 -0.174)"/><path d="M12.377,3.92a.012.012,0,0,1-.012-.012.012.012,0,0,1,.012-.012.012.012,0,0,1,.012.012A.013.013,0,0,1,12.377,3.92Z" transform="translate(0 -0.174)"/><circle cx="11.758" cy="3.733" r="0.021"/><path d="M11.139,3.937a.029.029,0,1,1,.03-.029A.029.029,0,0,1,11.139,3.937Z" transform="translate(0 -0.174)"/><circle cx="10.521" cy="3.733" r="0.033"/><path d="M9.9,3.945a.038.038,0,1,1,.038-.037A.038.038,0,0,1,9.9,3.945Z" transform="translate(0 -0.174)"/><path d="M9.283,3.95a.043.043,0,0,1,0-.085.043.043,0,1,1,0,.085Z" transform="translate(0 -0.174)"/><path d="M8.665,3.949a.041.041,0,0,1-.041-.041.041.041,0,0,1,.082,0A.041.041,0,0,1,8.665,3.949Z" transform="translate(0 -0.174)"/><path d="M8.046,3.961a.053.053,0,0,1-.053-.053.053.053,0,0,1,.106,0A.053.053,0,0,1,8.046,3.961Z" transform="translate(0 -0.174)"/><path d="M7.427,3.853a.055.055,0,0,1,.055.055" transform="translate(0 -0.174)"/><path d="M12.377,4.543a.018.018,0,0,1-.019-.019.019.019,0,0,1,.019-.019.02.02,0,0,1,.019.019A.019.019,0,0,1,12.377,4.543Z" transform="translate(0 -0.174)"/><circle cx="11.758" cy="4.35" r="0.026"/><circle cx="11.139" cy="4.35" r="0.029"/><circle cx="10.521" cy="4.35" r="0.033"/><path d="M9.9,4.56a.036.036,0,1,1,.036-.036A.036.036,0,0,1,9.9,4.56Z" transform="translate(0 -0.174)"/><path d="M9.283,4.569a.045.045,0,1,1,.045-.045A.045.045,0,0,1,9.283,4.569Z" transform="translate(0 -0.174)"/><path d="M8.665,4.57a.046.046,0,0,1-.047-.046.047.047,0,0,1,.093,0A.046.046,0,0,1,8.665,4.57Z" transform="translate(0 -0.174)"/><path d="M8.046,4.572A.048.048,0,0,1,8,4.524a.049.049,0,0,1,.048-.048.048.048,0,0,1,.048.048A.047.047,0,0,1,8.046,4.572Z" transform="translate(0 -0.174)"/><path d="M12.377,5.158a.017.017,0,0,1-.017-.017.016.016,0,0,1,.017-.017.017.017,0,0,1,.017.017A.018.018,0,0,1,12.377,5.158Z" transform="translate(0 -0.174)"/><path d="M11.758,5.165a.024.024,0,1,1,.024-.024A.024.024,0,0,1,11.758,5.165Z" transform="translate(0 -0.174)"/><path d="M11.139,5.17a.029.029,0,1,1,.03-.029A.029.029,0,0,1,11.139,5.17Z" transform="translate(0 -0.174)"/><circle cx="10.521" cy="4.966" r="0.033"/><path d="M9.9,5.177a.036.036,0,1,1,.036-.036A.036.036,0,0,1,9.9,5.177Z" transform="translate(0 -0.174)"/><path d="M9.283,5.182a.042.042,0,0,1-.041-.041.042.042,0,0,1,.083,0A.042.042,0,0,1,9.283,5.182Z" transform="translate(0 -0.174)"/><path d="M8.665,5.182a.041.041,0,0,1-.041-.041.041.041,0,1,1,.082,0A.041.041,0,0,1,8.665,5.182Z" transform="translate(0 -0.174)"/><path d="M8.046,5.1a.045.045,0,1,1,0,.089" transform="translate(0 -0.174)"/><path d="M12.377,5.773a.016.016,0,0,1-.016-.016.016.016,0,0,1,.016-.015.015.015,0,0,1,.015.015A.016.016,0,0,1,12.377,5.773Z" transform="translate(0 -0.174)"/><path d="M11.758,5.781a.024.024,0,0,1-.024-.024.024.024,0,0,1,.048,0A.024.024,0,0,1,11.758,5.781Z" transform="translate(0 -0.174)"/><path d="M11.139,5.785a.028.028,0,0,1-.027-.028.028.028,0,0,1,.055,0A.028.028,0,0,1,11.139,5.785Z" transform="translate(0 -0.174)"/><path d="M10.521,5.79a.033.033,0,0,1-.033-.033.032.032,0,0,1,.033-.032.032.032,0,0,1,.032.032A.032.032,0,0,1,10.521,5.79Z" transform="translate(0 -0.174)"/><path d="M9.9,5.793a.036.036,0,1,1,.036-.036A.036.036,0,0,1,9.9,5.793Z" transform="translate(0 -0.174)"/><path d="M9.283,5.8a.038.038,0,0,1-.037-.038.038.038,0,0,1,.075,0A.038.038,0,0,1,9.283,5.8Z" transform="translate(0 -0.174)"/><path d="M8.665,5.8a.04.04,0,1,1,0-.079.04.04,0,0,1,0,.079Z" transform="translate(0 -0.174)"/><path d="M8.046,5.8a.041.041,0,0,1-.041-.041.041.041,0,0,1,.082,0A.041.041,0,0,1,8.046,5.8Z" transform="translate(0 -0.174)"/><path d="M12.377,6.387a.013.013,0,0,1-.014-.013.014.014,0,0,1,.014-.014.014.014,0,0,1,.014.014A.014.014,0,0,1,12.377,6.387Z" transform="translate(0 -0.174)"/><path d="M11.758,6.4a.024.024,0,1,1,.024-.024A.024.024,0,0,1,11.758,6.4Z" transform="translate(0 -0.174)"/><path d="M11.139,6.4a.027.027,0,0,1-.027-.027.028.028,0,1,1,.055,0A.027.027,0,0,1,11.139,6.4Z" transform="translate(0 -0.174)"/><circle cx="10.521" cy="6.199" r="0.033"/><circle cx="9.902" cy="6.199" r="0.034"/><path d="M9.283,6.415a.042.042,0,0,1-.041-.041.042.042,0,0,1,.083,0A.042.042,0,0,1,9.283,6.415Z" transform="translate(0 -0.174)"/><circle cx="8.665" cy="6.199" r="0.036"/><path d="M8.046,6.406a.032.032,0,0,1-.033-.032.033.033,0,0,1,.066,0A.032.032,0,0,1,8.046,6.406Z" transform="translate(0 -0.174)"/><path d="M7.427,6.405a.031.031,0,0,1,0-.062.031.031,0,1,1,0,.062Z" transform="translate(0 -0.174)"/><path d="M12.377,7a.014.014,0,0,1-.014-.014.013.013,0,0,1,.014-.013.014.014,0,0,1,.014.013A.014.014,0,0,1,12.377,7Z" transform="translate(0 -0.174)"/><circle cx="11.758" cy="6.816" r="0.024"/><circle cx="11.139" cy="6.816" r="0.029"/><path d="M10.521,7.021a.031.031,0,1,1,.031-.031A.031.031,0,0,1,10.521,7.021Z" transform="translate(0 -0.174)"/><circle cx="9.902" cy="6.816" r="0.033"/><circle cx="9.283" cy="6.816" r="0.041"/><path d="M8.665,7.03a.04.04,0,1,1,0-.079.04.04,0,0,1,0,.079Z" transform="translate(0 -0.174)"/><path d="M8.046,7.018a.028.028,0,0,1-.027-.028.027.027,0,0,1,.027-.027.028.028,0,0,1,.028.027A.029.029,0,0,1,8.046,7.018Z" transform="translate(0 -0.174)"/><path d="M7.427,7.016a.026.026,0,1,1,.026-.026A.025.025,0,0,1,7.427,7.016Z" transform="translate(0 -0.174)"/><path d="M6.809,7.012a.022.022,0,0,1-.023-.022.022.022,0,0,1,.023-.022.022.022,0,0,1,.022.022A.022.022,0,0,1,6.809,7.012Z" transform="translate(0 -0.174)"/><path d="M12.377,7.624a.017.017,0,0,1-.017-.017.016.016,0,0,1,.017-.017.017.017,0,0,1,.017.017A.018.018,0,0,1,12.377,7.624Z" transform="translate(0 -0.174)"/><path d="M11.758,7.631a.024.024,0,1,1,.024-.024A.024.024,0,0,1,11.758,7.631Z" transform="translate(0 -0.174)"/><path d="M11.139,7.636a.029.029,0,1,1,.03-.029A.029.029,0,0,1,11.139,7.636Z" transform="translate(0 -0.174)"/><path d="M10.521,7.638a.031.031,0,1,1,.031-.031A.031.031,0,0,1,10.521,7.638Z" transform="translate(0 -0.174)"/><circle cx="9.902" cy="7.432" r="0.033"/><path d="M9.283,7.644a.037.037,0,0,1-.037-.037.038.038,0,1,1,.075,0A.037.037,0,0,1,9.283,7.644Z" transform="translate(0 -0.174)"/><circle cx="8.665" cy="7.432" r="0.033"/><path d="M8.046,7.636a.029.029,0,1,1,.029-.029A.029.029,0,0,1,8.046,7.636Z" transform="translate(0 -0.174)"/><path d="M7.427,7.631a.024.024,0,1,1,0-.048.024.024,0,1,1,0,.048Z" transform="translate(0 -0.174)"/><circle cx="6.809" cy="7.432" r="0.021"/><path d="M6.206,7.607a.016.016,0,0,1-.016.015" transform="translate(0 -0.174)"/><path d="M12.377,8.244a.021.021,0,0,1-.021-.021.02.02,0,0,1,.021-.02.02.02,0,0,1,.02.02A.02.02,0,0,1,12.377,8.244Z" transform="translate(0 -0.174)"/><path d="M11.758,8.249a.026.026,0,1,1,.026-.026A.026.026,0,0,1,11.758,8.249Z" transform="translate(0 -0.174)"/><path d="M11.139,8.252a.029.029,0,1,1,.03-.029A.029.029,0,0,1,11.139,8.252Z" transform="translate(0 -0.174)"/><path d="M10.521,8.256a.033.033,0,0,1-.033-.033.032.032,0,0,1,.033-.032.032.032,0,0,1,.032.032A.032.032,0,0,1,10.521,8.256Z" transform="translate(0 -0.174)"/><path d="M9.9,8.256a.032.032,0,0,1-.032-.033A.032.032,0,0,1,9.9,8.191a.032.032,0,0,1,.033.032A.033.033,0,0,1,9.9,8.256Z" transform="translate(0 -0.174)"/><circle cx="9.283" cy="8.049" r="0.036"/><path d="M8.665,8.256a.033.033,0,0,1-.033-.033.032.032,0,0,1,.033-.032.032.032,0,0,1,.032.032A.032.032,0,0,1,8.665,8.256Z" transform="translate(0 -0.174)"/><path d="M8.046,8.252a.029.029,0,1,1,.029-.029A.029.029,0,0,1,8.046,8.252Z" transform="translate(0 -0.174)"/><path d="M7.427,8.244a.02.02,0,0,1-.02-.021.02.02,0,0,1,.02-.02.02.02,0,0,1,.021.02A.021.021,0,0,1,7.427,8.244Z" transform="translate(0 -0.174)"/><path d="M6.809,8.239a.016.016,0,0,1-.016-.016.016.016,0,0,1,.016-.015.015.015,0,0,1,.015.015A.016.016,0,0,1,6.809,8.239Z" transform="translate(0 -0.174)"/><path d="M6.19,8.235a.012.012,0,0,1-.012-.012.012.012,0,0,1,.024,0A.012.012,0,0,1,6.19,8.235Z" transform="translate(0 -0.174)"/><path d="M12.377,8.862a.022.022,0,1,1,0-.044.022.022,0,1,1,0,.044Z" transform="translate(0 -0.174)"/><path d="M11.758,8.867a.027.027,0,0,1-.027-.027.028.028,0,0,1,.027-.028.029.029,0,0,1,.028.028A.028.028,0,0,1,11.758,8.867Z" transform="translate(0 -0.174)"/><path d="M11.139,8.871a.031.031,0,1,1,.031-.031A.03.03,0,0,1,11.139,8.871Z" transform="translate(0 -0.174)"/><path d="M10.521,8.872a.032.032,0,0,1-.033-.032.033.033,0,0,1,.033-.033.032.032,0,0,1,.032.033A.032.032,0,0,1,10.521,8.872Z" transform="translate(0 -0.174)"/><circle cx="9.902" cy="8.666" r="0.034"/><circle cx="9.283" cy="8.666" r="0.034"/><path d="M8.665,8.872a.032.032,0,0,1-.033-.032.033.033,0,0,1,.033-.033A.032.032,0,0,1,8.7,8.84.032.032,0,0,1,8.665,8.872Z" transform="translate(0 -0.174)"/><path d="M8.046,8.86a.02.02,0,0,1-.02-.02.021.021,0,0,1,.02-.021.022.022,0,0,1,.021.021A.021.021,0,0,1,8.046,8.86Z" transform="translate(0 -0.174)"/><path d="M7.427,8.859a.019.019,0,1,1,.019-.019A.019.019,0,0,1,7.427,8.859Z" transform="translate(0 -0.174)"/><path d="M6.809,8.857a.017.017,0,0,1-.017-.017.016.016,0,0,1,.017-.017.017.017,0,0,1,.017.017A.018.018,0,0,1,6.809,8.857Z" transform="translate(0 -0.174)"/><path d="M6.19,8.85a.01.01,0,1,1,.01-.01A.009.009,0,0,1,6.19,8.85Z" transform="translate(0 -0.174)"/><path d="M5.571,8.848a.008.008,0,0,1-.008-.008.009.009,0,0,1,.008-.009.009.009,0,0,1,.009.009A.008.008,0,0,1,5.571,8.848Z" transform="translate(0 -0.174)"/><circle cx="12.377" cy="9.282" r="0.022"/><path d="M11.758,9.484a.028.028,0,0,1,0-.055.028.028,0,1,1,0,.055Z" transform="translate(0 -0.174)"/><circle cx="11.139" cy="9.282" r="0.031"/><circle cx="10.521" cy="9.282" r="0.033"/><circle cx="9.902" cy="9.282" r="0.034"/><circle cx="9.283" cy="9.282" r="0.034"/><circle cx="8.665" cy="9.282" r="0.033"/><path d="M8.046,9.482a.026.026,0,1,1,.026-.026A.026.026,0,0,1,8.046,9.482Z" transform="translate(0 -0.174)"/><path d="M7.427,9.477a.02.02,0,0,1-.02-.021.02.02,0,0,1,.02-.02.02.02,0,0,1,.021.02A.021.021,0,0,1,7.427,9.477Z" transform="translate(0 -0.174)"/><path d="M6.809,9.47A.014.014,0,0,1,6.8,9.456a.013.013,0,0,1,.014-.013.013.013,0,0,1,.013.013A.013.013,0,0,1,6.809,9.47Z" transform="translate(0 -0.174)"/><circle cx="6.19" cy="9.282" r="0.012"/><polygon points="5.571 9.289 5.565 9.282 5.571 9.275 5.578 9.282 5.571 9.289"/><polygon points="4.953 9.285 4.949 9.282 4.953 9.279 4.956 9.282 4.953 9.285"/><path d="M12.377,10.1a.024.024,0,1,1,.024-.024A.024.024,0,0,1,12.377,10.1Z" transform="translate(0 -0.174)"/><path d="M11.758,10.1a.029.029,0,1,1,.029-.029A.029.029,0,0,1,11.758,10.1Z" transform="translate(0 -0.174)"/><path d="M11.139,10.105a.032.032,0,0,1-.032-.032.032.032,0,0,1,.032-.033.033.033,0,0,1,.033.033A.032.032,0,0,1,11.139,10.105Z" transform="translate(0 -0.174)"/><path d="M10.521,10.111a.038.038,0,1,1,.038-.038A.038.038,0,0,1,10.521,10.111Z" transform="translate(0 -0.174)"/><path d="M9.9,10.109a.036.036,0,1,1,.036-.036A.036.036,0,0,1,9.9,10.109Z" transform="translate(0 -0.174)"/><circle cx="9.283" cy="9.899" r="0.036"/><path d="M8.665,10.107a.034.034,0,1,1,0-.068.034.034,0,0,1,0,.068Z" transform="translate(0 -0.174)"/><path d="M8.046,10.1a.029.029,0,1,1,.029-.029A.029.029,0,0,1,8.046,10.1Z" transform="translate(0 -0.174)"/><path d="M7.427,10.093a.02.02,0,0,1-.02-.02.021.021,0,1,1,.041,0A.02.02,0,0,1,7.427,10.093Z" transform="translate(0 -0.174)"/><path d="M6.809,10.087a.014.014,0,1,1,0-.028.014.014,0,0,1,0,.028Z" transform="translate(0 -0.174)"/><path d="M6.19,10.083a.01.01,0,1,1,.01-.01A.009.009,0,0,1,6.19,10.083Z" transform="translate(0 -0.174)"/><polygon points="5.571 9.905 5.565 9.899 5.571 9.892 5.578 9.899 5.571 9.905"/><polygon points="4.953 9.902 4.949 9.899 4.953 9.895 4.956 9.899 4.953 9.902"/><polygon points="4.334 9.902 4.331 9.899 4.334 9.895 4.337 9.899 4.334 9.902"/><path d="M12.377,10.718a.028.028,0,0,1-.029-.029.029.029,0,0,1,.058,0A.028.028,0,0,1,12.377,10.718Z" transform="translate(0 -0.174)"/><circle cx="11.758" cy="10.515" r="0.034"/><circle cx="11.139" cy="10.515" r="0.034"/><path d="M10.521,10.731a.042.042,0,1,1,.041-.042A.041.041,0,0,1,10.521,10.731Z" transform="translate(0 -0.174)"/><path d="M9.9,10.731a.042.042,0,1,1,.041-.042A.041.041,0,0,1,9.9,10.731Z" transform="translate(0 -0.174)"/><path d="M9.283,10.729a.04.04,0,1,1,.04-.04A.04.04,0,0,1,9.283,10.729Z" transform="translate(0 -0.174)"/><circle cx="8.665" cy="10.515" r="0.036"/><path d="M8.046,10.718a.028.028,0,0,1-.029-.029.029.029,0,0,1,.058,0A.028.028,0,0,1,8.046,10.718Z" transform="translate(0 -0.174)"/><path d="M7.427,10.713a.024.024,0,1,1,0-.047.024.024,0,1,1,0,.047Z" transform="translate(0 -0.174)"/><circle cx="6.809" cy="10.515" r="0.015"/><path d="M6.19,10.7a.01.01,0,0,1-.01-.011.01.01,0,0,1,.02,0A.01.01,0,0,1,6.19,10.7Z" transform="translate(0 -0.174)"/><polygon points="5.571 10.519 5.568 10.515 5.571 10.512 5.575 10.515 5.571 10.519"/><polygon points="4.953 10.519 4.949 10.515 4.953 10.512 4.956 10.515 4.953 10.519"/><polygon points="4.334 10.519 4.331 10.515 4.334 10.512 4.337 10.515 4.334 10.519"/><polygon points="3.715 10.519 3.712 10.515 3.715 10.512 3.719 10.515 3.715 10.519"/><path d="M12.377,11.342a.036.036,0,1,1,.036-.036A.036.036,0,0,1,12.377,11.342Z" transform="translate(0 -0.174)"/><path d="M11.758,11.347a.041.041,0,1,1,.041-.041A.041.041,0,0,1,11.758,11.347Z" transform="translate(0 -0.174)"/><path d="M11.139,11.345a.039.039,0,1,1,.04-.039A.039.039,0,0,1,11.139,11.345Z" transform="translate(0 -0.174)"/><path d="M10.521,11.347a.041.041,0,1,1,.041-.041A.041.041,0,0,1,10.521,11.347Z" transform="translate(0 -0.174)"/><path d="M9.9,11.349a.043.043,0,1,1,.043-.043A.043.043,0,0,1,9.9,11.349Z" transform="translate(0 -0.174)"/><path d="M9.283,11.349a.043.043,0,1,1,.043-.043A.042.042,0,0,1,9.283,11.349Z" transform="translate(0 -0.174)"/><path d="M8.665,11.338a.032.032,0,1,1,0-.064.032.032,0,0,1,0,.064Z" transform="translate(0 -0.174)"/><path d="M8.046,11.337a.031.031,0,1,1,.031-.031A.031.031,0,0,1,8.046,11.337Z" transform="translate(0 -0.174)"/><path d="M7.427,11.33a.024.024,0,1,1,0-.048.024.024,0,1,1,0,.048Z" transform="translate(0 -0.174)"/><path d="M6.809,11.321a.015.015,0,0,1-.016-.015.016.016,0,0,1,.016-.015.015.015,0,0,1,.015.015A.015.015,0,0,1,6.809,11.321Z" transform="translate(0 -0.174)"/><path d="M6.19,11.316a.01.01,0,1,1,.01-.01A.009.009,0,0,1,6.19,11.316Z" transform="translate(0 -0.174)"/><polygon points="5.571 11.139 5.565 11.132 5.571 11.125 5.578 11.132 5.571 11.139"/><polygon points="4.953 11.135 4.949 11.132 4.953 11.128 4.956 11.132 4.953 11.135"/><polygon points="4.334 11.135 4.331 11.132 4.334 11.128 4.337 11.132 4.334 11.135"/><polygon points="3.715 11.135 3.712 11.132 3.715 11.128 3.719 11.132 3.715 11.135"/><polygon points="3.097 11.135 3.093 11.132 3.097 11.128 3.1 11.132 3.097 11.135"/><path d="M12.377,11.969a.047.047,0,1,1,.046-.046A.047.047,0,0,1,12.377,11.969Z" transform="translate(0 -0.174)"/><circle cx="11.758" cy="11.748" r="0.053"/><circle cx="11.139" cy="11.748" r="0.053"/><path d="M10.521,11.97a.048.048,0,1,1,0-.1.048.048,0,1,1,0,.1Z" transform="translate(0 -0.174)"/><path d="M9.9,11.969a.047.047,0,1,1,.046-.046A.046.046,0,0,1,9.9,11.969Z" transform="translate(0 -0.174)"/><path d="M9.283,11.967a.045.045,0,1,1,.045-.044A.044.044,0,0,1,9.283,11.967Z" transform="translate(0 -0.174)"/><circle cx="8.665" cy="11.748" r="0.041"/><path d="M8.046,11.957a.035.035,0,1,1,.034-.034A.034.034,0,0,1,8.046,11.957Z" transform="translate(0 -0.174)"/><path d="M7.427,11.948a.026.026,0,0,1,0-.051.026.026,0,1,1,0,.051Z" transform="translate(0 -0.174)"/><circle cx="6.809" cy="11.748" r="0.015"/><path d="M6.19,11.933a.01.01,0,0,1-.01-.01.01.01,0,1,1,.02,0A.01.01,0,0,1,6.19,11.933Z" transform="translate(0 -0.174)"/><polygon points="5.571 11.755 5.565 11.748 5.571 11.741 5.578 11.748 5.571 11.755"/><polygon points="4.953 11.752 4.949 11.748 4.953 11.745 4.956 11.748 4.953 11.752"/><polygon points="4.334 11.752 4.331 11.748 4.334 11.745 4.337 11.748 4.334 11.752"/><polygon points="3.715 11.752 3.712 11.748 3.715 11.745 3.719 11.748 3.715 11.752"/><polygon points="3.097 11.752 3.093 11.748 3.097 11.745 3.1 11.748 3.097 11.752"/><polygon points="2.478 11.752 2.475 11.748 2.478 11.745 2.481 11.748 2.478 11.752"/><path d="M12.377,12.6a.056.056,0,1,1,0-.112.056.056,0,0,1,0,.112Z" transform="translate(0 -0.174)"/><circle cx="11.758" cy="12.365" r="0.065"/><circle cx="11.139" cy="12.365" r="0.063"/><circle cx="10.521" cy="12.365" r="0.055"/><path d="M9.9,12.587a.048.048,0,0,1,0-.1.048.048,0,0,1,0,.1Z" transform="translate(0 -0.174)"/><circle cx="9.283" cy="12.365" r="0.043"/><path d="M8.665,12.578a.039.039,0,1,1,0-.078.039.039,0,1,1,0,.078Z" transform="translate(0 -0.174)"/><path d="M8.046,12.572a.033.033,0,0,1-.033-.033.033.033,0,0,1,.066,0A.033.033,0,0,1,8.046,12.572Z" transform="translate(0 -0.174)"/><circle cx="7.427" cy="12.365" r="0.024"/><circle cx="6.809" cy="12.365" r="0.015"/><path d="M6.19,12.549a.01.01,0,1,1,.01-.01A.009.009,0,0,1,6.19,12.549Z" transform="translate(0 -0.174)"/><polygon points="5.571 12.371 5.565 12.365 5.571 12.358 5.578 12.365 5.571 12.371"/><polygon points="4.953 12.368 4.949 12.365 4.953 12.361 4.956 12.365 4.953 12.368"/><polygon points="4.334 12.368 4.331 12.365 4.334 12.361 4.337 12.365 4.334 12.368"/><polygon points="3.715 12.368 3.712 12.365 3.715 12.361 3.719 12.365 3.715 12.368"/><polygon points="3.097 12.368 3.093 12.365 3.097 12.361 3.1 12.365 3.097 12.368"/><polygon points="2.478 12.368 2.475 12.365 2.478 12.361 2.481 12.365 2.478 12.368"/><circle cx="1.859" cy="12.365" r="0.003"/><path d="M12.377,13.227a.072.072,0,1,1,.072-.072A.072.072,0,0,1,12.377,13.227Z" transform="translate(0 -0.174)"/><circle cx="11.758" cy="12.981" r="0.074"/><path d="M11.139,13.224a.069.069,0,1,1,.069-.069A.069.069,0,0,1,11.139,13.224Z" transform="translate(0 -0.174)"/><path d="M10.521,13.215a.06.06,0,1,1,.06-.06A.06.06,0,0,1,10.521,13.215Z" transform="translate(0 -0.174)"/><path d="M9.9,13.209a.054.054,0,1,1,.053-.054A.054.054,0,0,1,9.9,13.209Z" transform="translate(0 -0.174)"/><path d="M9.283,13.2a.045.045,0,1,1,.045-.045A.045.045,0,0,1,9.283,13.2Z" transform="translate(0 -0.174)"/><path d="M8.665,13.193a.038.038,0,1,1,.038-.038A.038.038,0,0,1,8.665,13.193Z" transform="translate(0 -0.174)"/><path d="M8.046,13.186a.031.031,0,0,1-.031-.031.031.031,0,0,1,.062,0A.031.031,0,0,1,8.046,13.186Z" transform="translate(0 -0.174)"/><path d="M7.427,13.176a.02.02,0,0,1-.02-.021.02.02,0,0,1,.02-.02.02.02,0,0,1,.021.02A.021.021,0,0,1,7.427,13.176Z" transform="translate(0 -0.174)"/><path d="M6.809,13.169a.014.014,0,0,1-.014-.014.013.013,0,0,1,.014-.013.013.013,0,0,1,.013.013A.013.013,0,0,1,6.809,13.169Z" transform="translate(0 -0.174)"/><path d="M6.19,13.166a.01.01,0,0,1-.01-.011.01.01,0,0,1,.02,0A.01.01,0,0,1,6.19,13.166Z" transform="translate(0 -0.174)"/><polygon points="5.571 12.988 5.565 12.981 5.571 12.974 5.578 12.981 5.571 12.988"/><polygon points="4.953 12.985 4.949 12.981 4.953 12.978 4.956 12.981 4.953 12.985"/><polygon points="4.334 12.985 4.331 12.981 4.334 12.978 4.337 12.981 4.334 12.985"/><polygon points="3.715 12.985 3.712 12.981 3.715 12.978 3.719 12.981 3.715 12.985"/><polygon points="3.097 12.985 3.093 12.981 3.097 12.978 3.1 12.981 3.097 12.985"/><polygon points="2.478 12.985 2.475 12.981 2.478 12.978 2.481 12.981 2.478 12.985"/><circle cx="1.859" cy="12.981" r="0.003"/><path d="M12.377,13.851a.079.079,0,0,1,0-.158.079.079,0,0,1,0,.158Z" transform="translate(0 -0.174)"/><path d="M11.758,13.849a.077.077,0,1,1,.077-.077A.076.076,0,0,1,11.758,13.849Z" transform="translate(0 -0.174)"/><path d="M11.139,13.851a.079.079,0,0,1,0-.158.079.079,0,0,1,0,.158Z" transform="translate(0 -0.174)"/><path d="M10.521,13.842a.07.07,0,1,1,0-.14.07.07,0,0,1,0,.14Z" transform="translate(0 -0.174)"/><path d="M9.9,13.83a.058.058,0,1,1,.058-.058A.058.058,0,0,1,9.9,13.83Z" transform="translate(0 -0.174)"/><path d="M9.283,13.82a.048.048,0,0,1,0-.1.048.048,0,0,1,0,.1Z" transform="translate(0 -0.174)"/><path d="M8.665,13.81a.038.038,0,1,1,.038-.038A.038.038,0,0,1,8.665,13.81Z" transform="translate(0 -0.174)"/><path d="M8.046,13.8a.029.029,0,1,1,.029-.029A.029.029,0,0,1,8.046,13.8Z" transform="translate(0 -0.174)"/><path d="M7.427,13.791a.019.019,0,1,1,.019-.019A.019.019,0,0,1,7.427,13.791Z" transform="translate(0 -0.174)"/><path d="M6.809,13.784a.012.012,0,1,1,0-.024.012.012,0,0,1,0,.024Z" transform="translate(0 -0.174)"/><path d="M6.19,13.781a.009.009,0,0,1-.009-.009.009.009,0,0,1,.018,0A.009.009,0,0,1,6.19,13.781Z" transform="translate(0 -0.174)"/><polygon points="5.571 13.605 5.565 13.598 5.571 13.591 5.578 13.598 5.571 13.605"/><polygon points="4.953 13.601 4.949 13.598 4.953 13.594 4.956 13.598 4.953 13.601"/><polygon points="4.334 13.601 4.331 13.598 4.334 13.594 4.337 13.598 4.334 13.601"/><polygon points="3.715 13.601 3.712 13.598 3.715 13.594 3.719 13.598 3.715 13.601"/><polygon points="3.097 13.601 3.093 13.598 3.097 13.594 3.1 13.598 3.097 13.601"/><polygon points="2.478 13.601 2.475 13.598 2.478 13.594 2.481 13.598 2.478 13.601"/><polygon points="1.859 13.601 1.856 13.598 1.859 13.594 1.863 13.598 1.859 13.601"/><polygon points="1.241 13.601 1.237 13.598 1.241 13.594 1.244 13.598 1.241 13.601"/><path d="M12.377,14.488a.1.1,0,1,1,.1-.1A.1.1,0,0,1,12.377,14.488Z" transform="translate(0 -0.174)"/><path d="M11.758,14.479a.091.091,0,1,1,.091-.09A.09.09,0,0,1,11.758,14.479Z" transform="translate(0 -0.174)"/><circle cx="11.139" cy="14.214" r="0.087"/><path d="M10.521,14.464a.076.076,0,1,1,.075-.075A.076.076,0,0,1,10.521,14.464Z" transform="translate(0 -0.174)"/><path d="M9.9,14.45a.061.061,0,0,1-.062-.061.062.062,0,0,1,.124,0A.061.061,0,0,1,9.9,14.45Z" transform="translate(0 -0.174)"/><path d="M9.283,14.438a.05.05,0,1,1,.05-.049A.049.049,0,0,1,9.283,14.438Z" transform="translate(0 -0.174)"/><circle cx="8.665" cy="14.214" r="0.036"/><path d="M8.046,14.416a.027.027,0,0,1-.027-.027.028.028,0,0,1,.027-.028.029.029,0,0,1,.028.028A.028.028,0,0,1,8.046,14.416Z" transform="translate(0 -0.174)"/><path d="M7.427,14.406a.018.018,0,0,1-.017-.017.017.017,0,0,1,.017-.017.017.017,0,0,1,.018.017A.018.018,0,0,1,7.427,14.406Z" transform="translate(0 -0.174)"/><path d="M6.809,14.4a.012.012,0,0,1-.012-.012.012.012,0,0,1,.012-.012.012.012,0,0,1,.012.012A.013.013,0,0,1,6.809,14.4Z" transform="translate(0 -0.174)"/><path d="M6.19,14.4a.009.009,0,0,1-.009-.008.009.009,0,1,1,.018,0A.009.009,0,0,1,6.19,14.4Z" transform="translate(0 -0.174)"/><polygon points="5.571 14.221 5.565 14.214 5.571 14.207 5.578 14.214 5.571 14.221"/><polygon points="4.953 14.219 4.948 14.214 4.953 14.209 4.958 14.214 4.953 14.219"/><polygon points="4.334 14.218 4.331 14.214 4.334 14.211 4.337 14.214 4.334 14.218"/><polygon points="3.715 14.218 3.712 14.214 3.715 14.211 3.719 14.214 3.715 14.218"/><polygon points="3.097 14.218 3.093 14.214 3.097 14.211 3.1 14.214 3.097 14.218"/><polygon points="2.478 14.218 2.475 14.214 2.478 14.211 2.481 14.214 2.478 14.218"/><circle cx="1.859" cy="14.214" r="0.003"/><path d="M12.377,15.135a.13.13,0,1,1,.13-.13A.131.131,0,0,1,12.377,15.135Z" transform="translate(0 -0.174)"/><circle cx="11.758" cy="14.831" r="0.11"/><circle cx="11.139" cy="14.831" r="0.096"/><path d="M10.521,15.084a.079.079,0,0,1-.079-.079.079.079,0,0,1,.158,0A.08.08,0,0,1,10.521,15.084Z" transform="translate(0 -0.174)"/><circle cx="9.902" cy="14.831" r="0.065"/><circle cx="9.283" cy="14.831" r="0.046"/><path d="M8.665,15.039a.034.034,0,1,1,0-.068.034.034,0,0,1,0,.068Z" transform="translate(0 -0.174)"/><path d="M8.046,15.031a.026.026,0,0,1-.026-.026.026.026,0,0,1,.052,0A.026.026,0,0,1,8.046,15.031Z" transform="translate(0 -0.174)"/><path d="M7.427,15.022a.017.017,0,0,1-.017-.017.018.018,0,0,1,.017-.017.018.018,0,0,1,.018.017A.017.017,0,0,1,7.427,15.022Z" transform="translate(0 -0.174)"/><circle cx="6.809" cy="14.831" r="0.012"/><path d="M6.19,15.014a.009.009,0,0,1-.009-.009.009.009,0,0,1,.018,0A.009.009,0,0,1,6.19,15.014Z" transform="translate(0 -0.174)"/><path d="M5.571,15.014a.009.009,0,0,1-.008-.009A.008.008,0,0,1,5.571,15a.008.008,0,0,1,.009.008A.009.009,0,0,1,5.571,15.014Z" transform="translate(0 -0.174)"/><polygon points="4.953 14.838 4.946 14.831 4.953 14.824 4.96 14.831 4.953 14.838"/><polygon points="4.334 14.834 4.331 14.831 4.334 14.827 4.337 14.831 4.334 14.834"/><polygon points="3.715 14.834 3.712 14.831 3.715 14.827 3.719 14.831 3.715 14.834"/><polygon points="3.097 14.834 3.093 14.831 3.097 14.827 3.1 14.831 3.097 14.834"/><polygon points="2.478 14.834 2.475 14.831 2.478 14.827 2.481 14.831 2.478 14.834"/><circle cx="1.859" cy="14.831" r="0.003"/><polygon points="1.241 14.834 1.237 14.831 1.241 14.827 1.244 14.831 1.241 14.834"/><path d="M12.377,15.77a.149.149,0,1,1,.149-.148A.148.148,0,0,1,12.377,15.77Z" transform="translate(0 -0.174)"/><circle cx="11.758" cy="15.447" r="0.123"/><path d="M11.139,15.726a.1.1,0,1,1,.105-.1A.1.1,0,0,1,11.139,15.726Z" transform="translate(0 -0.174)"/><path d="M10.521,15.705a.084.084,0,1,1,0-.167.084.084,0,1,1,0,.167Z" transform="translate(0 -0.174)"/><path d="M9.9,15.688a.067.067,0,1,1,.067-.066A.067.067,0,0,1,9.9,15.688Z" transform="translate(0 -0.174)"/><path d="M9.283,15.664a.043.043,0,0,1,0-.085.043.043,0,1,1,0,.085Z" transform="translate(0 -0.174)"/><path d="M8.665,15.656a.035.035,0,0,1-.035-.034.035.035,0,0,1,.035-.035.035.035,0,0,1,.034.035A.034.034,0,0,1,8.665,15.656Z" transform="translate(0 -0.174)"/><path d="M8.046,15.646a.024.024,0,0,1-.024-.024.024.024,0,1,1,.048,0A.024.024,0,0,1,8.046,15.646Z" transform="translate(0 -0.174)"/><path d="M7.427,15.637a.015.015,0,0,1-.015-.015.016.016,0,0,1,.015-.016.016.016,0,0,1,.016.016A.016.016,0,0,1,7.427,15.637Z" transform="translate(0 -0.174)"/><path d="M6.809,15.634a.012.012,0,0,1-.012-.012.012.012,0,0,1,.012-.012.012.012,0,0,1,.012.012A.013.013,0,0,1,6.809,15.634Z" transform="translate(0 -0.174)"/><path d="M6.19,15.63a.009.009,0,0,1-.009-.008.009.009,0,0,1,.018,0A.009.009,0,0,1,6.19,15.63Z" transform="translate(0 -0.174)"/><polygon points="5.571 15.454 5.565 15.447 5.571 15.44 5.578 15.447 5.571 15.454"/><polygon points="4.953 15.451 4.949 15.447 4.953 15.444 4.956 15.447 4.953 15.451"/><polygon points="4.334 15.451 4.331 15.447 4.334 15.444 4.337 15.447 4.334 15.451"/><polygon points="3.715 15.451 3.712 15.447 3.715 15.444 3.719 15.447 3.715 15.451"/><polygon points="3.097 15.451 3.093 15.447 3.097 15.444 3.1 15.447 3.097 15.451"/><polygon points="2.478 15.451 2.475 15.447 2.478 15.444 2.481 15.447 2.478 15.451"/><circle cx="1.859" cy="15.447" r="0.003"/><polygon points="1.241 15.451 1.237 15.447 1.241 15.444 1.244 15.447 1.241 15.451"/><polygon points="0.622 15.451 0.619 15.447 0.622 15.444 0.625 15.447 0.622 15.451"/><path d="M12.377,16.39a.152.152,0,1,1,.152-.152A.152.152,0,0,1,12.377,16.39Z" transform="translate(0 -0.174)"/><path d="M11.758,16.366a.128.128,0,1,1,.129-.128A.128.128,0,0,1,11.758,16.366Z" transform="translate(0 -0.174)"/><path d="M11.139,16.344a.106.106,0,1,1,.107-.106A.106.106,0,0,1,11.139,16.344Z" transform="translate(0 -0.174)"/><path d="M10.521,16.322a.084.084,0,1,1,.084-.084A.084.084,0,0,1,10.521,16.322Z" transform="translate(0 -0.174)"/><path d="M9.9,16.3a.063.063,0,0,1,0-.126.063.063,0,1,1,0,.126Z" transform="translate(0 -0.174)"/><path d="M9.283,16.284a.046.046,0,0,1-.046-.046.047.047,0,1,1,.046.046Z" transform="translate(0 -0.174)"/><path d="M8.665,16.272a.034.034,0,1,1,0-.068.034.034,0,0,1,0,.068Z" transform="translate(0 -0.174)"/><path d="M8.046,16.262a.024.024,0,1,1,.024-.024A.024.024,0,0,1,8.046,16.262Z" transform="translate(0 -0.174)"/><path d="M7.427,16.252a.013.013,0,0,1-.013-.014.013.013,0,0,1,.013-.013.013.013,0,0,1,.014.013A.014.014,0,0,1,7.427,16.252Z" transform="translate(0 -0.174)"/><path d="M6.809,16.25a.012.012,0,0,1,0-.024.012.012,0,1,1,0,.024Z" transform="translate(0 -0.174)"/><path d="M6.19,16.247a.009.009,0,0,1-.009-.009.009.009,0,0,1,.018,0A.009.009,0,0,1,6.19,16.247Z" transform="translate(0 -0.174)"/><polygon points="5.571 16.071 5.565 16.064 5.571 16.057 5.578 16.064 5.571 16.071"/><polygon points="4.953 16.067 4.949 16.064 4.953 16.06 4.956 16.064 4.953 16.067"/><polygon points="4.334 16.067 4.331 16.064 4.334 16.06 4.337 16.064 4.334 16.067"/><polygon points="3.715 16.067 3.712 16.064 3.715 16.06 3.719 16.064 3.715 16.067"/><polygon points="3.097 16.067 3.093 16.064 3.097 16.06 3.1 16.064 3.097 16.067"/><polygon points="2.478 16.067 2.475 16.064 2.478 16.06 2.481 16.064 2.478 16.067"/><polygon points="1.859 16.067 1.856 16.064 1.859 16.06 1.863 16.064 1.859 16.067"/><polygon points="1.241 16.067 1.237 16.064 1.241 16.06 1.244 16.064 1.241 16.067"/><polygon points="0.622 16.067 0.619 16.064 0.622 16.06 0.625 16.064 0.622 16.067"/><polygon points="0.003 16.067 0 16.064 0.003 16.06 0.007 16.064 0.003 16.067"/><path d="M12.377,17.005a.151.151,0,1,1,.151-.15A.15.15,0,0,1,12.377,17.005Z" transform="translate(0 -0.174)"/><path d="M11.758,16.985a.13.13,0,1,1,.131-.13A.13.13,0,0,1,11.758,16.985Z" transform="translate(0 -0.174)"/><circle cx="11.139" cy="16.68" r="0.11"/><circle cx="10.521" cy="16.68" r="0.087"/><path d="M9.9,16.92a.065.065,0,1,1,.065-.065A.065.065,0,0,1,9.9,16.92Z" transform="translate(0 -0.174)"/><path d="M9.283,16.9a.049.049,0,0,1-.048-.048.048.048,0,0,1,.048-.048.047.047,0,0,1,.048.048A.048.048,0,0,1,9.283,16.9Z" transform="translate(0 -0.174)"/><circle cx="8.665" cy="16.68" r="0.036"/><path d="M8.046,16.879a.024.024,0,0,1-.024-.024.024.024,0,1,1,.048,0A.024.024,0,0,1,8.046,16.879Z" transform="translate(0 -0.174)"/><path d="M7.427,16.868a.013.013,0,0,1-.013-.013.013.013,0,0,1,.013-.014.014.014,0,0,1,.014.014A.013.013,0,0,1,7.427,16.868Z" transform="translate(0 -0.174)"/><path d="M6.809,16.867a.012.012,0,0,1-.012-.012.012.012,0,0,1,.012-.012.012.012,0,0,1,.012.012A.013.013,0,0,1,6.809,16.867Z" transform="translate(0 -0.174)"/><path d="M6.19,16.863a.009.009,0,0,1-.009-.008.009.009,0,0,1,.018,0A.009.009,0,0,1,6.19,16.863Z" transform="translate(0 -0.174)"/><polygon points="5.571 16.686 5.566 16.68 5.571 16.675 5.577 16.68 5.571 16.686"/><polygon points="4.953 16.684 4.949 16.68 4.953 16.677 4.956 16.68 4.953 16.684"/><polygon points="4.334 16.684 4.331 16.68 4.334 16.677 4.337 16.68 4.334 16.684"/><polygon points="3.715 16.684 3.712 16.68 3.715 16.677 3.719 16.68 3.715 16.684"/><polygon points="3.097 16.684 3.093 16.68 3.097 16.677 3.1 16.68 3.097 16.684"/><polygon points="2.478 16.684 2.475 16.68 2.478 16.677 2.481 16.68 2.478 16.684"/><polygon points="1.859 16.684 1.856 16.68 1.859 16.677 1.863 16.68 1.859 16.684"/><polygon points="1.241 16.684 1.237 16.68 1.241 16.677 1.244 16.68 1.241 16.684"/><polygon points="0.622 16.684 0.619 16.68 0.622 16.677 0.625 16.68 0.622 16.684"/><path d="M12.377,17.618a.147.147,0,1,1,.147-.147A.147.147,0,0,1,12.377,17.618Z" transform="translate(0 -0.174)"/><circle cx="11.758" cy="17.297" r="0.13"/><circle cx="11.139" cy="17.297" r="0.11"/><circle cx="10.521" cy="17.297" r="0.087"/><path d="M9.9,17.54a.069.069,0,0,1-.069-.069.069.069,0,0,1,.138,0A.069.069,0,0,1,9.9,17.54Z" transform="translate(0 -0.174)"/><path d="M9.283,17.521a.05.05,0,1,1,.05-.05A.049.049,0,0,1,9.283,17.521Z" transform="translate(0 -0.174)"/><circle cx="8.665" cy="17.297" r="0.036"/><path d="M8.046,17.5a.026.026,0,0,1-.026-.026.026.026,0,0,1,.052,0A.026.026,0,0,1,8.046,17.5Z" transform="translate(0 -0.174)"/><path d="M7.427,17.488a.017.017,0,0,1-.017-.017.018.018,0,0,1,.017-.017.018.018,0,0,1,.018.017A.017.017,0,0,1,7.427,17.488Z" transform="translate(0 -0.174)"/><circle cx="6.809" cy="17.297" r="0.012"/><path d="M6.19,17.48a.009.009,0,0,1-.009-.009.009.009,0,0,1,.018,0A.009.009,0,0,1,6.19,17.48Z" transform="translate(0 -0.174)"/><polygon points="5.571 17.304 5.565 17.297 5.571 17.29 5.578 17.297 5.571 17.304"/><polygon points="4.953 17.3 4.949 17.297 4.953 17.293 4.956 17.297 4.953 17.3"/><polygon points="4.334 17.3 4.331 17.297 4.334 17.293 4.337 17.297 4.334 17.3"/><polygon points="3.715 17.3 3.712 17.297 3.715 17.293 3.719 17.297 3.715 17.3"/><polygon points="3.097 17.3 3.093 17.297 3.097 17.293 3.1 17.297 3.097 17.3"/><polygon points="2.478 17.3 2.475 17.297 2.478 17.293 2.481 17.297 2.478 17.3"/><circle cx="1.859" cy="17.297" r="0.003"/><polygon points="1.241 17.3 1.237 17.297 1.241 17.293 1.244 17.297 1.241 17.3"/><path d="M12.377,18.236a.149.149,0,1,1,0-.3.149.149,0,1,1,0,.3Z" transform="translate(0 -0.174)"/><path d="M11.758,18.219a.132.132,0,1,1,.132-.131A.132.132,0,0,1,11.758,18.219Z" transform="translate(0 -0.174)"/><circle cx="11.139" cy="17.913" r="0.111"/><circle cx="10.521" cy="17.913" r="0.087"/><path d="M9.9,18.154a.066.066,0,0,1-.067-.066.067.067,0,0,1,.134,0A.066.066,0,0,1,9.9,18.154Z" transform="translate(0 -0.174)"/><circle cx="9.283" cy="17.913" r="0.048"/><path d="M8.665,18.122a.034.034,0,1,1,0-.068.034.034,0,1,1,0,.068Z" transform="translate(0 -0.174)"/><path d="M8.046,18.113a.026.026,0,0,1-.026-.025.026.026,0,0,1,.052,0A.026.026,0,0,1,8.046,18.113Z" transform="translate(0 -0.174)"/><path d="M7.427,18.107a.019.019,0,0,1-.018-.019.018.018,0,0,1,.018-.019.018.018,0,0,1,.019.019A.019.019,0,0,1,7.427,18.107Z" transform="translate(0 -0.174)"/><circle cx="6.809" cy="17.913" r="0.012"/><path d="M6.19,18.1a.01.01,0,0,1-.01-.01.01.01,0,1,1,.02,0A.01.01,0,0,1,6.19,18.1Z" transform="translate(0 -0.174)"/><polygon points="5.571 17.92 5.565 17.913 5.571 17.907 5.578 17.913 5.571 17.92"/><polygon points="4.953 17.917 4.949 17.913 4.953 17.91 4.956 17.913 4.953 17.917"/><polygon points="4.334 17.917 4.331 17.913 4.334 17.91 4.337 17.913 4.334 17.917"/><polygon points="3.715 17.917 3.712 17.913 3.715 17.91 3.719 17.913 3.715 17.917"/><polygon points="3.097 17.917 3.093 17.913 3.097 17.91 3.1 17.913 3.097 17.917"/><polygon points="2.478 17.917 2.475 17.913 2.478 17.91 2.481 17.913 2.478 17.917"/><circle cx="1.859" cy="17.913" r="0.003"/><polygon points="1.241 17.917 1.237 17.913 1.241 17.91 1.244 17.913 1.241 17.917"/><polygon points="0.622 17.917 0.619 17.913 0.622 17.91 0.625 17.913 0.622 17.917"/><path d="M12.377,18.85a.146.146,0,1,1,.146-.146A.146.146,0,0,1,12.377,18.85Z" transform="translate(0 -0.174)"/><path d="M11.758,18.832a.128.128,0,1,1,.129-.128A.128.128,0,0,1,11.758,18.832Z" transform="translate(0 -0.174)"/><path d="M11.139,18.814a.11.11,0,1,1,.11-.11A.109.109,0,0,1,11.139,18.814Z" transform="translate(0 -0.174)"/><circle cx="10.521" cy="18.53" r="0.087"/><path d="M9.9,18.771a.067.067,0,0,1-.067-.067.067.067,0,0,1,.134,0A.067.067,0,0,1,9.9,18.771Z" transform="translate(0 -0.174)"/><path d="M9.283,18.75a.046.046,0,0,1-.046-.046.047.047,0,1,1,.046.046Z" transform="translate(0 -0.174)"/><path d="M8.665,18.738a.034.034,0,1,1,0-.068.034.034,0,0,1,0,.068Z" transform="translate(0 -0.174)"/><path d="M8.046,18.732a.028.028,0,0,1-.027-.028.027.027,0,0,1,.027-.027.028.028,0,0,1,.028.027A.029.029,0,0,1,8.046,18.732Z" transform="translate(0 -0.174)"/><path d="M7.427,18.723a.018.018,0,0,1-.018-.019.019.019,0,1,1,.037,0A.018.018,0,0,1,7.427,18.723Z" transform="translate(0 -0.174)"/><path d="M6.809,18.718A.014.014,0,0,1,6.8,18.7a.013.013,0,0,1,.014-.013.013.013,0,0,1,.013.013A.013.013,0,0,1,6.809,18.718Z" transform="translate(0 -0.174)"/><path d="M6.19,18.713a.009.009,0,0,1-.009-.009.009.009,0,0,1,.018,0A.009.009,0,0,1,6.19,18.713Z" transform="translate(0 -0.174)"/><polygon points="5.571 18.537 5.565 18.53 5.571 18.523 5.578 18.53 5.571 18.537"/><polygon points="4.953 18.533 4.949 18.53 4.953 18.526 4.956 18.53 4.953 18.533"/><polygon points="4.334 18.533 4.331 18.53 4.334 18.526 4.337 18.53 4.334 18.533"/><polygon points="3.715 18.533 3.712 18.53 3.715 18.526 3.719 18.53 3.715 18.533"/><polygon points="3.097 18.533 3.093 18.53 3.097 18.526 3.1 18.53 3.097 18.533"/><polygon points="2.478 18.533 2.475 18.53 2.478 18.526 2.481 18.53 2.478 18.533"/><polygon points="1.859 18.533 1.856 18.53 1.859 18.526 1.863 18.53 1.859 18.533"/><path d="M12.377,19.459a.139.139,0,1,1,.139-.138A.138.138,0,0,1,12.377,19.459Z" transform="translate(0 -0.174)"/><circle cx="11.758" cy="19.146" r="0.123"/><path d="M11.139,19.427a.106.106,0,1,1,.107-.106A.107.107,0,0,1,11.139,19.427Z" transform="translate(0 -0.174)"/><path d="M10.521,19.408a.087.087,0,1,1,.087-.087A.087.087,0,0,1,10.521,19.408Z" transform="translate(0 -0.174)"/><path d="M9.9,19.386a.065.065,0,1,1,.065-.065A.065.065,0,0,1,9.9,19.386Z" transform="translate(0 -0.174)"/><path d="M9.283,19.37a.05.05,0,1,1,.05-.049A.049.049,0,0,1,9.283,19.37Z" transform="translate(0 -0.174)"/><path d="M8.665,19.358a.038.038,0,1,1,.038-.037A.038.038,0,0,1,8.665,19.358Z" transform="translate(0 -0.174)"/><path d="M8.046,19.35a.029.029,0,1,1,.029-.029A.029.029,0,0,1,8.046,19.35Z" transform="translate(0 -0.174)"/><path d="M7.427,19.341a.02.02,0,0,1-.02-.02.02.02,0,0,1,.02-.021.021.021,0,0,1,.021.021A.02.02,0,0,1,7.427,19.341Z" transform="translate(0 -0.174)"/><path d="M6.809,19.334a.013.013,0,0,1-.014-.013.014.014,0,0,1,.014-.014.013.013,0,0,1,.013.014A.013.013,0,0,1,6.809,19.334Z" transform="translate(0 -0.174)"/><polygon points="6.19 19.153 6.183 19.146 6.19 19.14 6.197 19.146 6.19 19.153"/><path d="M5.571,19.329a.009.009,0,0,1-.008-.008.009.009,0,0,1,.008-.009.009.009,0,0,1,.009.009A.009.009,0,0,1,5.571,19.329Z" transform="translate(0 -0.174)"/><polygon points="4.953 19.15 4.949 19.146 4.953 19.143 4.956 19.146 4.953 19.15"/><polygon points="4.334 19.15 4.331 19.146 4.334 19.143 4.337 19.146 4.334 19.15"/><polygon points="3.715 19.15 3.712 19.146 3.715 19.143 3.719 19.146 3.715 19.15"/><polygon points="3.097 19.15 3.093 19.146 3.097 19.143 3.1 19.146 3.097 19.15"/><polygon points="2.478 19.15 2.475 19.146 2.478 19.143 2.481 19.146 2.478 19.15"/><path d="M12.377,20.062a.125.125,0,1,1,.125-.125A.125.125,0,0,1,12.377,20.062Z" transform="translate(0 -0.174)"/><circle cx="11.758" cy="19.763" r="0.11"/><path d="M11.139,20.035a.1.1,0,1,1,.1-.1A.1.1,0,0,1,11.139,20.035Z" transform="translate(0 -0.174)"/><circle cx="10.521" cy="19.763" r="0.087"/><path d="M9.9,20a.067.067,0,1,1,.067-.067A.067.067,0,0,1,9.9,20Z" transform="translate(0 -0.174)"/><circle cx="9.283" cy="19.763" r="0.053"/><circle cx="8.665" cy="19.763" r="0.041"/><path d="M8.046,19.968a.031.031,0,0,1-.031-.031.031.031,0,0,1,.062,0A.031.031,0,0,1,8.046,19.968Z" transform="translate(0 -0.174)"/><path d="M7.427,19.958a.02.02,0,0,1-.02-.021.02.02,0,0,1,.02-.02.02.02,0,0,1,.021.02A.021.021,0,0,1,7.427,19.958Z" transform="translate(0 -0.174)"/><path d="M6.809,19.951a.014.014,0,0,1-.014-.014.013.013,0,0,1,.014-.013.013.013,0,0,1,.013.013A.013.013,0,0,1,6.809,19.951Z" transform="translate(0 -0.174)"/><path d="M6.19,19.947a.009.009,0,0,1-.01-.01.01.01,0,0,1,.02,0A.009.009,0,0,1,6.19,19.947Z" transform="translate(0 -0.174)"/><path d="M5.571,19.946a.009.009,0,0,1-.008-.009.009.009,0,0,1,.008-.008.009.009,0,0,1,.009.008A.009.009,0,0,1,5.571,19.946Z" transform="translate(0 -0.174)"/><polygon points="4.953 19.768 4.948 19.763 4.953 19.758 4.958 19.763 4.953 19.768"/><polygon points="4.334 19.766 4.331 19.763 4.334 19.76 4.337 19.763 4.334 19.766"/><polygon points="3.715 19.766 3.712 19.763 3.715 19.76 3.719 19.763 3.715 19.766"/><path d="M12.377,20.673a.12.12,0,1,1,0-.239.12.12,0,1,1,0,.239Z" transform="translate(0 -0.174)"/><circle cx="11.758" cy="20.38" r="0.106"/><path d="M11.139,20.648a.094.094,0,1,1,.1-.094A.094.094,0,0,1,11.139,20.648Z" transform="translate(0 -0.174)"/><path d="M10.521,20.639a.086.086,0,1,1,0-.171.086.086,0,1,1,0,.171Z" transform="translate(0 -0.174)"/><path d="M9.9,20.624a.07.07,0,1,1,.07-.07A.07.07,0,0,1,9.9,20.624Z" transform="translate(0 -0.174)"/><path d="M9.283,20.615a.061.061,0,0,1-.061-.061.062.062,0,1,1,.123,0A.061.061,0,0,1,9.283,20.615Z" transform="translate(0 -0.174)"/><path d="M8.665,20.6a.047.047,0,0,1-.047-.046.047.047,0,1,1,.047.046Z" transform="translate(0 -0.174)"/><path d="M8.046,20.585a.031.031,0,1,1,.031-.031A.031.031,0,0,1,8.046,20.585Z" transform="translate(0 -0.174)"/><path d="M7.427,20.574a.02.02,0,0,1-.02-.02.021.021,0,1,1,.041,0A.02.02,0,0,1,7.427,20.574Z" transform="translate(0 -0.174)"/><circle cx="6.809" cy="20.38" r="0.015"/><circle cx="6.19" cy="20.38" r="0.012"/><path d="M5.571,20.562a.008.008,0,0,1-.008-.008.009.009,0,0,1,.008-.009.009.009,0,0,1,.009.009A.008.008,0,0,1,5.571,20.562Z" transform="translate(0 -0.174)"/><polygon points="4.953 20.386 4.946 20.38 4.953 20.373 4.96 20.38 4.953 20.386"/><polygon points="4.334 20.383 4.331 20.38 4.334 20.376 4.337 20.38 4.334 20.383"/><path d="M12.377,21.287a.117.117,0,1,1,.116-.117A.117.117,0,0,1,12.377,21.287Z" transform="translate(0 -0.174)"/><circle cx="11.758" cy="20.996" r="0.106"/><circle cx="11.139" cy="20.996" r="0.089"/><path d="M10.521,21.246a.076.076,0,1,1,.075-.076A.076.076,0,0,1,10.521,21.246Z" transform="translate(0 -0.174)"/><path d="M9.9,21.239a.069.069,0,1,1,.069-.069A.069.069,0,0,1,9.9,21.239Z" transform="translate(0 -0.174)"/><path d="M9.283,21.232a.061.061,0,0,1-.061-.062.062.062,0,0,1,.123,0A.062.062,0,0,1,9.283,21.232Z" transform="translate(0 -0.174)"/><path d="M8.665,21.213a.043.043,0,1,1,0-.085.043.043,0,1,1,0,.085Z" transform="translate(0 -0.174)"/><path d="M8.046,21.2a.031.031,0,0,1-.031-.031.031.031,0,0,1,.062,0A.031.031,0,0,1,8.046,21.2Z" transform="translate(0 -0.174)"/><path d="M7.427,21.194A.024.024,0,0,1,7.4,21.17a.024.024,0,0,1,.024-.024.024.024,0,0,1,.024.024A.023.023,0,0,1,7.427,21.194Z" transform="translate(0 -0.174)"/><path d="M6.809,21.187a.016.016,0,0,1-.017-.017.017.017,0,0,1,.017-.017.018.018,0,0,1,.017.017A.017.017,0,0,1,6.809,21.187Z" transform="translate(0 -0.174)"/><path d="M6.19,21.184a.014.014,0,0,1-.014-.014.014.014,0,0,1,.028,0A.014.014,0,0,1,6.19,21.184Z" transform="translate(0 -0.174)"/><path d="M5.571,21.181a.011.011,0,0,1-.01-.011.011.011,0,0,1,.01-.01.011.011,0,0,1,.011.01A.011.011,0,0,1,5.571,21.181Z" transform="translate(0 -0.174)"/><path d="M4.953,21.179a.009.009,0,0,1-.009-.009.009.009,0,0,1,.009-.008.009.009,0,0,1,.008.008A.009.009,0,0,1,4.953,21.179Z" transform="translate(0 -0.174)"/><path d="M12.377,21.9a.108.108,0,1,1,.108-.108A.108.108,0,0,1,12.377,21.9Z" transform="translate(0 -0.174)"/><path d="M11.758,21.884a.1.1,0,1,1,.1-.1A.1.1,0,0,1,11.758,21.884Z" transform="translate(0 -0.174)"/><path d="M11.139,21.867a.08.08,0,1,1,.081-.08A.08.08,0,0,1,11.139,21.867Z" transform="translate(0 -0.174)"/><path d="M10.521,21.852a.065.065,0,1,1,.065-.065A.065.065,0,0,1,10.521,21.852Z" transform="translate(0 -0.174)"/><path d="M9.9,21.843a.056.056,0,0,1-.056-.056A.057.057,0,0,1,9.9,21.73a.058.058,0,0,1,.057.057A.057.057,0,0,1,9.9,21.843Z" transform="translate(0 -0.174)"/><path d="M9.283,21.838a.051.051,0,1,1,.052-.051A.051.051,0,0,1,9.283,21.838Z" transform="translate(0 -0.174)"/><path d="M8.665,21.836a.049.049,0,0,1-.05-.049.05.05,0,0,1,.05-.05.051.051,0,0,1,.05.05A.05.05,0,0,1,8.665,21.836Z" transform="translate(0 -0.174)"/><path d="M8.046,21.821a.034.034,0,1,1,.034-.034A.034.034,0,0,1,8.046,21.821Z" transform="translate(0 -0.174)"/><path d="M7.427,21.813a.026.026,0,1,1,.026-.026A.026.026,0,0,1,7.427,21.813Z" transform="translate(0 -0.174)"/><path d="M6.809,21.809a.022.022,0,1,1,0-.044.022.022,0,0,1,0,.044Z" transform="translate(0 -0.174)"/><path d="M6.19,21.8a.015.015,0,0,1-.015-.015.016.016,0,0,1,.015-.016.016.016,0,0,1,.016.016A.016.016,0,0,1,6.19,21.8Z" transform="translate(0 -0.174)"/><path d="M5.571,21.8a.012.012,0,0,1,0-.024.012.012,0,0,1,0,.024Z" transform="translate(0 -0.174)"/><path d="M12.377,22.5a.1.1,0,1,1,.1-.1A.1.1,0,0,1,12.377,22.5Z" transform="translate(0 -0.174)"/><path d="M11.758,22.5a.1.1,0,1,1,.1-.1A.1.1,0,0,1,11.758,22.5Z" transform="translate(0 -0.174)"/><path d="M11.139,22.48a.077.077,0,1,1,0-.154.077.077,0,1,1,0,.154Z" transform="translate(0 -0.174)"/><path d="M10.521,22.467a.064.064,0,0,1-.064-.064.064.064,0,0,1,.064-.063.063.063,0,0,1,.063.063A.064.064,0,0,1,10.521,22.467Z" transform="translate(0 -0.174)"/><path d="M9.9,22.456a.053.053,0,0,1-.053-.053.053.053,0,0,1,.106,0A.053.053,0,0,1,9.9,22.456Z" transform="translate(0 -0.174)"/><path d="M9.283,22.449a.046.046,0,0,1-.046-.046.047.047,0,1,1,.046.046Z" transform="translate(0 -0.174)"/><path d="M8.665,22.453a.05.05,0,1,1,.05-.05A.05.05,0,0,1,8.665,22.453Z" transform="translate(0 -0.174)"/><path d="M8.046,22.448a.045.045,0,1,1,.045-.045A.045.045,0,0,1,8.046,22.448Z" transform="translate(0 -0.174)"/><path d="M7.427,22.439a.036.036,0,1,1,0-.071.036.036,0,1,1,0,.071Z" transform="translate(0 -0.174)"/><path d="M6.809,22.429a.026.026,0,1,1,0-.051.026.026,0,0,1,0,.051Z" transform="translate(0 -0.174)"/><path d="M6.19,22.424a.021.021,0,1,1,.021-.021A.021.021,0,0,1,6.19,22.424Z" transform="translate(0 -0.174)"/><path d="M12.377,23.114a.094.094,0,1,1,.094-.094A.095.095,0,0,1,12.377,23.114Z" transform="translate(0 -0.174)"/><circle cx="11.758" cy="22.846" r="0.08"/><path d="M11.139,23.088a.068.068,0,1,1,.069-.068A.068.068,0,0,1,11.139,23.088Z" transform="translate(0 -0.174)"/><path d="M10.521,23.078a.058.058,0,1,1,0-.116.058.058,0,0,1,0,.116Z" transform="translate(0 -0.174)"/><path d="M9.9,23.075a.055.055,0,1,1,.055-.055A.055.055,0,0,1,9.9,23.075Z" transform="translate(0 -0.174)"/><path d="M9.283,23.064a.045.045,0,1,1,.045-.044A.044.044,0,0,1,9.283,23.064Z" transform="translate(0 -0.174)"/><path d="M8.665,23.057a.037.037,0,0,1-.038-.037.038.038,0,0,1,.076,0A.037.037,0,0,1,8.665,23.057Z" transform="translate(0 -0.174)"/><path d="M8.046,23.056a.036.036,0,1,1,.036-.036A.036.036,0,0,1,8.046,23.056Z" transform="translate(0 -0.174)"/><path d="M7.427,23.057a.037.037,0,0,1-.037-.037.038.038,0,1,1,.075,0A.037.037,0,0,1,7.427,23.057Z" transform="translate(0 -0.174)"/><circle cx="6.809" cy="22.846" r="0.029"/><path d="M6.216,23.02" transform="translate(0 -0.174)"/><path d="M12.377,23.727a.091.091,0,1,1,.091-.091A.091.091,0,0,1,12.377,23.727Z" transform="translate(0 -0.174)"/><path d="M11.758,23.715a.079.079,0,1,1,0-.157.079.079,0,1,1,0,.157Z" transform="translate(0 -0.174)"/><path d="M11.139,23.7a.065.065,0,0,1-.065-.065.064.064,0,0,1,.065-.064.065.065,0,0,1,.066.064A.066.066,0,0,1,11.139,23.7Z" transform="translate(0 -0.174)"/><circle cx="10.521" cy="23.462" r="0.055"/><path d="M9.9,23.686a.05.05,0,1,1,0-.1.05.05,0,1,1,0,.1Z" transform="translate(0 -0.174)"/><path d="M9.283,23.679a.043.043,0,1,1,.043-.043A.042.042,0,0,1,9.283,23.679Z" transform="translate(0 -0.174)"/><circle cx="8.665" cy="23.462" r="0.036"/><path d="M8.046,23.669a.033.033,0,0,1-.033-.033.033.033,0,0,1,.066,0A.033.033,0,0,1,8.046,23.669Z" transform="translate(0 -0.174)"/><path d="M7.427,23.669a.032.032,0,0,1-.032-.033.032.032,0,0,1,.032-.032.032.032,0,0,1,.033.032A.033.033,0,0,1,7.427,23.669Z" transform="translate(0 -0.174)"/><path d="M6.809,23.666a.03.03,0,1,1,.029-.03A.029.029,0,0,1,6.809,23.666Z" transform="translate(0 -0.174)"/><path d="M12.377,24.33a.077.077,0,1,1,.077-.077A.077.077,0,0,1,12.377,24.33Z" transform="translate(0 -0.174)"/><path d="M11.758,24.32a.067.067,0,1,1,.067-.067A.067.067,0,0,1,11.758,24.32Z" transform="translate(0 -0.174)"/><path d="M11.139,24.314a.061.061,0,0,1-.061-.061.062.062,0,1,1,.123,0A.061.061,0,0,1,11.139,24.314Z" transform="translate(0 -0.174)"/><path d="M10.521,24.309a.056.056,0,1,1,0-.112.056.056,0,0,1,0,.112Z" transform="translate(0 -0.174)"/><path d="M9.9,24.3a.05.05,0,1,1,0-.1.05.05,0,1,1,0,.1Z" transform="translate(0 -0.174)"/><path d="M9.283,24.294a.041.041,0,1,1,.042-.041A.041.041,0,0,1,9.283,24.294Z" transform="translate(0 -0.174)"/><circle cx="8.665" cy="24.079" r="0.036"/><path d="M8.046,24.285a.032.032,0,1,1,.033-.032A.032.032,0,0,1,8.046,24.285Z" transform="translate(0 -0.174)"/><path d="M7.427,24.284a.031.031,0,0,1,0-.062.031.031,0,1,1,0,.062Z" transform="translate(0 -0.174)"/><path d="M6.809,24.222a.031.031,0,0,1,.031.031" transform="translate(0 -0.174)"/><path d="M12.377,24.95a.081.081,0,1,1,.08-.081A.081.081,0,0,1,12.377,24.95Z" transform="translate(0 -0.174)"/><path d="M11.758,24.94a.071.071,0,1,1,.07-.071A.07.07,0,0,1,11.758,24.94Z" transform="translate(0 -0.174)"/><path d="M11.139,24.933a.064.064,0,0,1-.063-.064.064.064,0,0,1,.127,0A.064.064,0,0,1,11.139,24.933Z" transform="translate(0 -0.174)"/><circle cx="10.521" cy="24.695" r="0.055"/><path d="M9.9,24.916a.047.047,0,0,1,0-.093.047.047,0,0,1,0,.093Z" transform="translate(0 -0.174)"/><path d="M9.283,24.911a.042.042,0,1,1,.042-.042A.042.042,0,0,1,9.283,24.911Z" transform="translate(0 -0.174)"/><path d="M8.665,24.907a.038.038,0,1,1,.038-.038A.038.038,0,0,1,8.665,24.907Z" transform="translate(0 -0.174)"/><path d="M8.046,24.9a.031.031,0,0,1-.031-.031.031.031,0,0,1,.062,0A.031.031,0,0,1,8.046,24.9Z" transform="translate(0 -0.174)"/><path d="M7.427,24.9a.03.03,0,0,1-.029-.03.03.03,0,0,1,.059,0A.03.03,0,0,1,7.427,24.9Z" transform="translate(0 -0.174)"/><path d="M12.377,25.558a.072.072,0,1,1,.072-.072A.072.072,0,0,1,12.377,25.558Z" transform="translate(0 -0.174)"/><path d="M11.758,25.553a.067.067,0,1,1,.067-.067A.067.067,0,0,1,11.758,25.553Z" transform="translate(0 -0.174)"/><circle cx="11.139" cy="25.312" r="0.058"/><path d="M10.521,25.534a.048.048,0,0,1,0-.1.048.048,0,0,1,0,.1Z" transform="translate(0 -0.174)"/><path d="M9.9,25.53a.045.045,0,0,1,0-.089.045.045,0,1,1,0,.089Z" transform="translate(0 -0.174)"/><circle cx="9.283" cy="25.312" r="0.043"/><circle cx="8.665" cy="25.312" r="0.036"/><path d="M8.046,25.519a.033.033,0,0,1-.033-.033.033.033,0,0,1,.066,0A.033.033,0,0,1,8.046,25.519Z" transform="translate(0 -0.174)"/><circle cx="12.377" cy="25.928" r="0.067"/><path d="M11.758,26.162a.06.06,0,1,1,.06-.06A.06.06,0,0,1,11.758,26.162Z" transform="translate(0 -0.174)"/><path d="M11.139,26.159A.057.057,0,1,1,11.2,26.1.056.056,0,0,1,11.139,26.159Z" transform="translate(0 -0.174)"/><path d="M10.521,26.147a.045.045,0,1,1,.044-.045A.045.045,0,0,1,10.521,26.147Z" transform="translate(0 -0.174)"/><path d="M9.9,26.147a.045.045,0,0,1,0-.089.045.045,0,1,1,0,.089Z" transform="translate(0 -0.174)"/><path d="M9.283,26.149A.047.047,0,1,1,9.33,26.1.047.047,0,0,1,9.283,26.149Z" transform="translate(0 -0.174)"/><path d="M8.665,26.145a.043.043,0,1,1,0-.085.043.043,0,1,1,0,.085Z" transform="translate(0 -0.174)"/><path d="M8.046,26.144a.041.041,0,0,1-.041-.042.041.041,0,0,1,.082,0A.041.041,0,0,1,8.046,26.144Z" transform="translate(0 -0.174)"/><path d="M12.377,26.786a.067.067,0,1,1,.067-.067A.067.067,0,0,1,12.377,26.786Z" transform="translate(0 -0.174)"/><path d="M11.758,26.779a.06.06,0,1,1,.06-.06A.06.06,0,0,1,11.758,26.779Z" transform="translate(0 -0.174)"/><path d="M11.139,26.77a.051.051,0,1,1,.052-.051A.051.051,0,0,1,11.139,26.77Z" transform="translate(0 -0.174)"/><path d="M10.521,26.76a.041.041,0,1,1,.041-.041A.041.041,0,0,1,10.521,26.76Z" transform="translate(0 -0.174)"/><path d="M9.9,26.762a.043.043,0,1,1,.043-.043A.043.043,0,0,1,9.9,26.762Z" transform="translate(0 -0.174)"/><path d="M9.283,26.76a.041.041,0,1,1,.042-.041A.041.041,0,0,1,9.283,26.76Z" transform="translate(0 -0.174)"/><path d="M8.665,26.758a.039.039,0,1,1,0-.078.039.039,0,0,1,0,.078Z" transform="translate(0 -0.174)"/><path d="M12.377,27.4a.067.067,0,1,1,.067-.066A.067.067,0,0,1,12.377,27.4Z" transform="translate(0 -0.174)"/><path d="M11.758,27.392a.057.057,0,0,1,0-.113.057.057,0,1,1,0,.113Z" transform="translate(0 -0.174)"/><path d="M11.139,27.385a.05.05,0,1,1,.05-.049A.049.049,0,0,1,11.139,27.385Z" transform="translate(0 -0.174)"/><path d="M10.521,27.377a.041.041,0,0,1-.041-.041.041.041,0,1,1,.082,0A.041.041,0,0,1,10.521,27.377Z" transform="translate(0 -0.174)"/><path d="M9.9,27.372a.036.036,0,0,1-.036-.036.036.036,0,0,1,.072,0A.036.036,0,0,1,9.9,27.372Z" transform="translate(0 -0.174)"/><circle cx="9.283" cy="27.161" r="0.036"/><path d="M12.377,28.022a.07.07,0,1,1,0-.14.07.07,0,1,1,0,.14Z" transform="translate(0 -0.174)"/><path d="M11.758,28.012a.06.06,0,1,1,.06-.06A.06.06,0,0,1,11.758,28.012Z" transform="translate(0 -0.174)"/><circle cx="11.139" cy="27.778" r="0.053"/><path d="M10.521,28a.045.045,0,1,1,.044-.045A.045.045,0,0,1,10.521,28Z" transform="translate(0 -0.174)"/><path d="M12.377,28.652a.084.084,0,1,1,0-.167.084.084,0,1,1,0,.167Z" transform="translate(0 -0.174)"/><circle cx="11.758" cy="28.394" r="0.077"/><path d="M11.079,28.569a.061.061,0,0,1,.121,0" transform="translate(0 -0.174)"/><path d="M12.377,29.281a.1.1,0,1,1,.1-.1A.1.1,0,0,1,12.377,29.281Z" transform="translate(0 -0.174)"/></svg>